<svg xmlns="http://www.w3.org/2000/svg" xmlns:xlink="http://www.w3.org/1999/xlink" viewBox="0 0 153.94 178.58"><defs><style>.cls-1{fill:#fff;}.cls-2{fill:#e83727;}.cls-3{fill:#2b3f80;}.cls-4{fill:#1d3162;opacity:0.64;}.cls-5{fill:#fffee6;}.cls-6{fill:#e0dbd6;}.cls-7{fill:url(#linear-gradient);}.cls-8{fill:#989e94;}.cls-9{fill:url(#linear-gradient-2);}.cls-10{fill:url(#linear-gradient-3);}.cls-11{fill:url(#linear-gradient-4);}.cls-12{fill:url(#radial-gradient);}.cls-13{opacity:0.6;fill:url(#linear-gradient-5);}.cls-14{fill:url(#radial-gradient-2);}.cls-15{fill:url(#linear-gradient-6);}.cls-16{fill:url(#linear-gradient-7);}.cls-17{fill:#727869;fill-opacity:0.7;}</style><linearGradient id="linear-gradient" x1="6.4" y1="99.06" x2="8.03" y2="99.06" gradientUnits="userSpaceOnUse"><stop offset="0" stop-color="#dfdfdc"/><stop offset="0.12" stop-color="#cecec9"/><stop offset="0.37" stop-color="#aeaea6"/><stop offset="0.61" stop-color="#98988d"/><stop offset="0.82" stop-color="#8a8a7e"/><stop offset="1" stop-color="#858579"/></linearGradient><linearGradient id="linear-gradient-2" x1="3.05" y1="14.26" x2="4.32" y2="14.26" gradientUnits="userSpaceOnUse"><stop offset="0.01" stop-color="#f5ffe1"/><stop offset="0.35" stop-color="#d0d9c3"/><stop offset="0.78" stop-color="#a8aea1"/><stop offset="1" stop-color="#989e94"/></linearGradient><linearGradient id="linear-gradient-3" x1="3.05" y1="13.27" x2="9.42" y2="13.27" gradientUnits="userSpaceOnUse"><stop offset="0" stop-color="#42412f"/><stop offset="0.23" stop-color="#454432"/><stop offset="0.42" stop-color="#4e4e3d"/><stop offset="0.6" stop-color="#5c5e4e"/><stop offset="0.77" stop-color="#717466"/><stop offset="0.93" stop-color="#8c9186"/><stop offset="1" stop-color="#989e94"/></linearGradient><linearGradient id="linear-gradient-4" x1="6.23" y1="12.37" x2="6.23" gradientUnits="userSpaceOnUse"><stop offset="0" stop-color="#727869"/><stop offset="0.33" stop-color="#757b6c"/><stop offset="0.61" stop-color="#7e8477"/><stop offset="0.87" stop-color="#8d9388"/><stop offset="1" stop-color="#989e94"/></linearGradient><radialGradient id="radial-gradient" cx="5.08" cy="7.47" r="4.03" gradientTransform="translate(0 -3.07) scale(1 0.99)" gradientUnits="userSpaceOnUse"><stop offset="0" stop-color="#efefee"/><stop offset="1" stop-color="#b3b7b0"/></radialGradient><linearGradient id="linear-gradient-5" x1="6.4" y1="23.97" x2="6.4" y2="19.53" gradientUnits="userSpaceOnUse"><stop offset="0" stop-color="#c2c2bc"/><stop offset="0.11" stop-color="#b3b3ab"/><stop offset="0.37" stop-color="#939388"/><stop offset="0.6" stop-color="#7d7d6f"/><stop offset="0.82" stop-color="#6f6f60"/><stop offset="1" stop-color="#6a6a5b"/></linearGradient><radialGradient id="radial-gradient-2" cx="4.32" cy="5.81" r="1.01" gradientTransform="matrix(0.96, 0.28, -0.27, 0.95, 1.75, -4.04)" gradientUnits="userSpaceOnUse"><stop offset="0.01" stop-color="#e9ebe9"/><stop offset="0.99" stop-color="#f9ffed"/></radialGradient><linearGradient id="linear-gradient-6" x1="6.26" y1="20.23" x2="6.26" y2="17.21" gradientUnits="userSpaceOnUse"><stop offset="0" stop-color="#5d5c4c"/><stop offset="0.18" stop-color="#737467"/><stop offset="0.39" stop-color="#878b80"/><stop offset="0.58" stop-color="#94998f"/><stop offset="0.74" stop-color="#989e94"/><stop offset="1" stop-color="#727869"/><stop offset="1" stop-color="#787f6f"/><stop offset="1" stop-color="#9fa694"/><stop offset="1" stop-color="#bfc6b2"/><stop offset="1" stop-color="#d8dfc9"/><stop offset="1" stop-color="#e9f1da"/><stop offset="1" stop-color="#f4fce4"/><stop offset="1" stop-color="#f7ffe7"/></linearGradient><linearGradient id="linear-gradient-7" x1="6.26" y1="20.1" x2="6.26" y2="17.21" gradientUnits="userSpaceOnUse"><stop offset="0" stop-color="#727869"/><stop offset="0.19" stop-color="#757b6c"/><stop offset="0.36" stop-color="#7e8477"/><stop offset="0.52" stop-color="#8e9489"/><stop offset="0.59" stop-color="#989e94"/><stop offset="0.96" stop-color="#989e94"/><stop offset="0.99" stop-color="#989e94"/></linearGradient></defs><title>batsyross</title><g id="Layer_2" data-name="Layer 2"><g id="batsy_ross" data-name="batsy ross"><g id="batsyross"><g id="besty_ross" data-name="besty ross"><path id="base" class="cls-1" d="M153.94,109.48C105.31,99,56.67,114.74,8,104.23V21.94c48.64,7,97.28-12.26,145.91-5.26Z"/><g id="red_line" data-name="red line"><path class="cls-2" d="M8,72.59v6.32c48.64,9.43,97.28-7.41,145.91,2V73.8C105.31,64.64,56.67,81.75,8,72.59Z"/><path class="cls-2" d="M153.94,23.81V16.68C105.31,9.68,56.67,28.94,8,21.94v6.32C56.67,35.53,105.31,16.54,153.94,23.81Z"/><path class="cls-2" d="M153.94,95.21V88.08C105.31,78.38,56.67,95,8,85.25v6.32C56.67,101.54,105.31,85.24,153.94,95.21Z"/><path class="cls-2" d="M8,97.91v6.32c48.64,10.51,97.28-5.25,145.91,5.25v-7.12C105.31,92.12,56.67,108.15,8,97.91Z"/><path class="cls-2" d="M8,59.92v6.32c48.64,8.89,97.28-8.48,145.91.41V59.52C105.31,50.9,56.67,68.54,8,59.92Z"/><path class="cls-2" d="M8,34.6v6.32c48.64,7.81,97.28-10.64,145.91-2.83V31C105.31,23.42,56.67,42.14,8,34.6Z"/><path class="cls-2" d="M8,47.26v6.32c48.64,8.35,97.28-9.56,145.91-1.21V45.24C105.31,37.16,56.67,55.34,8,47.26Z"/></g><path id="blue" class="cls-3" d="M69.39,67.43C48.94,69.08,28.49,70,8,66.24V21.94c20.46,2.94,40.91,1.24,61.36-1.19Z"/><g id="shadow"><path class="cls-4" d="M19.46,23.13c-.75.53-.87,1.28,0,2.31,4.19,4.87-2.15,18.38-1.23,26.34.62,5.41-1.45,12-2.87,15.62,1.45.18,2.89.35,4.33.5.87-11,8.1-36.64,12.22-44.4C27.77,23.51,23.62,23.4,19.46,23.13Z"/></g><g id="shadow-2" data-name="shadow"><path class="cls-4" d="M56.7,22.13c-4.25.41-8.5.75-12.74,1C49.31,31,60,58.11,61.15,68c1.74-.11,3.48-.24,5.23-.37-1.29-2.31-5.89-11-5.87-18.14,0-8.3-7.84-21.25-4.18-26.7A3.19,3.19,0,0,0,56.7,22.13Z"/></g><g id="shadow-3" data-name="shadow"><path class="cls-4" d="M48.73,62.15c-.48,1.31-.45,3.7-.09,6.55,2.71-.1,5.42-.22,8.12-.38C57.21,66.31,51.06,66.44,48.73,62.15Z"/></g><path id="stars" class="cls-5" d="M38.71,28.08c.24.52.49,1,.73,1.55l1.63.2-1.18,1.26c.09.58.19,1.15.28,1.72L38.71,32c-.48.29-1,.57-1.46.85.1-.57.19-1.15.28-1.73-.39-.4-.78-.8-1.18-1.19L38,29.68C38.23,29.15,38.47,28.62,38.71,28.08ZM30,32c-.44.31-.88.62-1.33.92l1.64.58.58,1.65.9-1.36,1.68.07c-.36-.47-.72-.93-1.07-1.4l.45-1.6-1.56.5L29.9,30.26Zm-6,5.31-.71,1.38q.86-.06,1.71-.15l1.32,1.25c0-.54.09-1.07.13-1.6L28,37.52l-1.63-.8c-.12-.55-.25-1.09-.37-1.63l-1.14,1.09-1.75-.4C23.42,36.28,23.73,36.78,24,37.28Zm-2.61,7.34.06,1.57c.47-.28.93-.58,1.4-.87l1.74.57L24,44.38l1-1.23-1.81,0c-.38-.44-.75-.89-1.12-1.33-.15.49-.3,1-.46,1.48l-1.7.37Zm1.34,7.89.83,1.42.76-1.43,1.77-.26-1.3-1.08.27-1.57-1.57.75-1.61-.73c.11.52.23,1,.34,1.56L21,52.27Zm5,6.62,1.39.91c0-.56,0-1.11,0-1.66l1.4-1.06-1.66-.38c-.17-.51-.35-1-.53-1.55l-1,1.41-1.73.07,1.05,1.28c-.18.53-.36,1.06-.53,1.59Zm7.5,3.63,1.65.14-.84-1.46.69-1.61-1.61.45-1.22-1.15-.15,1.74-1.45.87,1.52.66c.1.56.21,1.13.32,1.69Zm8.29-.38,1.52-.66-1.44-.88c-.06-.59-.11-1.17-.16-1.75l-1.22,1.16-1.61-.43c.23.53.46,1.07.7,1.61-.29.49-.57,1-.85,1.47l1.65-.15,1.1,1.34C43.35,63.52,43.46,63,43.56,62.38Zm7.18-4.3,1-1.3-1.72-.08-1-1.44c-.18.53-.36,1.06-.53,1.59l-1.65.39,1.39,1.07c0,.56,0,1.12,0,1.68l1.39-.92,1.63.64ZM55.16,51c.12-.54.23-1.07.34-1.61l-1.6.75-1.58-.78.27,1.61L51.29,52l1.77.27c.25.49.51,1,.77,1.47l.82-1.46,1.78-.22Zm.66-8.15-.46-1.52-1.11,1.38-1.81.07,1,1.24-.66,1.56,1.74-.6,1.4.89L56,44.21l1.53-1ZM52.55,35.6l-1.14-1.09c-.12.56-.25,1.12-.37,1.68l-1.63.88,1.52.6c0,.54.09,1.08.13,1.63L52.38,38l1.71.12c-.24-.47-.47-.94-.71-1.4l.93-1.57Zm-6.43-4.68-1.57-.42c.15.53.3,1.06.46,1.59l-1.08,1.47,1.68-.16.9,1.34c.19-.57.39-1.13.58-1.7l1.64-.66-1.32-.88c0-.58.07-1.16.11-1.74Z"/></g><rect id="stick" class="cls-6" x="4.76" y="19.53" width="3.27" height="159.05"/><rect id="shadow_stick" class="cls-7" x="6.4" y="19.53" width="1.64" height="159.05"/><rect id="support" class="cls-8" x="3.05" y="8.72" width="6.37" height="8.49"/><rect id="shade" class="cls-9" x="3.05" y="11.2" width="1.28" height="6.12"/><path id="shadow-4" data-name="shadow" class="cls-10" d="M9.42,9.48a22.25,22.25,0,0,0-6.37.19v1.77c2,.69,5.07,1.9,5.22,3.53.11,1.1.15,1.8.16,2.24h1Z"/><ellipse id="shadow-5" data-name="shadow" class="cls-11" cx="6.23" cy="6.19" rx="6.23" ry="6.19"/><path id="top_2" data-name="top 2" class="cls-8" d="M0,6.19A6.16,6.16,0,0,0,1.35,10a6.6,6.6,0,0,0,3.41,1,6.49,6.49,0,0,0,6-9A6.24,6.24,0,0,0,0,6.19Z"/><ellipse id="top" class="cls-12" cx="5.08" cy="4.34" rx="4.03" ry="3.99"/><path class="cls-13" d="M4.76,23.93A18.8,18.8,0,0,0,8,23.78V19.53H4.76Z"/><ellipse id="top-2" data-name="top" class="cls-14" cx="4.32" cy="2.69" rx="1.06" ry="0.95" transform="translate(-0.57 1.29) rotate(-15.98)"/><path id="base-2" data-name="base" class="cls-15" d="M1.27,17.21h10a1.24,1.24,0,0,1,1.24,1.24v.63a1.15,1.15,0,0,1-1.15,1.15H1.17A1.15,1.15,0,0,1,0,19.08v-.63a1.24,1.24,0,0,1,1.24-1.24Z"/><path id="edge" class="cls-16" d="M11,17.21H1.56A1.55,1.55,0,0,0,0,18.76v0c0,.86.66,1.3,1.52,1.3h9.34c.89,0,1.65-.47,1.65-1.34h0A1.55,1.55,0,0,0,11,17.21Zm1.13,1.59c0,.65-.52.79-1.17.79H1.56c-.65,0-1.17-.15-1.17-.79v0a1.17,1.17,0,0,1,1.17-1.17h9.35a1.17,1.17,0,0,1,1.17,1.17Z"/><path id="shadow-6" data-name="shadow" class="cls-17" d="M10.93,17.18H1.63a1.56,1.56,0,0,0-.57.11c1.75,0,5.59.08,6.51.65,1.1.69,1.83,1.28,1.95,2.29h1.39c-.17-.58-.49-1.87.23-2.29.28-.16.52-.31.73-.45A1.63,1.63,0,0,0,10.93,17.18Z"/></g></g></g></svg>