<svg xmlns="http://www.w3.org/2000/svg" xmlns:xlink="http://www.w3.org/1999/xlink" viewBox="0 0 177.19 170.08"><defs><style>.cls-1{fill:#dfb086;}.cls-2{fill:url(#linear-gradient);}.cls-3{fill:url(#linear-gradient-2);}.cls-4{fill:url(#linear-gradient-3);}.cls-5,.cls-6{fill-opacity:0.71;}.cls-5{fill:url(#linear-gradient-4);}.cls-6{fill:url(#linear-gradient-5);}.cls-7{fill:#541f0d;}.cls-8{fill:url(#linear-gradient-6);}.cls-9{fill:url(#linear-gradient-7);}.cls-10{fill:url(#linear-gradient-8);}.cls-11{fill:url(#linear-gradient-9);}.cls-12{fill:#0a1952;}.cls-13{fill:#fcfbfa;}.cls-14{fill:#db2a23;}</style><linearGradient id="linear-gradient" x1="66.96" y1="85.32" x2="107.08" y2="85.32" gradientUnits="userSpaceOnUse"><stop offset="0" stop-color="#d08b4e"/><stop offset="0.19" stop-color="#cf8849"/><stop offset="0.4" stop-color="#cc7f3c"/><stop offset="0.84" stop-color="#ca7b36"/><stop offset="0.92" stop-color="#d79b66"/><stop offset="1" stop-color="#e4bc98"/></linearGradient><linearGradient id="linear-gradient-2" x1="71.21" y1="85.61" x2="102.84" y2="85.61" gradientUnits="userSpaceOnUse"><stop offset="0.14" stop-color="#ca7b36"/><stop offset="0.23" stop-color="#c17431"/><stop offset="0.38" stop-color="#aa6324"/><stop offset="0.52" stop-color="#8c4c13"/><stop offset="1" stop-color="#ca7b36"/></linearGradient><linearGradient id="linear-gradient-3" x1="93.37" y1="87.89" x2="102.84" y2="87.89" xlink:href="#linear-gradient-2"/><linearGradient id="linear-gradient-4" x1="85.34" y1="132.92" x2="85.34" y2="82.16" gradientUnits="userSpaceOnUse"><stop offset="0" stop-color="#541f0d"/><stop offset="0.15" stop-color="#5d2610"/><stop offset="0.39" stop-color="#743818"/><stop offset="0.69" stop-color="#9a5625"/><stop offset="1" stop-color="#ca7b36"/></linearGradient><linearGradient id="linear-gradient-5" x1="85.46" y1="132.92" x2="85.46" y2="84.58" xlink:href="#linear-gradient-4"/><linearGradient id="linear-gradient-6" x1="90.86" y1="93.23" x2="90.86" y2="35.74" gradientUnits="userSpaceOnUse"><stop offset="0" stop-color="#ca7b36"/><stop offset="0.12" stop-color="#c57835"/><stop offset="0.26" stop-color="#b77133"/><stop offset="0.41" stop-color="#9f6430"/><stop offset="0.44" stop-color="#9a612f"/><stop offset="0.9" stop-color="#ca8d57"/><stop offset="1" stop-color="#d59760"/></linearGradient><linearGradient id="linear-gradient-7" x1="86.42" y1="128.8" x2="86.42" y2="60.29" gradientUnits="userSpaceOnUse"><stop offset="0" stop-color="#ca7b36"/><stop offset="0.04" stop-color="#c57835"/><stop offset="0.09" stop-color="#b76f30"/><stop offset="0.15" stop-color="#9f6029"/><stop offset="0.16" stop-color="#955a26"/><stop offset="0.71" stop-color="#c57834"/><stop offset="0.77" stop-color="#ca7b36"/><stop offset="0.84" stop-color="#cc803e"/><stop offset="0.95" stop-color="#d28f54"/><stop offset="1" stop-color="#d59760"/></linearGradient><linearGradient id="linear-gradient-8" x1="5.73" y1="38.72" x2="177.06" y2="38.72" gradientUnits="userSpaceOnUse"><stop offset="0" stop-color="#541f0d"/><stop offset="0.06" stop-color="#612a0e"/><stop offset="0.19" stop-color="#793d11"/><stop offset="0.32" stop-color="#874812"/><stop offset="0.42" stop-color="#8c4c13"/><stop offset="0.48" stop-color="#874812"/><stop offset="1" stop-color="#541f0d"/></linearGradient><linearGradient id="linear-gradient-9" x1="90.5" y1="65.71" x2="90.5" y2="11.44" gradientUnits="userSpaceOnUse"><stop offset="0.02" stop-color="#8c4c13"/><stop offset="0.09" stop-color="#9a571b"/><stop offset="0.33" stop-color="#ca7b36"/><stop offset="0.39" stop-color="#cc803e"/><stop offset="0.61" stop-color="#d38f55"/><stop offset="0.74" stop-color="#d5955e"/><stop offset="0.85" stop-color="#d79a65"/><stop offset="1" stop-color="#d89d6a"/></linearGradient></defs><title>britishstick</title><g id="Layer_2" data-name="Layer 2"><g id="britishflag"><g id="britishstick"><path id="shadow" class="cls-1" d="M92.49,1C80.65-.95,77.42.57,77.42.57L77,6.45c7.77,1.8,24,2,29.86.82l.19-3.13C104.37,4.44,97,3.39,92.49,1Z"/><path class="cls-2" d="M77.42.57A123.83,123.83,0,0,0,92.9,3.43c4.53,2.42,11.47,2.72,14.18,2.42l-10,164.23H67Z"/><path class="cls-3" d="M71.21,170.08l9.91-169c2.48.53,6,1.19,10.58,1.87a30,30,0,0,0,11.14,2.71L93.37,170.08Z"/><line class="cls-4" x1="102.84" y1="5.71" x2="93.37" y2="170.08"/><path class="cls-5" d="M69.33,131.78c11.31,3.12,22-.64,30.47-5.82l1.55-25.55-29-18.25Z"/><path class="cls-6" d="M73.41,132.62c8.09,1.12,15.76-1.05,22.37-4.41L97.52,98,76.22,84.58Z"/><polygon id="behind" class="cls-7" points="13.66 15.93 7.78 94.22 160.18 124.51 163.6 70.22 177.19 69.69 166.73 36.48 13.66 15.93"/><polygon class="cls-7" points="7.48 42.01 10.64 47.55 8.69 51.81 12.61 57.77 175.49 93.97 173.98 86.73 171.87 80.77 168.55 75.66 168.25 70.12 177.19 69.69 10.19 36.48 8.69 36.48 7.48 42.01"/><polygon class="cls-8" points="4.53 41.27 7.69 46.81 5.73 51.07 10.56 57.23 172.54 93.23 171.03 85.99 168.92 80.03 165.6 74.92 165.3 69.38 177.19 69.69 7.24 35.74 5.73 35.74 4.53 41.27"/><polygon class="cls-7" points="174.89 94.22 172.78 95.87 174.89 99.16 173.83 107.4 170.37 111.51 167.65 113.16 166.78 126.91 158.6 129.22 7.78 94.22 6.58 84.75 4.16 81.04 4.16 75.69 2.05 75.69 6.58 67.86 4.53 63.78 10.94 58.2 174.89 94.22"/><polygon class="cls-9" points="172.84 95.1 170.73 96.69 172.84 99.86 171.78 107.79 168.31 111.75 165.6 113.34 165.6 117.7 165.6 121.67 165.6 126.03 156.55 128.81 5.73 95.1 4.53 85.98 2.11 82.41 2.11 77.26 0 77.26 4.53 69.72 4.53 63.78 8.28 60.29 172.84 95.1"/><path class="cls-10" d="M14.78,11.44l-6,2.06V23.79l3,2.06-6,4.53,2.05,5.45L176.9,66l-3.16-6.79s-.3-15.24-2.11-16.06,5.43-7,5.43-7,.06-8.31-5.37-7.9L146.9,27.5s-21.12-5.77-26.85-5.77S90,16,90,16l-29.35.41L22.92,13.5Z"/><path class="cls-11" d="M11.76,11.44l-6,2.06V23.79l3,2.06-3,4.53L7.32,34.8l168,30.91-4.54-6.5s-.3-15.24-2.11-16.06,5.43-7,5.43-7,1.5-6.18-3.93-5.77H142.67S121,23.79,115.23,23.79,91.4,18.44,91.4,18.44l-33.18.41L21.11,16Z"/><g id="british"><polygon class="cls-12" points="151.75 115.09 16.01 89.06 22.99 20.41 158.73 46.45 151.75 115.09"/><polygon class="cls-13" points="158.43 49.43 158.73 46.45 142.34 43.3 16.16 87.56 16.01 89.06 35.02 92.71 158.43 49.43"/><polygon class="cls-13" points="22.99 20.41 22.77 22.59 134.16 111.72 151.75 115.09 151.98 112.79 40.81 23.83 22.99 20.41"/><polygon class="cls-14" points="81.76 58.85 78.19 61.04 143.86 113.58 151.75 115.09 151.77 114.87 81.76 58.85"/><polygon class="cls-14" points="30.75 91.89 98.17 68.24 95.41 64.72 22.47 90.3 30.75 91.89"/><polygon class="cls-14" points="23.34 20.48 94.15 77.14 97.5 74.79 31.62 22.07 23.34 20.48"/><polygon class="cls-14" points="145.32 43.88 72.22 69.52 74.2 73.32 153.6 45.46 145.32 43.88"/><polygon class="cls-13" points="98.19 104.88 70.98 99.66 77.97 30.91 105.18 36.13 98.19 104.88"/><polygon class="cls-13" points="153.94 93.55 18.2 67.52 20.46 45.31 156.2 71.34 153.94 93.55"/><polygon class="cls-14" points="76.38 100.69 92.79 103.84 99.78 35.09 83.38 31.95 76.38 100.69"/><polygon class="cls-14" points="154.31 89.91 18.51 63.87 20.03 48.94 155.83 74.98 154.31 89.91"/></g></g></g></g></svg>