<svg xmlns="http://www.w3.org/2000/svg" viewBox="0 0 154.4 83.8"><defs><style>.cls-1{fill:#fff;}.cls-2{fill:#e5e8e9;}.cls-3{fill:#ed1c25;}.cls-4{fill:#fdfef9;}</style></defs><title>calendar</title><g id="Layer_2" data-name="Layer 2"><g id="calendar"><g id="July4"><path class="cls-1" d="M154.4,7.77,45.46,0,0,77.61,86.84,83.8q14.23-4.71,28.49-9.33Z"/><polygon class="cls-2" points="115.33 74.47 86.84 83.8 96.31 70.1 115.33 74.47"/><path class="cls-3" d="M45.46,0,32.72,21.76l108.94,7.77L154.4,7.77Zm.39,14.41c-2.43-.17-3.63-1.62-2.68-3.24s3.68-2.79,6.11-2.62S52.91,10.18,52,11.8,48.28,14.58,45.85,14.41Zm89.41,6.38c-2.42-.17-3.62-1.63-2.68-3.24s3.69-2.79,6.11-2.62,3.63,1.63,2.68,3.24S137.69,21,135.26,20.79Z"/><path class="cls-4" d="M80.65,8.73a3.15,3.15,0,0,1-.74,1.18c-.07.12-.25.44-.56.95s-.65,1.17-.9,1.59q-4.52,7.69-7.5,8.08a3.82,3.82,0,0,1-.75,0,4.6,4.6,0,0,1-1.08-.22L68,20l-1-.25a2.8,2.8,0,0,1-.79-.33A1.73,1.73,0,0,1,65.5,18a3.79,3.79,0,0,1,.32-1.54c.11-.26.23-.53.36-.79a.89.89,0,0,1,.19-.72,1.66,1.66,0,0,1,1.23-.46,7.23,7.23,0,0,1,1.62.23c.81.19,1.23.4,1.27.61a.3.3,0,0,1,0,.24,2.12,2.12,0,0,1-.22.26,1,1,0,0,0-.15.3,5.12,5.12,0,0,0-.52,1.44c-.12.53-.06.8.16.82q.66,0,3.27-4.15c.34-.55,1.38-2.31,3.11-5.26a.54.54,0,0,0,.06-.27.91.91,0,0,1,0-.2,1,1,0,0,1,.54-.36,2.07,2.07,0,0,1,.78-.18,9.13,9.13,0,0,1,1.83.23Q80.69,8.46,80.65,8.73Z"/><path class="cls-4" d="M94.54,10.38q.12-.17-1.62,2.79Q88,21.51,84.39,21.53a4.41,4.41,0,0,1-1.4-.25l-1.48-.5-1.31-.36a1.63,1.63,0,0,1-.89-.53c-.34-.49-.27-1.48.23-3a25.12,25.12,0,0,1,2.16-4.55A26.39,26.39,0,0,1,84,9a1.44,1.44,0,0,1,1-.54,5.66,5.66,0,0,1,1.56.33,3.37,3.37,0,0,1,1.41.57.24.24,0,0,1,0,.24,2.15,2.15,0,0,1-.53.51,1.75,1.75,0,0,0-.5.5,11.14,11.14,0,0,0-1.05,1.6A39.5,39.5,0,0,0,83.43,17c-.76,1.81-.85,2.72-.27,2.72.74,0,1.76-.81,3.09-2.45a35.6,35.6,0,0,0,3.06-4.49,11.86,11.86,0,0,0,1.11-2.16.86.86,0,0,0,.2-.49,1.75,1.75,0,0,1,0-.36A1.19,1.19,0,0,1,91.54,9a1.25,1.25,0,0,1,.4,0,8.27,8.27,0,0,1,1.72.35,3.23,3.23,0,0,1,1.17.46C94.88,9.88,94.78,10.07,94.54,10.38Z"/><path class="cls-4" d="M102.21,20.44a2.48,2.48,0,0,1-1.32.77,1.34,1.34,0,0,1-.48,0,1.1,1.1,0,0,0-.44,0l-3.78.67a1.49,1.49,0,0,0-.46.23,1.1,1.1,0,0,1-.46.21,4.91,4.91,0,0,1-1.91-.36c-.91-.3-1.42-.56-1.52-.77s0-.41.27-.74c.12-.16.21-.28.26-.36l5.76-9.84a.29.29,0,0,0,0-.26c0-.08-.06-.14,0-.19a1.49,1.49,0,0,1,1-.35,6.13,6.13,0,0,1,1.87.36c1,.31,1.46.61,1.29.92a1.5,1.5,0,0,1-.44.33,1.61,1.61,0,0,0-.45.33l-4.74,8.1,2.67-.5a5,5,0,0,1,.9-.21,3,3,0,0,1,1.28.74C102.1,20,102.35,20.3,102.21,20.44Z"/><path class="cls-4" d="M120.52,12.27a1.41,1.41,0,0,1-1.09.93,1.68,1.68,0,0,0-.42.1A62.81,62.81,0,0,0,113,17.64a38.6,38.6,0,0,0-4.23,3.58,1.1,1.1,0,0,0-.15.42,1.47,1.47,0,0,1-.19.49c-.48.65-.94,1-1.38,1a5.6,5.6,0,0,1-1.39-.32,6.72,6.72,0,0,1-1.39-.55c-.36-.27-.48-.52-.34-.75a1.42,1.42,0,0,1,.39-.39L107,18.88c-.24-1.75-.39-3-.44-3.63a14.87,14.87,0,0,1,0-3.24.51.51,0,0,0-.12-.24c-.08-.11-.1-.2,0-.28a3,3,0,0,1,1.24-.6,8.61,8.61,0,0,1,3-.69.53.53,0,0,1,.45.35.52.52,0,0,1,.06.41,5.9,5.9,0,0,0-.39.91,8.9,8.9,0,0,0-.2,4.08c1.6-1.27,2.49-2,2.68-2.11a34.2,34.2,0,0,1,3.25-2.19,7.82,7.82,0,0,1,.66-.58,2.22,2.22,0,0,1,1.35-.19,3.51,3.51,0,0,1,1.31.63C120.33,11.87,120.58,12.13,120.52,12.27Z"/><path d="M62.7,61.93l2.42-4.14-16.76-1.2c-2.12-.15-3.52-.58-4.2-1.3a2.06,2.06,0,0,1-.06-2.71,3.25,3.25,0,0,1,.73-.84,9.37,9.37,0,0,1,1.24-.87c.5-.29,1-.58,1.51-.85l1.87-1,27-14.52a44.58,44.58,0,0,1,4.17-2,6.72,6.72,0,0,1,3.1-.51c3.39.24,4.32,1.65,2.81,4.23L76.39,53.4l1.44.1a12,12,0,0,1,3.85.76c.85.39,1,1.11.35,2.16a4,4,0,0,1-2.37,1.79,11.6,11.6,0,0,1-4.15.32l-2-.15-2.42,4.14A5.94,5.94,0,0,1,68.42,65a7.09,7.09,0,0,1-3.53.62,3.18,3.18,0,0,1-2.52-1.08C61.94,63.91,62.05,63,62.7,61.93Zm-9-10.15L68,52.8l7.58-12.93Z"/></g></g></g></svg>