<svg xmlns="http://www.w3.org/2000/svg" xmlns:xlink="http://www.w3.org/1999/xlink" viewBox="0 0 220.93 88"><defs><style>.cls-1{fill:url(#linear-gradient);}.cls-2{fill:url(#linear-gradient-2);}.cls-3{fill:url(#linear-gradient-3);}.cls-4{fill:url(#linear-gradient-4);}</style><linearGradient id="linear-gradient" x1="88.01" x2="88.01" y2="58.67" gradientTransform="matrix(-1.3, 0, 0, 1, 262.33, 0)" gradientUnits="userSpaceOnUse"><stop offset="0" stop-color="#cfdfea"/><stop offset="1" stop-color="#f0eaf7"/></linearGradient><linearGradient id="linear-gradient-2" x1="31.91" y1="49.24" x2="144.18" y2="49.24" gradientTransform="matrix(-1.3, 0, 0, 1, 262.33, 0)" gradientUnits="userSpaceOnUse"><stop offset="0" stop-color="#cfdfea"/><stop offset="1" stop-color="#acd3dd"/></linearGradient><linearGradient id="linear-gradient-3" x1="61.56" y1="29.33" x2="61.56" y2="88" gradientTransform="matrix(1, 0, 0, 1, 0, 0)" xlink:href="#linear-gradient"/><linearGradient id="linear-gradient-4" x1="0.03" y1="78.57" x2="123.17" y2="78.57" gradientTransform="matrix(1, 0, 0, 1, 0, 0)" xlink:href="#linear-gradient-2"/></defs><title>cloud2</title><g id="Layer_2" data-name="Layer 2"><g id="cloud2"><g id="cloud_2" data-name="cloud 2"><path class="cls-1" d="M75.23,36.12c-.25-6.39,5.84-11.71,13.64-12,.08-6.23,6.56-11.34,14.75-11.52a20.08,20.08,0,0,1,3.67.27C110.21,5.62,118.91.23,129.4,0,142.58-.28,153.57,7.69,154,17.79a14.42,14.42,0,0,1-1.19,6.28s-1.28-2.31,2.44-1.85,1.84,1.85,1.84,1.85c.05-6.78,6.38-12.75,15.28-14,9.66-1.37,19.17,3.28,21.84,10.43a15,15,0,0,1,6.6-1.48c6.81,0,12.32,4.22,12.33,9.43,4.8,3.17,7.82,7.79,7.82,12.94h0c0,9.55-10.41,17.3-23.25,17.3H98.49c-12.84,0-23.25-7.75-23.25-17.3h0s0-.08,0-.12C75.13,39.7,75.3,38,75.23,36.12Z"/><path class="cls-2" d="M152.12,50.81c34.72,0,60.07-3.37,68.78-10.74-.65,10.36-10.79,18.6-23.22,18.6H98.49c-12.57,0-24.51-7.74-23.25-18.86C87,45.56,119.83,50.81,152.12,50.81Z"/></g><path class="cls-3" d="M123.11,65.45a11.75,11.75,0,0,0-11.53-12C111.52,47.27,106,42.15,99.12,42a13.72,13.72,0,0,0-3.1.26C93.55,35,86.2,29.57,77.34,29.34,66.21,29.06,56.91,37,56.58,47.13a16.84,16.84,0,0,0,1,6.27s1.09-2.3-2.06-1.84S54,53.4,54,53.4c0-6.77-5.39-12.75-12.9-14C32.9,38,24.86,42.66,22.6,49.81A11.14,11.14,0,0,0,17,48.33c-5.74,0-10.4,4.22-10.41,9.44A16.43,16.43,0,0,0,0,70.7H0C0,80.26,8.79,88,19.64,88h83.81c10.85,0,19.65-7.74,19.65-17.3h0s0-.08,0-.11C123.19,69,123.05,67.28,123.11,65.45Z"/><path class="cls-4" d="M58.14,80.14C28.81,80.14,7.39,76.77,0,69.41A19.64,19.64,0,0,0,19.64,88h83.81c10.63,0,20.71-7.74,19.65-18.86C113.18,74.89,85.43,80.14,58.14,80.14Z"/></g></g></svg>