<svg xmlns="http://www.w3.org/2000/svg" xmlns:xlink="http://www.w3.org/1999/xlink" viewBox="0 0 119.13 54.89"><defs><style>.cls-1{fill:url(#linear-gradient);}.cls-2{fill:url(#linear-gradient-2);}</style><linearGradient id="linear-gradient" x1="-1200.47" y1="-4.39" x2="-1200.47" y2="50.27" gradientTransform="matrix(1.25, -0.01, 0, 1, 1565.39, -1.92)" gradientUnits="userSpaceOnUse"><stop offset="0" stop-color="#cfdfea"/><stop offset="1" stop-color="#f0eaf7"/></linearGradient><linearGradient id="linear-gradient-2" x1="-1247.91" y1="41.48" x2="-1152.97" y2="41.48" gradientTransform="matrix(1.25, -0.01, 0, 1, 1565.39, -1.92)" gradientUnits="userSpaceOnUse"><stop offset="0" stop-color="#cfdfea"/><stop offset="1" stop-color="#acd3dd"/></linearGradient></defs><title>cloud3</title><g id="Layer_2" data-name="Layer 2"><g id="cloud1"><g id="cloud_2" data-name="cloud 2"><path class="cls-1" d="M119.05,33.46c.17-5.95-4.83-10.89-11.2-11.09-.09-5.81-5.4-10.55-12.1-10.68a14.14,14.14,0,0,0-3,.26C90.34,5.17,83.21.18,74.64,0c-10.77-.21-19.73,7.24-20,16.66a15.06,15.06,0,0,0,1,5.84s1-2.15-2-1.71-1.5,1.73-1.5,1.73c-.07-6.32-5.27-11.86-12.54-13-7.9-1.24-15.66,3.12-17.81,9.79a11,11,0,0,0-5.4-1.36c-5.56,0-10,4-10,8.83A15.15,15.15,0,0,0,0,38.85H0c0,8.9,8.57,16.08,19.07,16l81.05-.35c10.5,0,19-7.29,18.93-16.19h0v-.11C119.14,36.79,119,35.16,119.05,33.46Z"/><path class="cls-2" d="M56.27,47.41C27.9,47.53,7.17,44.48,0,37.65c.57,9.64,8.89,17.28,19.05,17.24l81.05-.35c10.28,0,20-7.29,18.93-17.64C109.48,42.29,82.66,47.3,56.27,47.41Z"/></g></g></g></svg>