<svg xmlns="http://www.w3.org/2000/svg" xmlns:xlink="http://www.w3.org/1999/xlink" viewBox="0 0 355.65 106.4"><defs><style>.cls-1{fill:url(#linear-gradient);}.cls-2{fill:url(#linear-gradient-2);}.cls-3{fill:url(#linear-gradient-3);}.cls-4{fill:url(#linear-gradient-4);}</style><linearGradient id="linear-gradient" x1="84.96" x2="84.96" y2="72" gradientUnits="userSpaceOnUse"><stop offset="0" stop-color="#cfdfea"/><stop offset="1" stop-color="#f0eaf7"/></linearGradient><linearGradient id="linear-gradient-2" x1="0.04" y1="60.43" x2="169.99" y2="60.43" gradientUnits="userSpaceOnUse"><stop offset="0" stop-color="#cfdfea"/><stop offset="1" stop-color="#acd3dd"/></linearGradient><linearGradient id="linear-gradient-3" x1="-1239.38" y1="44.29" x2="-1239.38" y2="106.29" gradientTransform="matrix(-1.3, 0.01, 0, 1, -1323.57, 6.71)" xlink:href="#linear-gradient"/><linearGradient id="linear-gradient-4" x1="-1293.19" y1="96.33" x2="-1185.49" y2="96.33" gradientTransform="matrix(-1.3, 0.01, 0, 1, -1323.57, 6.71)" xlink:href="#linear-gradient-2"/></defs><title>cloud1</title><g id="Layer_2" data-name="Layer 2"><g id="cloud3"><path class="cls-1" d="M169.9,44.33c.29-7.84-6.82-14.37-15.91-14.68-.09-7.64-7.64-13.92-17.2-14.13a21.53,21.53,0,0,0-4.28.32C129.11,6.9,119,.29,106.73,0,91.37-.34,78.54,9.43,78.09,21.84a18.41,18.41,0,0,0,1.38,7.7s1.5-2.83-2.84-2.26-2.15,2.26-2.15,2.26c-.06-8.32-7.44-15.65-17.81-17.2-11.27-1.68-22.37,4-25.48,12.79a16.76,16.76,0,0,0-7.7-1.82c-7.93,0-14.35,5.19-14.37,11.58C3.53,38.78,0,44.45,0,50.77H0C0,62.5,12.14,72,27.11,72H142.77c15,0,27.11-9.5,27.11-21.23h0v-.14C170,48.72,169.82,46.57,169.9,44.33Z"/><path class="cls-2" d="M80.24,62.36c-40.48,0-70-4.14-80.2-13.18C.79,61.9,12.62,72,27.11,72H142.77c14.67,0,28.58-9.5,27.11-23.14C156.19,55.91,117.9,62.36,80.24,62.36Z"/><g id="cloud_2" data-name="cloud 2"><path class="cls-3" d="M215.85,82.67c-.27-6.75,5.56-12.4,13-12.69.05-6.59,6.24-12,14.1-12.24a17.12,17.12,0,0,1,3.53.27c2.76-7.72,11.08-13.44,21.15-13.72,12.64-.36,23.22,8,23.64,18.69a16.46,16.46,0,0,1-1.11,6.64s-1.24-2.43,2.33-2,1.78,1.94,1.78,1.94c0-7.16,6.07-13.5,14.59-14.87,9.26-1.49,18.41,3.38,21,10.92a13.43,13.43,0,0,1,6.33-1.59c6.53,0,11.84,4.42,11.87,9.93,4.62,3.32,7.54,8.19,7.56,13.63h0c0,10.1-9.91,18.33-22.22,18.38l-95.16.4c-12.32,0-22.34-8.09-22.38-18.18h0v-.13C215.77,86.45,215.93,84.6,215.85,82.67Z"/><path class="cls-4" d="M289.68,97.88c33.3-.14,57.61-3.8,65.93-11.62C355,97.21,345.34,106,333.43,106l-95.16.4c-12.06,0-23.55-8.08-22.39-19.83C227.17,92.6,258.7,98,289.68,97.88Z"/></g></g></g></svg>