<svg xmlns="http://www.w3.org/2000/svg" viewBox="0 0 1118 129"><defs><style>.cls-1{fill:#60eaea;}</style></defs><title>fireworks_bottom</title><g id="Layer_2" data-name="Layer 2"><g id="night_scene" data-name="night scene"><g id="fireworks"><g id="fireworks_bottom"><rect class="cls-1" y="60" width="9" height="38" rx="4.5" ry="4.5" transform="translate(9 158) rotate(-180)"/><rect class="cls-1" x="184.83" y="2" width="9" height="38" rx="4.5" ry="4.5" transform="translate(378.67 42) rotate(-180)"/><rect class="cls-1" x="369.67" y="50" width="9" height="38" rx="4.5" ry="4.5" transform="translate(748.33 138) rotate(-180)"/><rect class="cls-1" x="554.5" y="66" width="9" height="38" rx="4.5" ry="4.5" transform="translate(1118 170) rotate(-180)"/><rect class="cls-1" x="739.33" y="36" width="9" height="38" rx="4.5" ry="4.5" transform="translate(1487.67 110) rotate(-180)"/><rect class="cls-1" x="924.17" width="9" height="38" rx="4.5" ry="4.5" transform="translate(1857.33 38) rotate(-180)"/><rect class="cls-1" x="1109" y="91" width="9" height="38" rx="4.5" ry="4.5" transform="translate(2227 220) rotate(-180)"/></g></g></g></g></svg>