<svg xmlns="http://www.w3.org/2000/svg" viewBox="0 0 1199 181"><defs><style>.cls-1{fill:#be1f52;}.cls-2{fill:#3fbc17;}.cls-3{fill:#4bb4bc;}.cls-4{fill:#fcf235;}</style></defs><title>fireworks_top</title><g id="Layer_2" data-name="Layer 2"><g id="night_scene" data-name="night scene"><g id="fireworks"><g id="fireworks_main"><rect class="cls-1" x="41" y="58" width="9" height="38" rx="4.5" ry="4.5"/><rect class="cls-2" x="22.47" y="65.26" width="9" height="38" rx="4.5" ry="4.5" transform="translate(-51.68 43.75) rotate(-45)"/><rect class="cls-3" x="14.5" y="83.5" width="9" height="38" rx="4.5" ry="4.5" transform="translate(-83.5 121.5) rotate(-90)"/><rect class="cls-4" x="21.76" y="102.03" width="9" height="38" rx="4.5" ry="4.5" transform="translate(-40.75 225.18) rotate(-135)"/><rect class="cls-2" x="40" y="110" width="9" height="38" rx="4.5" ry="4.5" transform="translate(89 258) rotate(-180)"/><rect class="cls-3" x="58.53" y="102.74" width="9" height="38" rx="4.5" ry="4.5" transform="translate(193.68 163.25) rotate(135)"/><rect class="cls-1" x="66.5" y="84.5" width="9" height="38" rx="4.5" ry="4.5" transform="translate(174.5 32.5) rotate(90)"/><rect class="cls-4" x="59.24" y="65.97" width="9" height="38" rx="4.5" ry="4.5" transform="translate(78.75 -20.18) rotate(45)"/><rect class="cls-1" x="225.83" width="9" height="38" rx="4.5" ry="4.5"/><rect class="cls-2" x="207.3" y="7.26" width="9" height="38" rx="4.5" ry="4.5" transform="translate(43.47 157.46) rotate(-45)"/><rect class="cls-3" x="199.33" y="25.5" width="9" height="38" rx="4.5" ry="4.5" transform="translate(159.33 248.33) rotate(-90)"/><rect class="cls-4" x="206.6" y="44.03" width="9" height="38" rx="4.5" ry="4.5" transform="translate(315.79 256.87) rotate(-135)"/><rect class="cls-2" x="224.83" y="52" width="9" height="38" rx="4.5" ry="4.5" transform="translate(458.67 142) rotate(-180)"/><rect class="cls-3" x="243.36" y="44.74" width="9" height="38" rx="4.5" ry="4.5" transform="translate(468.2 -66.46) rotate(135)"/><rect class="cls-1" x="251.33" y="26.5" width="9" height="38" rx="4.5" ry="4.5" transform="translate(301.33 -210.33) rotate(90)"/><rect class="cls-4" x="244.07" y="7.97" width="9" height="38" rx="4.5" ry="4.5" transform="translate(91.87 -167.87) rotate(45)"/><rect class="cls-1" x="410.67" y="48" width="9" height="38" rx="4.5" ry="4.5"/><rect class="cls-2" x="392.14" y="55.26" width="9" height="38" rx="4.5" ry="4.5" transform="translate(63.66 302.21) rotate(-45)"/><rect class="cls-3" x="384.17" y="73.5" width="9" height="38" rx="4.5" ry="4.5" transform="translate(296.17 481.17) rotate(-90)"/><rect class="cls-4" x="391.43" y="92.03" width="9" height="38" rx="4.5" ry="4.5" transform="translate(597.38 469.51) rotate(-135)"/><rect class="cls-2" x="409.67" y="100" width="9" height="38" rx="4.5" ry="4.5" transform="translate(828.33 238) rotate(-180)"/><rect class="cls-3" x="428.2" y="92.74" width="9" height="38" rx="4.5" ry="4.5" transform="translate(817.67 -115.21) rotate(135)"/><rect class="cls-1" x="436.17" y="74.5" width="9" height="38" rx="4.5" ry="4.5" transform="translate(534.17 -347.17) rotate(90)"/><rect class="cls-4" x="428.9" y="55.97" width="9" height="38" rx="4.5" ry="4.5" transform="translate(179.95 -284.51) rotate(45)"/><rect class="cls-1" x="595.5" y="64" width="9" height="38" rx="4.5" ry="4.5"/><rect class="cls-2" x="576.97" y="71.26" width="9" height="38" rx="4.5" ry="4.5" transform="translate(106.48 437.6) rotate(-45)"/><rect class="cls-3" x="569" y="89.5" width="9" height="38" rx="4.5" ry="4.5" transform="translate(465 682) rotate(-90)"/><rect class="cls-4" x="576.26" y="108.03" width="9" height="38" rx="4.5" ry="4.5" transform="translate(901.6 627.52) rotate(-135)"/><rect class="cls-2" x="594.5" y="116" width="9" height="38" rx="4.5" ry="4.5" transform="translate(1198 270) rotate(-180)"/><rect class="cls-3" x="613.03" y="108.74" width="9" height="38" rx="4.5" ry="4.5" transform="translate(1144.52 -218.6) rotate(135)"/><rect class="cls-1" x="621" y="90.5" width="9" height="38" rx="4.5" ry="4.5" transform="translate(735 -516) rotate(90)"/><rect class="cls-4" x="613.74" y="71.97" width="9" height="38" rx="4.5" ry="4.5" transform="translate(245.4 -410.52) rotate(45)"/><rect class="cls-1" x="780.33" y="36" width="9" height="38" rx="4.5" ry="4.5"/><rect class="cls-2" x="761.8" y="43.26" width="9" height="38" rx="4.5" ry="4.5" transform="translate(180.42 560.09) rotate(-45)"/><rect class="cls-3" x="753.83" y="61.5" width="9" height="38" rx="4.5" ry="4.5" transform="translate(677.83 838.83) rotate(-90)"/><rect class="cls-4" x="761.1" y="80.03" width="9" height="38" rx="4.5" ry="4.5" transform="translate(1236.93 710.41) rotate(-135)"/><rect class="cls-2" x="779.33" y="88" width="9" height="38" rx="4.5" ry="4.5" transform="translate(1567.67 214) rotate(-180)"/><rect class="cls-3" x="797.86" y="80.74" width="9" height="38" rx="4.5" ry="4.5" transform="translate(1440.25 -397.09) rotate(135)"/><rect class="cls-1" x="805.83" y="62.5" width="9" height="38" rx="4.5" ry="4.5" transform="translate(891.83 -728.83) rotate(90)"/><rect class="cls-4" x="798.57" y="43.97" width="9" height="38" rx="4.5" ry="4.5" transform="translate(279.74 -549.41) rotate(45)"/><rect class="cls-1" x="965.17" width="9" height="38" rx="4.5" ry="4.5"/><rect class="cls-2" x="946.64" y="7.26" width="9" height="38" rx="4.5" ry="4.5" transform="translate(260.01 680.25) rotate(-45)"/><rect class="cls-3" x="938.67" y="25.5" width="9" height="38" rx="4.5" ry="4.5" transform="translate(898.67 987.67) rotate(-90)"/><rect class="cls-4" x="945.93" y="44.03" width="9" height="38" rx="4.5" ry="4.5" transform="translate(1577.91 779.66) rotate(-135)"/><rect class="cls-2" x="964.17" y="52" width="9" height="38" rx="4.5" ry="4.5" transform="translate(1937.33 142) rotate(-180)"/><rect class="cls-3" x="982.7" y="44.74" width="9" height="38" rx="4.5" ry="4.5" transform="translate(1730.32 -589.25) rotate(135)"/><rect class="cls-1" x="993" y="26" width="9" height="38" rx="4.5" ry="4.5" transform="translate(1042.5 -952.5) rotate(90)"/><rect class="cls-4" x="983.4" y="7.97" width="9" height="38" rx="4.5" ry="4.5" transform="translate(308.42 -690.66) rotate(45)"/><rect class="cls-1" x="1150" y="91" width="9" height="38" rx="4.5" ry="4.5"/><rect class="cls-2" x="1131.47" y="98.26" width="9" height="38" rx="4.5" ry="4.5" transform="translate(249.8 837.6) rotate(-45)"/><rect class="cls-3" x="1123.5" y="116.5" width="9" height="38" rx="4.5" ry="4.5" transform="translate(992.5 1263.5) rotate(-90)"/><rect class="cls-4" x="1130.76" y="135.03" width="9" height="38" rx="4.5" ry="4.5" transform="translate(1829.1 1065.7) rotate(-135)"/><rect class="cls-2" x="1149" y="143" width="9" height="38" rx="4.5" ry="4.5" transform="translate(2307 324) rotate(-180)"/><rect class="cls-3" x="1167.53" y="135.74" width="9" height="38" rx="4.5" ry="4.5" transform="translate(2110.2 -564.6) rotate(135)"/><rect class="cls-1" x="1175.5" y="117.5" width="9" height="38" rx="4.5" ry="4.5" transform="translate(1316.5 -1043.5) rotate(90)"/><rect class="cls-4" x="1168.24" y="98.97" width="9" height="38" rx="4.5" ry="4.5" transform="translate(426.9 -794.7) rotate(45)"/></g></g></g></g></svg>