<svg xmlns="http://www.w3.org/2000/svg" xmlns:xlink="http://www.w3.org/1999/xlink" viewBox="0 0 63.07 74.03"><defs><style>.cls-1{opacity:0.6;fill:url(#linear-gradient);}.cls-2{fill:#e0dbd6;}.cls-3{fill:url(#linear-gradient-2);}.cls-4{fill:#e6d432;}.cls-5{fill:url(#linear-gradient-3);}.cls-6{fill:url(#linear-gradient-4);}.cls-7{fill:url(#linear-gradient-5);}.cls-8{fill:url(#radial-gradient);}.cls-9{fill:url(#radial-gradient-2);}.cls-10{fill:url(#linear-gradient-6);}.cls-11{fill:url(#linear-gradient-7);}.cls-12{fill:#7a781b;fill-opacity:0.7;}.cls-13{fill:#fff;}.cls-14{fill:#c71a2a;}.cls-15{fill:#2c2c54;}.cls-16{fill:#edeeff;}</style><linearGradient id="linear-gradient" x1="2.65" y1="9.94" x2="2.65" y2="8.1" gradientUnits="userSpaceOnUse"><stop offset="0" stop-color="#88877c"/><stop offset="0.25" stop-color="#7d7c6f"/><stop offset="0.66" stop-color="#6f6f60"/><stop offset="1" stop-color="#6a6a5b"/></linearGradient><linearGradient id="linear-gradient-2" x1="2.65" y1="41.06" x2="3.33" y2="41.06" gradientUnits="userSpaceOnUse"><stop offset="0" stop-color="#dfdfdc"/><stop offset="0.12" stop-color="#cecec9"/><stop offset="0.37" stop-color="#aeaea6"/><stop offset="0.61" stop-color="#98988d"/><stop offset="0.82" stop-color="#8a8a7e"/><stop offset="1" stop-color="#858579"/></linearGradient><linearGradient id="linear-gradient-3" x1="1.26" y1="5.91" x2="1.79" y2="5.91" gradientUnits="userSpaceOnUse"><stop offset="0.01" stop-color="#e8e585"/><stop offset="0.26" stop-color="#e7e06d"/><stop offset="0.75" stop-color="#e6d742"/><stop offset="1" stop-color="#e6d432"/></linearGradient><linearGradient id="linear-gradient-4" x1="1.26" y1="5.5" x2="3.91" y2="5.5" gradientUnits="userSpaceOnUse"><stop offset="0" stop-color="#42412f"/><stop offset="0.19" stop-color="#45442f"/><stop offset="0.34" stop-color="#504d2f"/><stop offset="0.49" stop-color="#615d30"/><stop offset="0.63" stop-color="#7a7330"/><stop offset="0.76" stop-color="#998f31"/><stop offset="0.89" stop-color="#bfb131"/><stop offset="1" stop-color="#e6d432"/></linearGradient><linearGradient id="linear-gradient-5" x1="2.58" y1="5.13" x2="2.58" gradientUnits="userSpaceOnUse"><stop offset="0" stop-color="#7a781b"/><stop offset="0.23" stop-color="#7d7b1c"/><stop offset="0.41" stop-color="#88841e"/><stop offset="0.59" stop-color="#999222"/><stop offset="0.75" stop-color="#b1a727"/><stop offset="0.91" stop-color="#d1c22d"/><stop offset="1" stop-color="#e6d432"/></linearGradient><radialGradient id="radial-gradient" cx="2.1" cy="4.51" r="1.67" gradientTransform="translate(0 -2.68) scale(1 0.99)" gradientUnits="userSpaceOnUse"><stop offset="0" stop-color="#fbf8de"/><stop offset="1" stop-color="#ecdf67"/></radialGradient><radialGradient id="radial-gradient-2" cx="1.79" cy="3.82" r="0.42" gradientTransform="translate(1.11 -3.03) rotate(15.98) scale(1 0.99)" gradientUnits="userSpaceOnUse"><stop offset="0.01" stop-color="#faf6d4"/><stop offset="0.99" stop-color="#f1f0b7"/></radialGradient><linearGradient id="linear-gradient-6" x1="2.59" y1="8.39" x2="2.59" y2="7.13" gradientUnits="userSpaceOnUse"><stop offset="0" stop-color="#5d5c4c"/><stop offset="0.04" stop-color="#69674a"/><stop offset="0.2" stop-color="#968e41"/><stop offset="0.35" stop-color="#b9ac3b"/><stop offset="0.5" stop-color="#d2c236"/><stop offset="0.63" stop-color="#e1cf33"/><stop offset="0.74" stop-color="#e6d432"/><stop offset="0.9" stop-color="#a39b24"/><stop offset="1" stop-color="#7a781b"/><stop offset="1" stop-color="#7b791d"/><stop offset="1" stop-color="#9e9c44"/><stop offset="1" stop-color="#bbb864"/><stop offset="1" stop-color="#d1ce7d"/><stop offset="1" stop-color="#e1de8f"/><stop offset="1" stop-color="#eae79a"/><stop offset="1" stop-color="#edea9d"/></linearGradient><linearGradient id="linear-gradient-7" x1="2.59" y1="8.33" x2="2.59" y2="7.13" gradientUnits="userSpaceOnUse"><stop offset="0" stop-color="#7a781b"/><stop offset="0.13" stop-color="#7d7b1c"/><stop offset="0.24" stop-color="#88841e"/><stop offset="0.32" stop-color="#958f21"/><stop offset="0.38" stop-color="#9b9422"/><stop offset="0.45" stop-color="#aca226"/><stop offset="0.52" stop-color="#c7ba2c"/><stop offset="0.59" stop-color="#e6d432"/><stop offset="0.96" stop-color="#e6d432"/><stop offset="0.99" stop-color="#e6d432"/></linearGradient></defs><title>flag1</title><g id="Layer_2" data-name="Layer 2"><g id="USA_flag" data-name="USA flag"><g id="pole"><path class="cls-1" d="M2,9.92a8.1,8.1,0,0,0,1.36-.06V8.1H2Z"/><rect id="stick" class="cls-2" x="1.97" y="8.1" width="1.36" height="65.93"/><rect id="shadow_stick" class="cls-3" x="2.65" y="8.1" width="0.68" height="65.93"/><rect id="support" class="cls-4" x="1.26" y="3.61" width="2.64" height="3.52"/><rect id="shade" class="cls-5" x="1.26" y="4.64" width="0.53" height="2.54"/><path id="shadow" class="cls-6" d="M3.91,3.93A9.19,9.19,0,0,0,1.26,4v.73c.85.29,2.1.79,2.17,1.46,0,.46.06.75.07.93h.41Z"/><ellipse id="shadow-2" data-name="shadow" class="cls-7" cx="2.58" cy="2.56" rx="2.58" ry="2.56"/><path id="top_2" data-name="top 2" class="cls-4" d="M0,2.56a2.55,2.55,0,0,0,.56,1.6A2.72,2.72,0,0,0,2,4.55,2.7,2.7,0,0,0,4.68,1.86a2.66,2.66,0,0,0-.21-1A2.59,2.59,0,0,0,0,2.56Z"/><ellipse id="top" class="cls-8" cx="2.1" cy="1.8" rx="1.67" ry="1.66"/><ellipse id="top-2" data-name="top" class="cls-9" cx="1.79" cy="1.12" rx="0.44" ry="0.4" transform="translate(-0.24 0.54) rotate(-15.98)"/><path id="base" class="cls-10" d="M.66,7.13H4.53a.65.65,0,0,1,.65.65v0a.6.6,0,0,1-.6.6h-4a.6.6,0,0,1-.6-.6v0a.65.65,0,0,1,.65-.65Z"/><path id="edge" class="cls-11" d="M4.54,7.13H.65A.65.65,0,0,0,0,7.77v0c0,.36.27.54.63.54H4.5c.37,0,.69-.19.69-.56h0A.65.65,0,0,0,4.54,7.13ZM5,7.79c0,.27-.22.33-.49.33H.65c-.27,0-.49-.06-.49-.33v0a.49.49,0,0,1,.49-.48H4.52A.49.49,0,0,1,5,7.77Z"/><path id="shadow-3" data-name="shadow" class="cls-12" d="M4.53,7.12H.67a.59.59,0,0,0-.23,0,9,9,0,0,1,2.7.27c.45.28.76.53.81,1h.57c-.07-.25-.2-.78.1-1l.3-.19A.65.65,0,0,0,4.53,7.12Z"/></g><path id="base-2" data-name="base" class="cls-13" d="M62.37,44.45,3.52,43.74c-1.81-9,.64-18.09.66-27.14a37,37,0,0,0-.66-7.46l58.85-.71C64.77,20.44,60,32.44,62.37,44.45Z"/><path id="red_line" data-name="red line" class="cls-14" d="M62.79,11l-58.88.61q-.15-1.24-.39-2.49l58.85-.71C62.55,9.3,62.68,10.16,62.79,11ZM63,14l-58.88.49c0,.83.05,1.66,0,2.49l58.88-.38C63.07,15.73,63.06,14.87,63,14ZM63,19.57l-58.88.27c0,.83-.1,1.66-.17,2.49l58.87-.16C62.85,21.3,62.91,20.44,63,19.57Zm-.46,5.58L3.64,25.2c-.08.83-.16,1.66-.25,2.49l58.85,0C62.33,26.87,62.42,26,62.5,25.15ZM62,30.72,3.13,30.55Q3,31.8,3,33l58.84.27C61.84,32.44,61.9,31.58,62,30.72Zm-.29,5.57L2.86,35.9q0,1.24,0,2.49l58.83.49C61.69,38,61.67,37.15,61.68,36.29ZM62,41.86,3.12,41.25c.1.83.23,1.66.4,2.49l58.85.71C62.2,43.59,62.07,42.72,62,41.86Z"/><path class="cls-15" d="M29.71,27.71l-26.32,0C4,21.5,4.76,15.32,3.52,9.14l26.32-.32C31.1,15.12,30.33,21.41,29.71,27.71Z"/><path id="stars" class="cls-16" d="M28.14,9.41l.33.67h.71l-.51.42.31.67-.63-.41-.52.42c.05-.22.09-.45.13-.67l-.64-.41H28C28.07,9.86,28.11,9.63,28.14,9.41Zm.3,4.65h-.71l.59.41c-.06.22-.13.45-.2.67l.56-.42.59.41L29,14.47l.56-.42h-.71c-.09-.23-.17-.45-.26-.67Zm0,4h-.71l.56.41c-.08.22-.16.45-.25.67l.6-.42.55.42c-.06-.23-.12-.45-.19-.68l.59-.41H28.9c-.07-.22-.13-.45-.2-.67Zm-.23,4h-.71l.54.42c-.1.22-.19.45-.28.67l.61-.42.54.42c-.06-.23-.11-.45-.16-.67l.61-.42h-.71c-.06-.22-.12-.45-.17-.67Zm-.37,4h-.71l.53.42c-.1.22-.19.45-.29.67l.62-.41.53.41-.15-.67L29,26H28.3c-.06-.22-.11-.45-.16-.67ZM26,12.11h-.71c.2.14.4.28.61.41-.05.23-.11.45-.17.68l.55-.42.6.41-.27-.67.53-.42h-.71c-.09-.22-.19-.44-.29-.67C26.13,11.66,26.09,11.88,26,12.11Zm.19,4h-.71l.58.41c-.08.22-.15.45-.23.67l.58-.42.57.41-.21-.67.57-.42h-.71c-.07-.23-.15-.45-.23-.67Zm-.12,4H25.4l.55.41-.27.67.61-.41.54.41c-.06-.22-.11-.45-.17-.67l.6-.42h-.71l-.18-.67Zm-.32,4h-.71l.54.41-.29.68L26,24.7l.53.42-.15-.68.61-.41h-.71c-.05-.23-.1-.45-.16-.67C26,23.58,25.89,23.81,25.79,24ZM21.52,12.15h-.71c.21.13.41.27.61.41-.05.22-.1.44-.16.67l.54-.42.61.41c-.09-.22-.18-.45-.28-.67l.54-.42H22c-.1-.23-.19-.45-.29-.67Zm.2,4H21l.57.41c-.07.22-.15.45-.23.67l.58-.42.57.41-.21-.67c.19-.14.38-.28.58-.41h-.71c-.08-.22-.15-.45-.23-.67Zm-.12,4h-.71l.54.41c-.08.22-.17.45-.26.67l.6-.42.55.42-.18-.67.6-.42H22l-.18-.67C21.77,19.63,21.68,19.85,21.6,20.08Zm-.32,4h-.71l.53.41-.28.67.61-.41.54.41c0-.22-.1-.45-.16-.67l.62-.42h-.71c0-.23-.11-.45-.16-.67C21.47,23.59,21.37,23.81,21.28,24ZM17,12.2H16.3l.61.41c-.05.22-.11.45-.17.67l.55-.42.6.41-.27-.67.54-.42h-.72c-.09-.22-.19-.44-.29-.66C17.11,11.75,17.06,12,17,12.2Zm.19,3.95h-.71l.58.41c-.08.22-.15.45-.23.67l.58-.42.57.41-.21-.67.57-.41h-.71c-.07-.22-.15-.44-.23-.66Zm-.12,3.94h-.71l.55.41-.27.67.61-.42.54.41c-.05-.22-.11-.44-.17-.66l.6-.42h-.71l-.18-.66ZM16.76,24h-.71l.54.41-.28.66.61-.41.53.41-.15-.66.61-.42H17.2l-.15-.66Zm-4.27-11.8h-.71l.61.4c-.05.23-.1.45-.16.67l.54-.42.61.41c-.09-.22-.18-.44-.28-.66l.54-.42h-.71c-.1-.23-.19-.45-.29-.67Zm.2,3.94H12l.57.41c-.07.22-.15.44-.23.67l.58-.42.57.41-.21-.67.58-.41h-.71l-.23-.66Zm-.12,3.93h-.71l.54.41c-.08.22-.17.44-.26.66l.6-.41.55.41-.18-.67c.2-.13.41-.27.6-.41H13l-.18-.66Zm-.32,3.94h-.71l.54.41c-.1.23-.19.45-.29.67l.62-.41.53.41-.15-.67.61-.41h-.71c0-.22-.1-.44-.16-.66C12.44,23.61,12.35,23.83,12.25,24.05ZM8,12.28H7.27l.61.41c0,.22-.11.44-.17.66L8.26,13l.6.4-.27-.66.54-.42H8.42l-.3-.66C8.08,11.84,8,12.06,8,12.28Zm.19,3.93H7.46l.58.41c-.08.22-.15.44-.23.67l.58-.42.57.41-.21-.66.57-.42H8.61c-.07-.22-.15-.45-.23-.67Zm-.12,3.92H7.34l.55.4-.27.67.61-.41.54.4c0-.22-.11-.44-.17-.66l.6-.41H8.49l-.18-.66Zm-.31,3.93H7l.53.41-.28.66.61-.41.54.41c0-.22-.11-.44-.16-.66l.62-.41H8.18c-.06-.22-.11-.44-.16-.66C7.92,23.62,7.83,23.84,7.74,24.06ZM23.63,9.46l.33.67h.71l-.51.42.31.67-.63-.41-.52.42c.05-.22.09-.45.13-.67l-.64-.41h.71C23.56,9.91,23.59,9.68,23.63,9.46Zm.29,4.64h-.71l.6.41c-.07.22-.14.44-.2.67l.56-.42.59.41-.24-.67.55-.42h-.71c-.08-.23-.17-.45-.26-.67C24.05,13.65,24,13.88,23.92,14.1Zm0,4h-.71l.56.41c-.09.23-.17.45-.25.68l.59-.42.56.41c-.07-.22-.13-.45-.19-.67l.59-.42h-.71l-.21-.67C24.11,17.62,24,17.84,24,18.07Zm-.24,4H23l.54.41c-.09.22-.18.45-.28.67l.62-.41.53.41c-.05-.22-.1-.45-.16-.67l.61-.42h-.71c0-.22-.11-.44-.17-.67Zm-.37,4h-.71l.54.42c-.1.22-.19.45-.29.67l.62-.42.53.42-.15-.67.61-.42h-.71l-.15-.67C23.53,25.56,23.44,25.78,23.34,26ZM19.11,9.51c.12.22.23.45.34.67h.71l-.52.42c.11.22.21.44.31.67l-.62-.41-.52.42.12-.67-.63-.41H19C19,10,19.08,9.74,19.11,9.51Zm.3,4.63H18.7l.59.41c-.06.23-.13.45-.2.67l.56-.41.59.4L20,14.55l.56-.42h-.71l-.26-.66Zm0,3.95h-.71l.56.41c-.08.22-.16.44-.25.67l.6-.42.55.41c-.06-.22-.12-.44-.19-.67l.59-.41h-.71c-.07-.22-.13-.44-.2-.67Zm-.23,4h-.71l.54.41c-.09.23-.19.45-.28.67l.61-.41.54.41c0-.22-.11-.45-.16-.67.2-.14.4-.28.61-.41h-.71c-.06-.22-.11-.45-.17-.67ZM18.83,26h-.71l.53.41c-.09.22-.19.44-.28.67l.61-.42.54.42c-.06-.23-.11-.45-.16-.67L20,26h-.71l-.15-.66ZM14.6,9.56l.33.67h.71l-.51.42c.11.22.21.44.31.66l-.63-.4-.52.42c.05-.23.09-.45.13-.67l-.64-.41h.71C14.53,10,14.57,9.79,14.6,9.56Zm.29,4.62h-.71l.59.41-.19.67.56-.42.59.41-.24-.67.55-.41h-.71c-.08-.22-.17-.44-.26-.66C15,13.73,15,14,14.89,14.18Zm0,3.94h-.71l.56.41c-.09.23-.17.45-.25.67l.59-.41.56.4c-.07-.22-.13-.44-.19-.66l.58-.42h-.71c-.06-.22-.13-.45-.2-.67C15.07,17.67,15,17.9,14.92,18.12Zm-.24,3.94H14l.54.41-.27.66.61-.41.54.41c-.06-.22-.11-.44-.17-.67.21-.13.41-.27.61-.41h-.71c0-.22-.11-.44-.17-.66C14.87,21.62,14.77,21.84,14.68,22.06Zm-.36,4h-.71l.53.41-.29.66.62-.41.53.42-.15-.67.62-.41h-.71c-.06-.23-.11-.45-.16-.67C14.51,25.56,14.41,25.78,14.32,26ZM10.09,9.62l.33.66h.71l-.51.42.31.66L10.3,11c-.18.13-.35.27-.52.41,0-.22.09-.44.13-.66l-.64-.41H10C10,10.06,10.05,9.84,10.09,9.62Zm.29,4.59H9.67l.59.41c-.06.22-.13.44-.2.66l.56-.41.59.4L11,14.62l.56-.42h-.71l-.26-.66Zm0,3.94H9.69l.56.41c-.08.22-.16.44-.25.66l.6-.41.55.41c-.06-.22-.12-.45-.19-.67l.59-.41h-.71c-.07-.22-.13-.44-.2-.66Zm-.23,3.93H9.46l.54.41c-.09.22-.18.44-.28.66.21-.13.41-.27.61-.41l.54.41c0-.22-.11-.44-.16-.66l.61-.42h-.71c-.06-.23-.11-.45-.17-.67ZM9.8,26H9.09l.54.41-.29.66.62-.41.53.41-.15-.66L11,26h-.71l-.15-.67C10,25.56,9.9,25.79,9.8,26ZM5.57,9.67q.18.33.33.66h.71l-.51.42c.11.22.21.44.31.66L5.78,11l-.52.42c0-.22.09-.44.13-.67l-.63-.4h.71C5.5,10.11,5.54,9.89,5.57,9.67Zm.29,4.58H5.15l.59.4-.19.67.56-.42.58.41q-.11-.33-.24-.66L7,14.24H6.3c-.08-.22-.17-.44-.26-.66C6,13.81,5.92,14,5.86,14.25Zm0,3.92H5.18l.56.4c-.09.22-.17.44-.25.67l.59-.42.56.41c-.07-.22-.13-.44-.19-.66L7,18.16H6.32c-.06-.22-.13-.44-.2-.66Zm-.24,3.92H4.94l.54.41-.27.66.61-.41.54.41c-.06-.22-.11-.44-.16-.66l.6-.41H6.09c0-.22-.11-.44-.16-.66C5.84,21.65,5.75,21.87,5.65,22.09ZM5.29,26H4.58l.53.41-.28.66.61-.41.54.41c-.05-.22-.11-.44-.16-.66L6.44,26H5.73l-.15-.66Z"/></g></g></svg>