<svg xmlns="http://www.w3.org/2000/svg" viewBox="0 0 1639.06 457.46"><defs><style>.cls-1{fill:#40531d;}.cls-2{fill:#7f9939;}.cls-3{fill:#938a7a;}.cls-4{fill:#d3c8ab;}</style></defs><title>ground</title><g id="Layer_2" data-name="Layer 2"><g id="ground"><g id="ground-2" data-name="ground"><path class="cls-1" d="M1638.5,132.45C1461,21.7,1167.94,34.44,914,34.44,518,34.44,0-3.43,0,451.19l1639.06,6.27Z"/><path id="leaf" class="cls-2" d="M299.63,223.94s5-25.65-5.59-40.6,23.58,12.82,21.72,34.9Z"/><path id="leaf-2" data-name="leaf" class="cls-2" d="M394.63,243.46s5-25.65-5.59-40.61,23.58,12.82,21.72,34.91Z"/><path id="leaf-3" data-name="leaf" class="cls-2" d="M321.76,126.35s3.75-17.76-4.21-28.13,17.8,8.89,16.39,24.18Z"/><path id="leaf-4" data-name="leaf" class="cls-2" d="M1325,212.26s-1.09-20.52,8.21-33.95-20.79,11.51-19.15,31.33Z"/><path id="leaf-5" data-name="leaf" class="cls-2" d="M1339.29,215.9s-4.38-15.14,4.92-24-20.79,7.57-19.15,20.61Z"/><path id="leaf-6" data-name="leaf" class="cls-2" d="M437.63,220.49c-.47,2.41,5.43-25-5.59-40.6-10.54-15,23.58,12.82,21.72,34.91Z"/><path id="leaf-7" data-name="leaf" class="cls-2" d="M471,213.84c-17-15.58-3-28.58-3-28.58s-22.56,10-14,29.86C454,215.12,471,213.26,471,213.84Z"/><path class="cls-3" d="M1013,94.74c13.69-19.84,93-43.08,140-60.3-38.25-.72-59.73-.5-97.85-.42C1003.91,47.74,955.76,67.48,953,93.58c-6,56.82,104,36,89,80S506,312.26,506,312.26H954c34.54-6.64,133.19-75,138-131.71C1098,109.82,993,123.73,1013,94.74Z"/><path class="cls-4" d="M1152.94,34.75c-43.7-.81-87.63-.83-131.07-.68C967.5,47.7,913.91,68,911,95.29c-6,56.26,104,35.59,89,79.22S506,312.26,506,312.26H954s115-63.13,121-133.16-99-56.26-79-85C1009.69,74.49,1098.36,48.93,1152.94,34.75Z"/><path id="leaf-8" data-name="leaf" class="cls-2" d="M701.63,44.84c-.47,2.4,5.43-25-5.59-40.61-10.54-14.95,23.58,12.83,21.72,34.91Z"/><path id="leaf-9" data-name="leaf" class="cls-2" d="M732.74,44.84c.57,2.4-6.61-25,6.81-40.61,12.85-14.95-28.73,12.83-26.46,34.91Z"/><path id="leaf-10" data-name="leaf" class="cls-2" d="M813,127.26c.57,2.4-9.87-23.6,3.55-39.22,12.85-15-21.82,17.14-19.55,39.22Z"/><path id="leaf-11" data-name="leaf" class="cls-2" d="M794.74,123.81c.57,3-6.61-31.25,6.81-50.78,12.85-18.7-27.82,28.62-25.55,56.23Z"/><path id="leaf-12" data-name="leaf" class="cls-2" d="M465.25,53.18c-.32,1.65,3.74-17.23-3.84-28-7.25-10.32,16.22,8.84,14.94,24.07Z"/><path id="leaf-13" data-name="leaf" class="cls-2" d="M490.34,49.17c.47,2.4-5.47-25,5.63-40.6,10.64-15-21.85,18.61-20,40.69Z"/><path id="leaf-14" data-name="leaf" class="cls-2" d="M1205,54.58c-.43,2.4,11.14-17.7,1-33.32-9.74-15,15.65,5.54,13.93,27.62Z"/><path id="leaf-15" data-name="leaf" class="cls-2" d="M1389.1,55.75c.45,2.16-5.53-22.61,9.71-35,14.6-11.9-31.37,8.48-30.3,28.12Z"/><path id="leaf-16" data-name="leaf" class="cls-2" d="M1567,111.39c-2-27.13,33-33.13,33-33.13s-48.26-4.23-51.71,20.51Z"/><path id="leaf-17" data-name="leaf" class="cls-2" d="M1337.55,147.93c-.86,2.71,9.71-28.11-4.58-47.59-13.68-18.65,26.47,24.68,22,49.92Z"/></g></g></g></svg>