<svg xmlns="http://www.w3.org/2000/svg" xmlns:xlink="http://www.w3.org/1999/xlink" viewBox="0 0 68 19.38"><defs><style>.cls-1{fill:#ff5;}.cls-2{fill:url(#linear-gradient);}.cls-3{fill:#f5ffe1;}.cls-4{fill:url(#linear-gradient-2);}.cls-5{fill:url(#linear-gradient-3);}</style><linearGradient id="linear-gradient" x1="1.14" y1="12.46" x2="16.55" y2="12.46" gradientUnits="userSpaceOnUse"><stop offset="0.01" stop-color="#e3ba2a"/><stop offset="0.97" stop-color="#e6d432"/><stop offset="1" stop-color="#efcd52"/></linearGradient><linearGradient id="linear-gradient-2" x1="33.43" y1="12.78" x2="67.4" y2="12.78" gradientUnits="userSpaceOnUse"><stop offset="0" stop-color="#efcd52"/><stop offset="0.03" stop-color="#e6d432"/><stop offset="0.99" stop-color="#e3ba2a"/></linearGradient><linearGradient id="linear-gradient-3" x1="7.61" y1="5.45" x2="59.99" y2="5.45" gradientUnits="userSpaceOnUse"><stop offset="0" stop-color="#e3ba2a"/><stop offset="0.11" stop-color="#e4c42d"/><stop offset="0.32" stop-color="#e6d031"/><stop offset="0.53" stop-color="#e6d432"/><stop offset="0.71" stop-color="#e6d031"/><stop offset="0.9" stop-color="#e4c42d"/><stop offset="1" stop-color="#e3ba2a"/></linearGradient></defs><title>halo</title><g id="Layer_2" data-name="Layer 2"><g id="halo"><path class="cls-1" d="M34,0C15.22,0,0,4.34,0,9.69s15.22,9.69,34,9.69S68,15,68,9.69,52.78,0,34,0Zm0,14C20.34,13.89,7.87,12.3,7.69,9.56S23,4.45,34,4.45c10,0,26.13,3.11,26.31,5.37S47.62,14,34,14Z"/><path id="shadow" class="cls-2" d="M3.5,8c-2.12-.71-2.88,1-2,3,1.5,3.5,14,7,15,6S4.5,13,3.5,8Z"/><path id="shadow-2" data-name="shadow" class="cls-3" d="M4.5,7s-1.58.76-1.34,1.93c.41,2,7.81,5.21,7.21,4.75C8.19,12,7.5,12,5.5,10S4.5,7,4.5,7Z"/><path id="shadow-3" data-name="shadow" class="cls-3" d="M59.5,5c0-.16,4.51,0,4,4-.25,2-7,4.43-7,4,0,0,4-1,5-4C62.13,7.05,59.5,5,59.5,5Z"/><path id="shadow-4" data-name="shadow" class="cls-4" d="M64.5,7c1,1,.18,3.22-1,4-6,4-31.6,5.8-30,7C37.5,21,78.5,13,64.5,7Z"/><path id="shadow-5" data-name="shadow" class="cls-5" d="M8.5,7s8-4,21-4c6,0,24,1,29,3,3.35,1.34,0,1,0,1s-29-8-50,1C6.5,8,8.5,7,8.5,7Z"/></g></g></svg>