<svg xmlns="http://www.w3.org/2000/svg" xmlns:xlink="http://www.w3.org/1999/xlink" viewBox="0 0 222.25 88.57"><defs><style>.cls-1{fill:#bd7f48;}.cls-2,.cls-3,.cls-4,.cls-5{opacity:0.48;}.cls-2{fill:url(#linear-gradient);}.cls-3{fill:url(#linear-gradient-2);}.cls-4{fill:url(#linear-gradient-3);}.cls-5{fill:url(#linear-gradient-4);}.cls-6{fill:url(#linear-gradient-5);}.cls-7{fill:url(#linear-gradient-6);}.cls-8{opacity:0.68;fill:url(#linear-gradient-7);}.cls-9{fill:#d3b38e;}.cls-10{fill:url(#linear-gradient-8);}.cls-11{opacity:0.83;fill:url(#linear-gradient-9);}.cls-12{fill:#a95f41;}.cls-13{fill:url(#linear-gradient-10);}.cls-14{fill-opacity:0.51;fill:url(#linear-gradient-11);}.cls-15{fill:url(#linear-gradient-12);}.cls-16{fill:#a51200;}.cls-17{fill:#941810;}.cls-18{fill:url(#linear-gradient-13);}.cls-19{fill:url(#linear-gradient-14);}.cls-20{fill:#efcd52;}.cls-21{fill:url(#linear-gradient-15);}.cls-22{fill:#e3ba2a;}</style><linearGradient id="linear-gradient" x1="56.59" y1="69.26" x2="75.65" y2="58.25" gradientUnits="userSpaceOnUse"><stop offset="0.01" stop-color="#e2b98d"/><stop offset="0.52" stop-color="#c67b2b"/><stop offset="1" stop-color="#816349"/></linearGradient><linearGradient id="linear-gradient-2" x1="89.52" y1="67.51" x2="109.11" y2="56.19" xlink:href="#linear-gradient"/><linearGradient id="linear-gradient-3" x1="120.15" y1="70.06" x2="139.66" y2="58.8" xlink:href="#linear-gradient"/><linearGradient id="linear-gradient-4" x1="143.14" y1="70.49" x2="162.99" y2="59.03" xlink:href="#linear-gradient"/><linearGradient id="linear-gradient-5" x1="108.63" y1="49.77" x2="108.63" gradientUnits="userSpaceOnUse"><stop offset="0" stop-color="#c39e82"/><stop offset="0.51" stop-color="#c69162"/><stop offset="0.69" stop-color="#bd7f48"/><stop offset="0.98" stop-color="#aa774f"/></linearGradient><linearGradient id="linear-gradient-6" x1="109.16" y1="71.77" x2="109.16" y2="53.08" gradientUnits="userSpaceOnUse"><stop offset="0.04" stop-color="#d3b38e"/><stop offset="0.05" stop-color="#d3b38e"/><stop offset="0.19" stop-color="#cfaf8a"/><stop offset="0.32" stop-color="#c3a37e"/><stop offset="0.46" stop-color="#b08e6a"/><stop offset="0.59" stop-color="#95714f"/><stop offset="0.73" stop-color="#724d2b"/><stop offset="0.78" stop-color="#623c1b"/></linearGradient><linearGradient id="linear-gradient-7" x1="108.82" y1="69.22" x2="108.82" y2="56" gradientUnits="userSpaceOnUse"><stop offset="0.01" stop-color="#d2924d"/><stop offset="0.15" stop-color="#ae763d"/><stop offset="0.41" stop-color="#623c1b"/><stop offset="0.42" stop-color="#623c1b"/><stop offset="1" stop-color="#623c1b"/></linearGradient><linearGradient id="linear-gradient-8" x1="108.52" y1="41.02" x2="108.52" y2="22.37" gradientUnits="userSpaceOnUse"><stop offset="0" stop-color="#947a64"/><stop offset="1" stop-color="#765539"/></linearGradient><linearGradient id="linear-gradient-9" x1="2.99" y1="31.87" x2="220.96" y2="31.87" gradientUnits="userSpaceOnUse"><stop offset="0" stop-color="#9d462b"/><stop offset="0.56" stop-color="#b16b55"/><stop offset="1" stop-color="#a75840"/></linearGradient><linearGradient id="linear-gradient-10" x1="111.12" y1="62.42" x2="111.12" y2="25.92" gradientUnits="userSpaceOnUse"><stop offset="0" stop-color="#a35138"/><stop offset="0.38" stop-color="#b57460"/><stop offset="0.68" stop-color="#aa5e47"/><stop offset="1" stop-color="#9d462b"/></linearGradient><linearGradient id="linear-gradient-11" x1="11.69" y1="57.77" x2="212.24" y2="57.77" gradientUnits="userSpaceOnUse"><stop offset="0" stop-color="#a5553c"/><stop offset="0.68" stop-color="#aa5e47"/><stop offset="1" stop-color="#9d462b"/></linearGradient><linearGradient id="linear-gradient-12" x1="30.16" y1="45.29" x2="217.07" y2="45.29" gradientUnits="userSpaceOnUse"><stop offset="0" stop-color="#a95c44"/><stop offset="0.44" stop-color="#9d462b"/><stop offset="1" stop-color="#a85a42"/></linearGradient><linearGradient id="linear-gradient-13" x1="12.17" y1="41.19" x2="214.17" y2="41.19" gradientUnits="userSpaceOnUse"><stop offset="0.01" stop-color="#be726d"/><stop offset="0.99" stop-color="#c17974"/></linearGradient><linearGradient id="linear-gradient-14" x1="17.52" y1="41.61" x2="217.29" y2="41.61" gradientUnits="userSpaceOnUse"><stop offset="0" stop-color="#f2df9d"/><stop offset="0.03" stop-color="#f2e09f"/><stop offset="0.65" stop-color="#f6e9bd"/><stop offset="1" stop-color="#f8edc8"/></linearGradient><linearGradient id="linear-gradient-15" x1="64.08" y1="36.57" x2="67.98" y2="36.57" gradientUnits="userSpaceOnUse"><stop offset="0" stop-color="#eacb5f"/><stop offset="1" stop-color="#eacb5d"/></linearGradient></defs><title>hotdog</title><g id="Layer_2" data-name="Layer 2"><g id="hodog"><path class="cls-1" d="M24.26,60.9c-2.53,5.71-6.7,22.3,13.09,26.32,13,2.64,60.19.49,74.76,1s63.1.55,71.49-3C193.85,81,195.13,72.09,195,64.36s-9.41-11.87-9.41-11.87H29.29S28.27,51.85,24.26,60.9Z"/><polygon class="cls-2" points="75.75 58.41 71.59 57.77 56.32 68.79 61.56 69.22 75.75 58.41"/><polygon class="cls-3" points="108.95 55.92 104.79 55.27 89.52 67.51 93.52 68.61 108.95 55.92"/><polygon class="cls-4" points="139.71 58.89 135.55 58.24 120.28 70.28 124.44 70.52 139.71 58.89"/><polygon class="cls-5" points="162.91 58.89 158.75 58.24 143.29 70.74 147.69 71.1 162.91 58.89"/><path class="cls-6" d="M28.64,47.8s-10.2-18.92-2.47-29.45S49.7,2.23,108.26.26,179.33,7.82,192.32,24c8.23,10.77-16.94,25.74-16.94,25.74Z"/><path id="bottom_shadow" data-name="bottom shadow" class="cls-7" d="M192.57,60.08c-8.6-3.56-53.18-5.72-94.92-7H28.31s-.76-.47-3.55,5.22l.89.95.2.21q1,1,2.07,2l.07.06c.38.33.76.66,1.17,1h0a2.11,2.11,0,0,0,1.7,3.37,2.14,2.14,0,0,0,1.79-1c.26.15.53.29.8.43h0a21.94,21.94,0,0,0,2.26,1l.35.13.52.17.53.17.46.13.66.16.38.09,1.07.19C51.27,69,68,70.05,68,70.05a12.74,12.74,0,0,1,3.76-.82c1.66,0,14.48-2.28,18.2-1.24s14.22,4.21,18.69,3.13,29.07,0,34.24,0,15.91,1.3,20.67.22,25.05-1.38,30-9A10.86,10.86,0,0,0,192.57,60.08Z"/><ellipse class="cls-1" cx="165.36" cy="71.04" rx="2.08" ry="3.23" transform="matrix(0.51, -0.86, 0.86, 0.51, 19.64, 176.66)"/><path id="underneath" class="cls-8" d="M158.19,69.22c-2.62,0-5.6-.2-8.48-.39-2.48-.16-4.82-.31-6.63-.31h-.49c-1.47,0-4.3-.08-7.57-.18-5.15-.15-11.57-.33-16.91-.33-7,0-9.17.32-10.25.61a6,6,0,0,1-1.45.14c-4.14,0-11.16-2.17-14.53-3.22l-1.06-.32a13.06,13.06,0,0,0-3.76-.43A97.43,97.43,0,0,0,74.78,66c-1.27.18-2.71.39-3.07.4h0a13.25,13.25,0,0,0-4.2.87c-3.22-.24-17.33-1.3-27.35-2.86l-.87-.17L39,64.2l-.53-.14-.39-.12-.44-.15-.43-.16-.29-.12A18.9,18.9,0,0,1,35,62.57h0c-.24-.13-.47-.27-.69-.41l-1.56-1-1.51-1.32q-.54-.47-1.05-1l-.06,0c-.45-.44-.9-.89-1.34-1.37.34-.67.61-1.15.81-1.48h68c62.72,2.08,84.14,4.78,91.28,6.58-4.84,3.53-15.35,4.81-20.81,5.48a47.75,47.75,0,0,0-5.26.79,21.49,21.49,0,0,1-4.62.37Z"/><path id="inner_bun" data-name="inner bun" class="cls-9" d="M159.2,18.19c-3.93-.62-11.79,2.07-17,1.45s-13.43-.62-18.85-2.59-22.91,1.76-25.8,2.18-15.92-1.66-19.85-2.07S67.61,17.57,65,18s-12.72,1.26-15.2.22-12.41,1.86-19.67,3.1c-2.41.41-4.75,2.71-6.83,5.65-.33,5.45,1.31,11.23,2.86,15.32C59.94,41,165.61,36.85,192.69,33.6c1.62-3.24,1.92-6.57-.37-9.57-2.85-2.85-13.48-2.53-16.37-3.56S163.13,18.81,159.2,18.19Z"/><path id="shadow_top" data-name="shadow top" class="cls-10" d="M24.91,41a31,31,0,0,1-1.63-9c2.07-2.48,3.19-2.69,3.21-2.69,2.54-.41,2.74-3.88,5.44-4.43,3.88-.8,6.57-2.52,12.67-2.52S61.12,26.32,63.24,26a80,80,0,0,1,10.07-.87,20.76,20.76,0,0,1,2.09.09c1.07.1,2.92.34,5.06.61,5.32.69,12,1.53,15.33,1.53a12.88,12.88,0,0,0,1.76-.1q.87-.12,2.76-.45c4.26-.73,13.14-2.25,18.88-2.25a11.25,11.25,0,0,1,3.25.29c4.75,1.64,10.72,2.06,16,2.43,1.83.13,3.57.25,5,.41a22.19,22.19,0,0,0,2.38.13,57.82,57.82,0,0,0,8.81-.94,43.77,43.77,0,0,1,5.86-.7,3.71,3.71,0,0,1,.67,0c1.59.24,15.38,1.58,16.8,2.06a32.81,32.81,0,0,0,6.67,1c2.37.22,7.16.68,8.72,1.43a2.85,2.85,0,0,1,.38,2.07C162.19,35.91,61.36,39.71,24.91,41Z"/><path class="cls-11" d="M210.8,29.65c-4.6-1.76-88.39-2-98.54-1.76,0,0-91.63-2-97.55-2C11,25.92,6.1,29,3,33.09A25,25,0,0,1,13.65,30.5C27.5,29.78,193.84,29.24,221,37.82,218.72,33.33,214.05,30.89,210.8,29.65Z"/><path id="line" class="cls-12" d="M8.2,30.67S4,33.85,3,37a27.84,27.84,0,0,0-.69,11.55s-2.12-7,0-11.55C3.69,34,3.2,33.18,8.2,30.67Z"/><path id="sausage" class="cls-13" d="M112.26,27.89c10.15-.22,93.94,0,98.54,1.76s12.07,5.92,11.41,14.91-2.85,17.11-13.38,17.55S30.72,63.43,11.42,57.29C1.33,51.8.45,48.07,0,41.05S8.79,25.92,14.71,25.92,112.26,27.89,112.26,27.89Z"/><path class="cls-12" d="M217.07,49.9c1.23.66,3.25.37,4.46.11a13,13,0,0,0,.23-1.3A13.78,13.78,0,0,1,217.07,49.9Z"/><path class="cls-12" d="M217.19,46.33l4.73,1.19.09-.91Z"/><path class="cls-12" d="M222.14,45.46c0-.3.05-.6.07-.9a1.77,1.77,0,0,1,0-.23c-1.3-.74-3.53-3.86-4.76-3.72C217.46,40.61,220.37,43.89,222.14,45.46Z"/><path id="bottom_shadow-2" data-name="bottom shadow" class="cls-14" d="M110.67,53.46c-37.4-1.54-99.53,3.37-99,3.91,18.16,6,186.61,5.28,197.14,4.5a10.42,10.42,0,0,0,3.39-.84C213.3,57.22,147.74,54.89,110.67,53.46Z"/><path id="underneath-2" data-name="underneath" class="cls-15" d="M30.16,33.82c.45,1.16.17,13.08,9.17,11.52S49.39,38.49,50.7,37.8s5.6-5.26,11.67,1.33S76.17,57.69,81,53.49s11.77-15.66,19.33-7.05,28.79,6.22,33.56-3,18.92,9.08,18.92,9.08,4.94-5.36,6.58,0,8.88,10.62,14.31,6.59S186.8,40,194,43.69s13.32,14.88,17.44,12.54,10.36-10.23,0-15.66-28.3-9.49-33.73-2.77-5.26,18.07-10,12.48-10.09-18-15.08-17.73-23.25-4.78-29.18,3.92c0,0-15.27,22.75-33.46-2.36C87.2,30,76.51,41.46,69.52,35.34s-30-7.15-32.82-1.78-2,7.94-2,7.94Z"/><g id="lines"><path class="cls-12" d="M0,41.05c0,.55.12,1.71.17,2.22,1.12.46,3.21,1.17,4.59.7A25.81,25.81,0,0,1,0,41.05Z"/><path class="cls-12" d="M.15,39A6.68,6.68,0,0,0,0,40l5.26-.42Z"/><path class="cls-12" d="M.48,37.67A9.92,9.92,0,0,0,.15,39a67,67,0,0,0,5.79-4.23C4.7,34.39,1.83,37.3.48,37.67Z"/></g><path id="base" class="cls-16" d="M13.61,50.05c-5.76-2.69,1-12.29,7-15.8S39.72,22.41,45.2,24.17,56.61,41.05,61.87,40.62,81.61,22.28,89.94,24s10.75,20.79,18.43,19.92,14.91-17.55,24.35-16.67,13.16,10.52,16.67,14.91c2.19,3.51,17.32-15.35,24.78-15.57S187.77,47.42,193,47.63s12.72-16.88,18.2-16.88,3.95,6.58,1.76,10.09-11,12.72-12.07,15.35-5,2.41-8.55,1.75-17.11-22.06-19.52-21.71S160.08,48.51,157.94,51.8c-1.89,2.91-1.36,7.79-5.52,7.76-4.72,0-13.12-24-20.58-23.33s-11.41,17.33-21.58,17.85c-6.93,1.1-17.68-7.76-22.73-13.24s-14,12.94-19.08,14S50.24,57.18,41.36,35C33.68,30.64,23.05,54.43,13.61,50.05Z"/><path id="shadow" class="cls-17" d="M193,47.63c-5.27-.21-11.41-21.27-18.87-21.05s-22.59,19.08-24.78,15.57c-3.51-4.39-7.24-14-16.67-14.91S116.05,43,108.37,43.91,98.28,25.7,89.94,24,67.13,40.18,61.87,40.62,50.68,25.92,45.2,24.17,26.69,30.75,20.63,34.25a23.23,23.23,0,0,0-7.22,7l.2.12c9.44,4.38,20.07-19.42,27.75-15,8.88,22.15,22,21,27.09,19.85s14-19.52,19.08-14,15.8,14.34,22.73,13.25c10.17-.52,14.23-16.35,21.69-17s15.75,22.46,20.47,22.49c4.16,0,3.63-4.85,5.52-7.76,2.14-3.29,14.75-14.3,16-14.32s14.93,19.8,18.44,20.46,7.45.88,8.55-1.75S210.8,35.66,213,32.15c.16-.27.33-.56.49-.86a4.3,4.3,0,0,0-2.25-.54C205.76,30.75,198.3,47.85,193,47.63Z"/><path id="shade" class="cls-18" d="M12.19,47.72c-.21-1.07,1.64-2.88,2.63-1.24s-.74,3.05-1.32,2.72S12.39,48.79,12.19,47.72Zm104.61,3a1.08,1.08,0,0,0,.62-1.48c-.4-1.37-2-.05-1.8.74A.85.85,0,0,0,116.8,50.72ZM30.17,30.5c1.18-1.19,2.25-2.31,3.24-3.4C31.2,28.17,29,29.4,26.9,30.58A2.1,2.1,0,0,0,30.17,30.5ZM53.4,45c-.29-1.48-1.89-3.16-3.81-2-3.54,2.22-.06,5.81-.26,3.65-.17-1.73-1.26-2.18.22-3.28S52.75,46.43,53.4,45Zm28.21-5.08C78.07,39.09,71,47.61,70.92,48s.33,2.17,1.69.18,9.66-8.85,9.41-7.92c-3.23,1.57,2.82-.21,2.55-2.24C84.37,36.54,82.27,37.53,81.61,39.91Zm5.75-1.56c2.64,1.32,5,5.54,5,5.54S86.6,34.4,85.68,36C85.68,36,85.42,37.38,87.36,38.35Zm36.28,3.37s.33-1.16,3.54-4,6-1.85,6-1.85-.08-.61-2.71-1.18-7.08,3.86-7.08,6S123.64,41.72,123.64,41.72Zm75.42,8,.23,2.08a1.08,1.08,0,0,0-1.59-.52c-1.1.62-2.58,4.14.49,4s1.15-3.27,1.95-3.05,2.55-2,1-4.33-2,.17-2,1.55m13.27-17.65c-.16,1.48.33,2.52,1.1,2.19a1.22,1.22,0,0,0,0-2.19C212.45,31.24,212.39,31.79,212.39,31.79Z"/><path class="cls-19" d="M17.76,28.92c-.89-2.88.76-3.45,3.52-.2C23.13,30.9,18.44,31.14,17.76,28.92Zm46.32,4c3.57-.4-4-2.62-4.32-1.06C59.32,34.38,62,31.9,64.08,32.93ZM25.76,36.5c-3.78-4.23-4.68-1.31-2.54.14C26.71,41.72,28.3,39.34,25.76,36.5ZM81,47.71c.14.8,2.14,2.17,5.7-.07,4-2.55,6.2-8.39,1.37-4.77-.44.33-2.77,2.36-3.29,2.79C83.71,46.51,80.94,47.23,81,47.71Zm135,9c.69.16,2.17-3.32.36-1.43s-9.76-13-11.66-14.67-3.15,1.76-1.91,3.74C202.85,44.35,211.65,55.7,216.06,56.71ZM99.28,33.62c-.5,1.7,3.06-1.26,6.9-.27s5.14,3.57,6.59,5.48,2.41,4.66,3,3.57S111.62,31.54,108,30.94s-4.77.24-5.92-.24-1.32,0-1.32.73S99.52,32.82,99.28,33.62ZM163,46.44c-2.82-1.45,1.74,5.4,3.43,7.2s4.78,2.12,7.07,1.08.44-1.5.44-1.5-4.53.8-6.37-.78S164.22,47.05,163,46.44Z"/><path id="base-2" data-name="base" class="cls-20" d="M18.11,24c-5.77,2.47.3,9.93,5.37,14.55,5.63,5.12,12.07,12.58,17.55,11S56,34.84,61.21,35.24c.81.06,2.63.17,2.58,1.38-.93,22.94,1.59,11.67,2.69,3,3.72,7,13.24,13.08,15.24,13.07,5.37.08,17.22-17.5,24.89-16.69,7.68,1.32,12.51,19.84,21.94,19,10.75-1,16-17.14,21.17-18,3.83.18,13.07,20.51,20.5,21.16C187.33,59.67,191.08,38.41,196,40.3c6.8,2.62,16.62,19.24,20.83,16.05,4.94-3.73.44-10.2-1.75-13.43s-13.67-15-21.32-14.35c-9.21.85-17.75,20.57-21.56,19.94s-13.55-16.17-15.69-19.19c-1.89-2.67-9.91-2.35-13.27.11-5.84,4.27-9.76,11.19-16.12,16.89-5-3.51-12.09-17.4-22.26-17.88-6.93-1-14.15,7-19.19,12S74.81,30.75,66.48,23.26c-3.83-3.44-10.31,3.21-25.89,17.36C32.92,44.65,27.54,20,18.11,24Z"/><path id="drop" class="cls-21" d="M65.38,29.21a53.1,53.1,0,0,1-.88,18.21c-.21,1.23-.33,2.09-.42,2.73.65.39,1.49-3.45,2.12-8.47.85,1.1.79-1.14,1.08-.7a31,31,0,0,0,0-13.25C64.39,16.22,65.38,29.21,65.38,29.21Z"/><path id="shadow-2" data-name="shadow" class="cls-22" d="M213.88,41.39C210.14,37,200.48,28,193.76,28.57c-4.55.42-8.94,5.45-12.67,10.35l-.43.58c-.68.92-1.31,1.77-1.91,2.55-2.76,3.73-5,6.71-6.55,6.46-1.9-.31-5.26-4.32-8.43-8.64-2.14-2.78-4.57-6.29-7.36-10.48l-.41-.6c-2.52-2.08-9.64-1.64-12.76.64-5.84,4.27-9.76,11.19-16.12,16.89-5-3.51-12.09-17.4-22.26-17.88-6.93-1-14.15,7-19.19,12-3,3-6.28-1-10.2-6.35-.77-1-1.57-2.09-2.4-3.23-.33-.45-.67-.9-1-1.36a47.2,47.2,0,0,0-5.59-6.28c-3.83-3.44-10.31,3.21-25.89,17.36-3,1.59-5.71-1.31-8.42-5.15-1.15-1.42-2.26-3.07-3.39-4.76-.61-.9-1.24-1.84-1.88-2.74-2.61-3.23-5.44-5.42-8.79-4l-.35.17c.19,2.1,3,5.91,7,9.63.93.84,1.89,1.76,2.82,2.64,3.94,3.77,8.41,8,11.82,8a3.75,3.75,0,0,0,1-.14c2-.6,5.32-3.66,8.23-6.37,4.42-4.1,8.6-8,12.27-8h.46a5.18,5.18,0,0,1,3.68,1.41l3.11,4c2.47,4.65,7.13,8.68,13.86,12,1.79-.43,5.55-4,8.35-6.61,5.26-5,10.69-10.06,15.66-10.06a5.85,5.85,0,0,1,.73,0H107c4.26.74,7.34,5.1,10.6,9.72,5.63,5.75,4.42,3,9.57,5.83C127,52.24,139.5,41.7,141.51,39c2.81-3.78,5-6.76,7.89-7.23l.2,0h.21c2.47.12,4.57,3,8.72,8.84,3.38,4.79,8.48,12,11.87,12.34.52,0,1,.07,1.54.07,8.62,0,13.31-6.95,16.73-12,2.27-3.38,4.07-6,6.7-6a3.7,3.7,0,0,1,1.34.25c3.4,1.31,7.11,5.3,10.69,9.17,2.65,2.84,6.64,7.15,8.24,7.15h0C218.34,49.45,216.93,46,213.88,41.39Z"/></g></g></svg>