<svg xmlns="http://www.w3.org/2000/svg" xmlns:xlink="http://www.w3.org/1999/xlink" viewBox="0 0 337.75 134.59"><defs><style>.cls-1{fill:#bd7f48;}.cls-2,.cls-3,.cls-4,.cls-5{opacity:0.48;}.cls-2{fill:url(#linear-gradient);}.cls-3{fill:url(#linear-gradient-2);}.cls-4{fill:url(#linear-gradient-3);}.cls-5{fill:url(#linear-gradient-4);}.cls-6{fill:url(#linear-gradient-5);}.cls-7{fill:url(#linear-gradient-6);}.cls-8{opacity:0.68;fill:url(#linear-gradient-7);}.cls-9{fill:#d3b38e;}.cls-10{fill:url(#linear-gradient-8);}.cls-11{opacity:0.83;fill:url(#linear-gradient-9);}.cls-12{fill:#a95f41;}.cls-13{fill:url(#linear-gradient-10);}.cls-14{fill-opacity:0.51;fill:url(#linear-gradient-11);}.cls-15{fill:url(#linear-gradient-12);}.cls-16{fill:#a51200;}.cls-17{fill:#941810;}.cls-18{fill:url(#linear-gradient-13);}.cls-19{fill:url(#linear-gradient-14);}.cls-20{fill:#efcd52;}.cls-21{fill:url(#linear-gradient-15);}.cls-22{fill:#e3ba2a;}</style><linearGradient id="linear-gradient" x1="85.99" y1="105.25" x2="114.97" y2="88.52" gradientUnits="userSpaceOnUse"><stop offset="0.01" stop-color="#e2b98d"/><stop offset="0.52" stop-color="#c67b2b"/><stop offset="1" stop-color="#816349"/></linearGradient><linearGradient id="linear-gradient-2" x1="136.04" y1="102.59" x2="165.81" y2="85.4" xlink:href="#linear-gradient"/><linearGradient id="linear-gradient-3" x1="182.6" y1="106.48" x2="212.24" y2="89.36" xlink:href="#linear-gradient"/><linearGradient id="linear-gradient-4" x1="217.54" y1="107.12" x2="247.7" y2="89.71" xlink:href="#linear-gradient"/><linearGradient id="linear-gradient-5" x1="165.08" y1="75.64" x2="165.08" gradientUnits="userSpaceOnUse"><stop offset="0" stop-color="#c39e82"/><stop offset="0.51" stop-color="#c69162"/><stop offset="0.69" stop-color="#bd7f48"/><stop offset="0.98" stop-color="#aa774f"/></linearGradient><linearGradient id="linear-gradient-6" x1="165.89" y1="109.06" x2="165.89" y2="80.67" gradientUnits="userSpaceOnUse"><stop offset="0.04" stop-color="#d3b38e"/><stop offset="0.05" stop-color="#d3b38e"/><stop offset="0.19" stop-color="#cfaf8a"/><stop offset="0.32" stop-color="#c3a37e"/><stop offset="0.46" stop-color="#b08e6a"/><stop offset="0.59" stop-color="#95714f"/><stop offset="0.73" stop-color="#724d2b"/><stop offset="0.78" stop-color="#623c1b"/></linearGradient><linearGradient id="linear-gradient-7" x1="165.38" y1="105.19" x2="165.38" y2="85.1" gradientUnits="userSpaceOnUse"><stop offset="0.01" stop-color="#d2924d"/><stop offset="0.15" stop-color="#ae763d"/><stop offset="0.41" stop-color="#623c1b"/><stop offset="0.42" stop-color="#623c1b"/><stop offset="1" stop-color="#623c1b"/></linearGradient><linearGradient id="linear-gradient-8" x1="164.92" y1="62.33" x2="164.92" y2="33.99" gradientUnits="userSpaceOnUse"><stop offset="0" stop-color="#947a64"/><stop offset="1" stop-color="#765539"/></linearGradient><linearGradient id="linear-gradient-9" x1="4.54" y1="48.43" x2="335.79" y2="48.43" gradientUnits="userSpaceOnUse"><stop offset="0" stop-color="#9d462b"/><stop offset="0.56" stop-color="#b16b55"/><stop offset="1" stop-color="#a75840"/></linearGradient><linearGradient id="linear-gradient-10" x1="168.88" y1="94.87" x2="168.88" y2="39.39" gradientUnits="userSpaceOnUse"><stop offset="0" stop-color="#a35138"/><stop offset="0.38" stop-color="#b57460"/><stop offset="0.68" stop-color="#aa5e47"/><stop offset="1" stop-color="#9d462b"/></linearGradient><linearGradient id="linear-gradient-11" x1="17.76" y1="87.79" x2="322.54" y2="87.79" gradientUnits="userSpaceOnUse"><stop offset="0" stop-color="#a5553c"/><stop offset="0.68" stop-color="#aa5e47"/><stop offset="1" stop-color="#9d462b"/></linearGradient><linearGradient id="linear-gradient-12" x1="45.83" y1="68.83" x2="329.88" y2="68.83" gradientUnits="userSpaceOnUse"><stop offset="0" stop-color="#a95c44"/><stop offset="0.44" stop-color="#9d462b"/><stop offset="1" stop-color="#a85a42"/></linearGradient><linearGradient id="linear-gradient-13" x1="18.5" y1="62.59" x2="325.47" y2="62.59" gradientUnits="userSpaceOnUse"><stop offset="0.01" stop-color="#be726d"/><stop offset="0.99" stop-color="#c17974"/></linearGradient><linearGradient id="linear-gradient-14" x1="26.62" y1="63.24" x2="330.21" y2="63.24" gradientUnits="userSpaceOnUse"><stop offset="0" stop-color="#f2df9d"/><stop offset="0.03" stop-color="#f2e09f"/><stop offset="0.65" stop-color="#f6e9bd"/><stop offset="1" stop-color="#f8edc8"/></linearGradient><linearGradient id="linear-gradient-15" x1="97.39" y1="55.58" x2="103.31" y2="55.58" gradientUnits="userSpaceOnUse"><stop offset="0" stop-color="#eacb5f"/><stop offset="1" stop-color="#eacb5d"/></linearGradient></defs><title>hotdog2</title><g id="Layer_2" data-name="Layer 2"><g id="hotdog"><path class="cls-1" d="M36.87,92.55c-3.85,8.67-10.19,33.89,19.9,40,19.75,4,91.47.74,113.6,1.5s95.9.84,108.65-4.5c15.57-6.52,17.52-20,17.26-31.75s-14.3-18-14.3-18H44.52S43,78.8,36.87,92.55Z"/><polygon class="cls-2" points="115.11 88.77 108.79 87.79 85.58 104.54 93.56 105.19 115.11 88.77"/><polygon class="cls-3" points="165.57 84.98 159.25 84 136.04 102.6 142.12 104.26 165.57 84.98"/><polygon class="cls-4" points="212.32 89.49 206 88.51 182.79 106.81 189.11 107.17 212.32 89.49"/><polygon class="cls-5" points="247.57 89.49 241.25 88.51 217.76 107.51 224.44 108.06 247.57 89.49"/><path class="cls-6" d="M43.52,72.64S28,43.89,39.77,27.89,75.52,3.39,164.52.39s108,11.5,127.75,36.13c12.5,16.37-25.75,39.12-25.75,39.12Z"/><path id="bottom_shadow" data-name="bottom shadow" class="cls-7" d="M292.65,91.31c-13.08-5.41-80.82-8.7-144.25-10.63H43s-1.15-.71-5.39,7.93c.43.48.89,1,1.35,1.45l.3.31c1,1,2,2,3.15,3l.1.09c.58.51,1.17,1,1.78,1.49h0a3.21,3.21,0,1,0,5.3,3.62c.41.23.81.45,1.23.66l0,0a32.12,32.12,0,0,0,3.44,1.53l.53.2c.26.1.53.19.79.27l.8.25.7.2,1,.25.57.13c.54.11,1.08.21,1.63.29,17.59,2.51,43,4.08,43,4.08A19.12,19.12,0,0,1,109,105.2c2.51,0,22-3.45,27.65-1.88s21.61,6.4,28.4,4.77,44.18.06,52,0,24.2,2,31.42.33c7-1.59,38.07-2.1,45.62-13.63A16.4,16.4,0,0,0,292.65,91.31Z"/><ellipse class="cls-1" cx="251.29" cy="107.97" rx="3.16" ry="4.91" transform="translate(29.84 268.48) rotate(-59.19)"/><path id="underneath" class="cls-8" d="M240.4,105.19c-4,0-8.51-.3-12.88-.58-3.77-.25-7.32-.48-10.07-.48h-.76c-2.23,0-6.53-.13-11.5-.27-7.83-.23-17.58-.51-25.71-.51-10.66,0-13.92.5-15.57.93a9.3,9.3,0,0,1-2.2.21c-6.29,0-17-3.3-22.08-4.88l-1.61-.5a20,20,0,0,0-5.71-.64c-5.58,0-13.46,1.13-18.66,1.89-1.94.28-4.12.59-4.67.61h0a19.81,19.81,0,0,0-6.38,1.32c-4.89-.36-26.35-2-41.57-4.35-.44-.07-.88-.16-1.32-.26l-.47-.12c-.27-.06-.54-.14-.81-.22s-.4-.11-.59-.18l-.66-.22-.67-.25-.44-.18a26.91,26.91,0,0,1-2.91-1.42l0,0c-.36-.2-.71-.41-1-.62L49.72,93l-2.29-2c-.55-.48-1.08-1-1.6-1.47l-.08-.08c-.69-.66-1.37-1.36-2-2.08.52-1,.93-1.75,1.23-2.25H148.32c95.32,3.17,127.88,7.27,138.72,10-7.36,5.36-23.32,7.3-31.62,8.31-3.47.43-6.21.76-8,1.2a31.49,31.49,0,0,1-7,.57Z"/><path id="inner_bun" data-name="inner bun" class="cls-9" d="M241.93,27.65c-6-.95-17.91,3.14-25.76,2.2s-20.42-1-28.65-4-34.82,2.69-39.22,3.32-24.19-2.52-30.15-3.14-15.41.62-19.32,1.23-19.34,1.91-23.11.34-18.85,2.82-29.89,4.71c-3.65.62-7.22,4.11-10.38,8.57-.5,8.29,2,17.08,4.35,23.3,51.28-1.93,211.88-8.23,253-13.17,2.47-4.93,2.93-10-.56-14.54-4.33-4.33-20.49-3.85-24.89-5.42S247.9,28.59,241.93,27.65Z"/><path id="shadow_top" data-name="shadow top" class="cls-10" d="M37.86,62.33a47,47,0,0,1-2.49-13.69c3.15-3.76,4.86-4.08,4.88-4.08,3.87-.63,4.17-5.89,8.27-6.74C54.43,36.6,58.5,34,67.77,34s25.11,6,28.34,5.54a120,120,0,0,1,15.3-1.33c1.23,0,2.29,0,3.18.14,1.63.16,4.43.52,7.68.93,8.09,1,18.16,2.33,23.3,2.33a20.53,20.53,0,0,0,2.67-.15c.89-.12,2.28-.36,4.2-.69,6.48-1.11,20-3.42,28.69-3.42a17.39,17.39,0,0,1,4.94.44c7.22,2.49,16.3,3.13,24.31,3.69,2.8.2,5.44.38,7.59.62a31.6,31.6,0,0,0,3.62.2A87.64,87.64,0,0,0,235,40.86a67.74,67.74,0,0,1,8.91-1.06,7.07,7.07,0,0,1,1,.06c2.41.36,23.37,2.4,25.54,3.13,2.47.84,5.85,1.16,10.13,1.57,3.59.34,10.89,1,13.25,2.17a4.27,4.27,0,0,1,.57,3.15C246.49,54.57,93.25,60.35,37.86,62.33Z"/><path class="cls-11" d="M320.36,45.06c-7-2.67-134.34-3-149.75-2.67,0,0-139.25-3-148.25-3-5.58,0-13.08,4.74-17.82,10.89,3.66-2,8.84-3.54,16.2-3.92,21.05-1.1,273.84-1.92,315.05,11.12C332.39,50.65,325.3,46.94,320.36,45.06Z"/><path id="line" class="cls-12" d="M12.46,46.61s-6.33,4.83-7.9,9.58-1.91,12.25-1,17.56c0,0-3.22-10.61,0-17.56C5.61,51.67,4.86,50.42,12.46,46.61Z"/><path id="sausage" class="cls-13" d="M170.61,42.39c15.41-.33,142.75,0,149.75,2.67s18.33,9,17.33,22.66-4.33,26-20.33,26.67-270.67,2-300-7.33C2,78.72.69,73.06,0,62.39s13.34-23,22.34-23S170.61,42.39,170.61,42.39Z"/><path class="cls-12" d="M329.88,75.83c1.87,1,4.94.56,6.78.17.19-1,.21-1,.35-2C334.36,75.51,329.88,75.83,329.88,75.83Z"/><path class="cls-12" d="M330.07,70.4l7.18,1.82c.05-.46.1-.92.14-1.38Z"/><path class="cls-12" d="M337.58,69.08c0-.45.08-.9.11-1.36,0-.12,0-.24,0-.36-2-1.12-5.37-5.85-7.24-5.65C330.47,61.71,334.89,66.7,337.58,69.08Z"/><path id="bottom_shadow-2" data-name="bottom shadow" class="cls-14" d="M168.19,81.24C111.34,78.9,16.93,86.37,17.77,87.18c27.59,9,283.59,8,299.59,6.84a15.23,15.23,0,0,0,5.16-1.28C324.15,87,224.52,83.41,168.19,81.24Z"/><path id="underneath-2" data-name="underneath" class="cls-15" d="M45.83,51.4c.69,1.76.26,19.87,13.94,17.5S75.06,58.49,77,57.45s8.51-8,17.75,2,21,28.21,28.35,21.83S141,57.5,152.52,70.58s43.75,9.45,51-4.61,28.75,13.8,28.75,13.8,7.51-8.15,10,0,13.5,16.14,21.75,10,19.86-29,30.76-23.39S315,89,321.27,85.46s15.75-15.55,0-23.8-43-14.42-51.25-4.21-8,27.45-15.25,19S239.44,49,231.86,49.47s-35.34-7.27-44.34,6c0,0-23.21,34.57-50.85-3.6-4.15-6.25-20.4,11.18-31,1.88S60,42.84,55.77,51s-3,12.07-3,12.07Z"/><g id="lines"><path class="cls-12" d="M0,62.39c.06.83.19,2.59.27,3.37,1.7.7,4.87,1.77,7,1.06C7.27,66.82,2.2,64.39,0,62.39Z"/><path class="cls-12" d="M.23,59.23a8.48,8.48,0,0,0-.16,1.49l8-.65Z"/><path class="cls-12" d="M.73,57.25a15.52,15.52,0,0,0-.5,2A102.34,102.34,0,0,0,9,52.8C7.15,52.27,2.79,56.69.73,57.25Z"/></g><path id="base" class="cls-16" d="M20.69,76.06c-8.77-4.08,1.46-18.67,10.67-24s29-18,37.33-15.34S86,62.39,94,61.72s30-27.87,42.67-25.27,16.33,31.61,28,30.27,22.67-26.66,37-25.33,20,16,25.33,22.67c3.34,5.33,26.34-23.34,37.67-23.67s20.67,31.67,28.67,32S312.69,46.72,321,46.72s6,10,2.67,15.34S307,81.39,305.36,85.39s-7.67,3.67-13,2.67-26-33.53-29.67-33S243.27,73.72,240,78.72c-2.87,4.42-2.07,11.84-8.39,11.8-7.16,0-19.94-36.46-31.27-35.46S183,81.39,167.56,82.18C157,83.85,140.69,70.39,133,62.06s-21.33,19.66-29,21.33-27.66,3.5-41.16-30.17C51.19,46.56,35,82.72,20.69,76.06Z"/><path id="shadow" class="cls-17" d="M293.36,72.39c-8-.33-17.34-32.33-28.67-32s-34.33,29-37.67,23.67c-5.33-6.67-11-21.34-25.33-22.67s-25.33,24-37,25.33-15.33-27.66-28-30.27S102,61.06,94,61.72s-17-22.33-25.33-25-28.12,10-37.33,15.34a35,35,0,0,0-11,10.64l.31.16C35,69.53,51.19,33.36,62.86,40,76.36,73.7,96.36,71.86,104,70.2s21.34-29.67,29-21.34S157,70.66,167.56,69c15.46-.79,21.63-24.85,33-25.85s23.95,34.14,31.11,34.18c6.32,0,5.52-7.37,8.39-11.79,3.25-5,22.42-21.73,24.32-21.76s22.68,30.09,28,31.09,11.33,1.34,13-2.66,15-18,18.33-23.34c.26-.41.51-.85.75-1.31a6.47,6.47,0,0,0-3.42-.83C312.69,46.72,301.36,72.72,293.36,72.39Z"/><path id="shade" class="cls-18" d="M18.52,72.52c-.31-1.63,2.5-4.38,4-1.88s-1.12,4.63-2,4.13S18.84,74.14,18.52,72.52Zm159,4.56a1.64,1.64,0,0,0,.94-2.25c-.6-2.07-3-.08-2.73,1.12A1.29,1.29,0,0,0,177.5,77.08ZM45.86,46.36c1.78-1.81,3.41-3.53,4.91-5.17-3.35,1.63-6.75,3.48-9.89,5.28C42,47.5,43.78,48.46,45.86,46.36Zm35.29,22c-.44-2.24-2.88-4.79-5.79-3C70,68.78,75.27,74.23,75,71c-.25-2.62-1.91-3.31.33-5S80.16,70.57,81.15,68.37ZM124,60.66C118.65,59.41,107.9,72.35,107.77,73s.5,3.3,2.58.27,14.67-13.45,14.3-12c-4.92,2.38,4.28-.32,3.87-3.39C128.22,55.54,125,57,124,60.66Zm8.74-2.38c4,2,7.68,8.42,7.68,8.42s-8.84-14.42-10.24-12C130.2,54.72,129.81,56.8,132.76,58.28ZM187.9,63.4s.5-1.76,5.37-6.15,9.13-2.81,9.13-2.81-.13-.92-4.13-1.8-10.75,5.88-10.75,9.13S187.9,63.4,187.9,63.4ZM302.51,75.53l.35,3.17a1.65,1.65,0,0,0-2.42-.81c-1.67,1-3.92,6.31.75,6.11s1.75-5,3-4.64,3.87-3,1.54-6.58-3.08.25-3.08,2.35m20.16-26.82c-.25,2.24.5,3.83,1.67,3.33a1.86,1.86,0,0,0,0-3.33C322.86,47.47,322.77,48.31,322.77,48.31Z"/><path class="cls-19" d="M27,44c-1.34-4.37,1.17-5.25,5.36-.31C35.15,47,28,47.33,27,44ZM97.39,50c5.42-.6-6.16-4-6.57-1.61C90.15,52.24,94.27,48.48,97.39,50ZM39.15,55.47c-5.74-6.42-7.11-2-3.86.21C40.6,63.4,43,59.78,39.15,55.47Zm84,17c.22,1.22,3.25,3.3,8.67-.12,6.13-3.86,9.41-12.74,2.08-7.25-.67.51-4.21,3.59-5,4.25C127.21,70.69,123,71.78,123.14,72.51Zm205.2,13.67c1.06.24,3.31-5,.56-2.16s-14.84-19.69-17.72-22.31-4.79,2.68-2.91,5.69C308.27,67.4,321.65,84.64,328.34,86.18ZM150.88,51.1c-.77,2.57,4.65-1.92,10.48-.42s7.82,5.42,10,8.33S175,66.1,176,64.43,169.63,47.93,164.13,47s-7.25.38-9-.35-2-.06-2,1.1S151.24,49.88,150.88,51.1Zm96.88,19.48c-4.29-2.21,2.65,8.2,5.22,10.94,2.37,2.54,7.26,3.21,10.73,1.64s.68-2.28.68-2.28-6.89,1.21-9.69-1.19S249.57,71.51,247.76,70.58Z"/><path id="base-2" data-name="base" class="cls-20" d="M27.52,36.45c-8.76,3.74.45,15.09,8.17,22.11C44.23,66.33,54,77.68,62.36,75.22S85,52.94,93,53.56c1.23.09,4,.25,3.92,2.1-1.42,34.86,2.43,17.73,4.09,4.56,5.66,10.67,20.12,19.88,23.16,19.87,8.17.13,26.17-26.59,37.83-25.37,11.67,2,19,30.15,33.34,28.84,16.33-1.5,24.33-26.05,32.16-27.34,5.84.29,19.88,31.17,31.17,32.17,26,2.29,31.7-30,39.17-27.15,10.33,4,25.26,29.24,31.66,24.4,7.5-5.67.67-15.51-2.66-20.42s-20.78-22.86-32.4-21.79c-14,1.28-27,31.25-32.77,30.29s-20.58-24.57-23.83-29.16c-2.88-4.07-15.07-3.57-20.17.16-8.88,6.5-14.83,17-24.5,25.67-7.67-5.33-18.37-26.44-33.83-27.17-10.54-1.53-21.5,10.64-29.17,18.3S113.69,46.72,101,35.35c-5.81-5.22-15.66,4.87-39.33,26.37C50,67.85,41.86,30.31,27.52,36.45Z"/><path id="drop" class="cls-21" d="M99.36,44.39C101,60.22,98.57,68.9,98,72.06c-.32,1.88-.5,3.19-.63,4.15,1,.6,2.25-5.24,3.21-12.87,1.3,1.68,1.2-1.74,1.64-1.06,1.19-6.12,1.66-13.24,0-20.13C97.86,24.65,99.36,44.39,99.36,44.39Z"/><path id="shadow-2" data-name="shadow" class="cls-22" d="M325,62.9c-5.69-6.68-20.37-20.41-30.58-19.47-6.92.63-13.58,8.27-19.26,15.72l-.66.89q-1.53,2.09-2.89,3.87c-4.2,5.66-7.65,10.2-10,9.81-2.88-.47-8-6.57-12.81-13.13-3.24-4.22-6.94-9.56-11.19-15.92-.22-.32-.42-.63-.61-.92-3.84-3.16-14.66-2.49-19.39,1-8.88,6.5-14.83,17-24.5,25.67-7.67-5.33-18.37-26.44-33.83-27.17-10.54-1.53-21.5,10.64-29.17,18.3-4.57,4.56-9.54-1.56-15.5-9.65-1.17-1.53-2.38-3.18-3.65-4.91l-1.52-2.07a70.71,70.71,0,0,0-8.5-9.54c-5.81-5.22-15.66,4.87-39.33,26.37-4.62,2.43-8.68-2-12.8-7.82-1.75-2.16-3.43-4.66-5.16-7.22-.92-1.38-1.88-2.8-2.85-4.17-4-4.92-8.27-8.24-13.36-6.06-.19.08-.36.17-.54.26.3,3.18,4.51,9,10.73,14.63,1.4,1.28,2.86,2.67,4.27,4,6,5.73,12.79,12.21,18,12.21a5.69,5.69,0,0,0,1.55-.21c3.05-.9,8.07-5.56,12.5-9.67,6.72-6.24,13.07-12.14,18.64-12.14a5.88,5.88,0,0,1,.6,0h.1c3,.23,4.67,1.08,5.6,2.15l4.73,6.09C107.42,60.88,114.51,67,124.74,72c2.71-.65,8.44-6,12.69-10,8-7.51,16.24-15.29,23.8-15.29a10.32,10.32,0,0,1,1.11.06l.19,0c6.48,1.11,11.16,7.74,16.11,14.77,8.55,8.73,6.72,4.52,14.55,8.85-.25,9,18.81-7,21.86-11.13,4.27-5.75,7.64-10.29,12-11l.31,0,.32,0c3.75.18,7,4.48,13.24,13.42,5.14,7.28,12.9,18.3,18,18.75.79.07,1.58.11,2.34.11,13.11,0,20.23-10.56,25.43-18.27,3.46-5.13,6.19-9.18,10.19-9.18a5.75,5.75,0,0,1,2,.38c5.17,2,10.8,8.07,16.25,13.94,4,4.33,10.09,10.87,12.52,10.87h0C331.82,75.15,329.68,69.87,325,62.9Z"/></g></g></svg>