<svg xmlns="http://www.w3.org/2000/svg" viewBox="0 0 1207.25 722.63"><defs><style>.cls-1{fill:#fff;}.cls-2{fill:#c71a2a;}.cls-3{fill:#2c2c54;}.cls-4{fill:#edeeff;}</style></defs><title>Intro</title><g id="Layer_2" data-name="Layer 2"><g id="flag"><polygon id="base" class="cls-1" points="1207.25 722.63 0 722.63 0 155.9 0 0 1207.25 0 1207.25 722.63"/><path id="red_line" data-name="red line" class="cls-2" d="M1207.25,52H0V0H1207.25Zm0,59.76H0v52H1207.25Zm0,111.77H0v52H1207.25Zm0,111.77H0v52H1207.25Zm0,111.77H0v52H1207.25Zm0,111.77H0v52H1207.25Zm0,111.77H0v52H1207.25Z"/><rect class="cls-3" width="539.86" height="387.32"/><path id="stars" class="cls-4" d="M502.83,11.56l4.5,13.82h14.56l-11.78,8.54,4.5,13.81-11.78-8.54-11.78,8.54,4.5-13.81-11.78-8.54h14.56Zm-4.5,95.55H483.77l11.78,8.54-4.5,13.81,11.78-8.54,11.78,8.54-4.5-13.81,11.78-8.54H507.33l-4.5-13.82Zm0,81.73H483.77l11.78,8.54-4.5,13.81,11.78-8.54,11.78,8.54-4.5-13.81,11.78-8.54H507.33L502.83,175Zm0,81.73H483.77l11.78,8.54-4.5,13.81,11.78-8.54,11.78,8.54-4.5-13.81,11.78-8.54H507.33l-4.5-13.82Zm0,81.73H483.77l11.78,8.54-4.5,13.81,11.78-8.54,11.78,8.54-4.5-13.81,11.78-8.54H507.33l-4.5-13.82ZM452,66.52H437.48l11.78,8.54-4.5,13.81,11.78-8.53,11.78,8.53-4.5-13.81,11.79-8.54H461l-4.5-13.82Zm0,81.73H437.48l11.78,8.54-4.5,13.81,11.78-8.53,11.78,8.53-4.5-13.81,11.79-8.54H461l-4.5-13.82ZM452,230H437.48l11.78,8.54-4.5,13.81,11.78-8.54,11.78,8.54-4.5-13.81L475.61,230H461l-4.5-13.82Zm0,81.73H437.48l11.78,8.54-4.5,13.81,11.78-8.54,11.78,8.54-4.5-13.81,11.79-8.54H461l-4.5-13.82ZM359.47,66.52H344.9l11.79,8.54-4.5,13.81L364,80.34l11.78,8.53-4.5-13.81L383,66.52H368.47L364,52.7Zm0,81.73H344.9l11.79,8.54-4.5,13.81L364,162.07l11.78,8.53-4.5-13.81L383,148.25H368.47L364,134.43Zm0,81.73H344.9l11.79,8.54-4.5,13.81L364,243.79l11.78,8.54-4.5-13.81L383,230H368.47L364,216.16Zm0,81.73H344.9l11.79,8.54-4.5,13.81L364,325.52l11.78,8.54-4.5-13.81L383,311.71H368.47L364,297.89ZM266.89,66.52H252.33l11.78,8.54-4.5,13.81,11.78-8.53,11.78,8.53-4.5-13.81,11.79-8.54H275.89l-4.5-13.82Zm0,81.73H252.33l11.78,8.54-4.5,13.81,11.78-8.53,11.78,8.53-4.5-13.81,11.79-8.54H275.89l-4.5-13.82Zm0,81.73H252.33l11.78,8.54-4.5,13.81,11.78-8.54,11.78,8.54-4.5-13.81L290.46,230H275.89l-4.5-13.82Zm0,81.73H252.33l11.78,8.54-4.5,13.81,11.78-8.54,11.78,8.54-4.5-13.81,11.79-8.54H275.89l-4.5-13.82ZM174.32,66.52H159.75l11.79,8.54L167,88.87l11.78-8.53,11.78,8.53-4.5-13.81,11.78-8.54H183.32l-4.5-13.82Zm0,81.73H159.75l11.79,8.54L167,170.6l11.78-8.53,11.78,8.53-4.5-13.81,11.78-8.54H183.32l-4.5-13.82Zm0,81.73H159.75l11.79,8.54L167,252.33l11.78-8.54,11.78,8.54-4.5-13.81L197.88,230H183.32l-4.5-13.82Zm0,81.73H159.75l11.79,8.54L167,334.06l11.78-8.54,11.78,8.54-4.5-13.81,11.78-8.54H183.32l-4.5-13.82ZM81.74,66.52H67.18L79,75.06l-4.5,13.81,11.78-8.53L98,88.87l-4.5-13.81,11.79-8.54H90.74L86.24,52.7Zm0,81.73H67.18L79,156.79l-4.5,13.81,11.78-8.53L98,170.6l-4.5-13.81,11.79-8.54H90.74l-4.5-13.82Zm0,81.73H67.18L79,238.52l-4.5,13.81,11.78-8.54L98,252.33l-4.5-13.81L105.31,230H90.74l-4.5-13.82Zm0,81.73H67.18L79,320.25l-4.5,13.81,11.78-8.54L98,334.06l-4.5-13.81,11.79-8.54H90.74l-4.5-13.82ZM410.25,11.56l4.51,13.82h14.56l-11.78,8.54L422,47.73l-11.79-8.54-11.78,8.54L403,33.92l-11.78-8.54h14.56Zm-4.5,95.55H391.19L403,115.65l-4.5,13.81,11.78-8.54L422,129.46l-4.5-13.81,11.78-8.54H414.76l-4.51-13.82Zm0,81.73H391.19L403,197.38l-4.5,13.81,11.78-8.54L422,211.19l-4.5-13.81,11.78-8.54H414.76L410.25,175Zm0,81.73H391.19L403,279.11l-4.5,13.81,11.78-8.54L422,292.92l-4.5-13.81,11.78-8.54H414.76l-4.51-13.82Zm0,81.73H391.19L403,360.84l-4.5,13.81,11.78-8.54L422,374.65l-4.5-13.81,11.78-8.54H414.76l-4.51-13.82ZM317.68,11.56l4.5,13.82h14.56L325,33.92l4.5,13.81-11.78-8.54L305.9,47.73l4.5-13.81-11.78-8.54h14.56Zm-4.5,95.55H298.62l11.78,8.54-4.5,13.81,11.78-8.54,11.78,8.54L325,115.65l11.78-8.54H322.18l-4.5-13.82Zm0,81.73H298.62l11.78,8.54-4.5,13.81,11.78-8.54,11.78,8.54L325,197.38l11.78-8.54H322.18L317.68,175Zm0,81.73H298.62l11.78,8.54-4.5,13.81,11.78-8.54,11.78,8.54L325,279.11l11.78-8.54H322.18l-4.5-13.82Zm0,81.73H298.62l11.78,8.54-4.5,13.81,11.78-8.54,11.78,8.54L325,360.84l11.78-8.54H322.18l-4.5-13.82ZM225.1,11.56l4.5,13.82h14.57l-11.78,8.54,4.5,13.81L225.1,39.19l-11.78,8.54,4.5-13.81L206,25.38H220.6Zm-4.5,95.55H206l11.78,8.54-4.5,13.81,11.78-8.54,11.79,8.54-4.5-13.81,11.78-8.54H229.6l-4.5-13.82Zm0,81.73H206l11.78,8.54-4.5,13.81,11.78-8.54,11.79,8.54-4.5-13.81,11.78-8.54H229.6L225.1,175Zm0,81.73H206l11.78,8.54-4.5,13.81,11.78-8.54,11.79,8.54-4.5-13.81,11.78-8.54H229.6l-4.5-13.82Zm0,81.73H206l11.78,8.54-4.5,13.81,11.78-8.54,11.79,8.54-4.5-13.81,11.78-8.54H229.6l-4.5-13.82ZM132.53,11.56,137,25.38h14.56l-11.78,8.54,4.5,13.81-11.78-8.54-11.78,8.54,4.5-13.81-11.78-8.54H128ZM128,107.11H113.47l11.78,8.54-4.5,13.81,11.78-8.54,11.78,8.54-4.5-13.81,11.78-8.54H137l-4.5-13.82Zm0,81.73H113.47l11.78,8.54-4.5,13.81,11.78-8.54,11.78,8.54-4.5-13.81,11.78-8.54H137L132.53,175Zm0,81.73H113.47l11.78,8.54-4.5,13.81,11.78-8.54,11.78,8.54-4.5-13.81,11.78-8.54H137l-4.5-13.82Zm0,81.73H113.47l11.78,8.54-4.5,13.81,11.78-8.54,11.78,8.54-4.5-13.81,11.78-8.54H137l-4.5-13.82ZM40,11.56l4.5,13.82H59L47.24,33.92l4.5,13.81L40,39.19,28.17,47.73l4.5-13.81L20.89,25.38H35.45Zm-4.5,95.55H20.89l11.78,8.54-4.5,13.81L40,120.92l11.79,8.54-4.5-13.81L59,107.11H44.45L40,93.29Zm0,81.73H20.89l11.78,8.54-4.5,13.81L40,202.65l11.79,8.54-4.5-13.81L59,188.84H44.45L40,175Zm0,81.73H20.89l11.78,8.54-4.5,13.81L40,284.38l11.79,8.54-4.5-13.81L59,270.57H44.45L40,256.75Zm0,81.73H20.89l11.78,8.54-4.5,13.81L40,366.11l11.79,8.54-4.5-13.81L59,352.3H44.45L40,338.48Z"/></g></g></svg>