<svg xmlns="http://www.w3.org/2000/svg" xmlns:xlink="http://www.w3.org/1999/xlink" viewBox="0 0 257.63 217.58"><defs><style>.cls-1{fill:none;}.cls-2{fill:#181612;}.cls-3{fill:url(#linear-gradient);}.cls-4{fill:url(#linear-gradient-2);}.cls-5{fill:#eeefda;}.cls-6{fill:url(#linear-gradient-3);}.cls-7{fill:url(#linear-gradient-4);}.cls-8{fill:url(#linear-gradient-5);}.cls-9{fill:url(#linear-gradient-6);}.cls-10{fill:url(#linear-gradient-7);}.cls-11{fill:url(#linear-gradient-8);}.cls-12,.cls-13,.cls-16{opacity:0.54;}.cls-12{fill:url(#linear-gradient-9);}.cls-13{fill:url(#linear-gradient-10);}.cls-14{fill:url(#linear-gradient-11);}.cls-15{fill:url(#linear-gradient-12);}.cls-16{fill:url(#linear-gradient-13);}.cls-17{opacity:0.41;fill:url(#linear-gradient-14);}.cls-18{fill:url(#linear-gradient-15);}.cls-19{opacity:0.55;fill:url(#linear-gradient-16);}.cls-20{fill:url(#linear-gradient-17);}.cls-21{fill-opacity:0.58;fill:url(#linear-gradient-18);}.cls-22{opacity:0.49;fill:url(#linear-gradient-19);}.cls-23{clip-path:url(#clip-path);}.cls-24{fill:#262420;}.cls-25{fill:#272521;}.cls-26{fill:#282622;}.cls-27{fill:#292723;}.cls-28{fill:#2a2824;}.cls-29{fill:#2b2925;}.cls-30{fill:#2c2a26;}.cls-31{fill:#2d2b27;}.cls-32{fill:#2e2c28;}.cls-33{fill:#2f2d29;}.cls-34{fill:#302e2a;}.cls-35{fill:#312f2b;}.cls-36{fill:#32302c;}.cls-37{fill:#33312d;}.cls-38{fill:#34322e;}.cls-39{fill:#35332f;}.cls-40{fill:#363430;}.cls-41{fill:#373531;}.cls-42{fill:#383633;}.cls-43{fill:#393734;}.cls-44{fill:#3a3835;}.cls-45{fill:#3b3936;}.cls-46{fill:#3c3a37;}.cls-47{fill:#3d3b38;}.cls-48{fill:#3e3c39;}.cls-49{fill:#3f3d3a;}.cls-50{fill:#403e3b;}.cls-51{fill:#413f3c;}.cls-52{fill:#42403d;}.cls-53{fill:#43413e;}.cls-54{fill:#44423f;}.cls-55{fill:#454340;}.cls-56{fill:#464441;}.cls-57{fill:#474542;}.cls-58{fill:#484643;}.cls-59{fill:#494744;}.cls-60{fill:url(#linear-gradient-20);}.cls-61{fill:url(#linear-gradient-21);}.cls-62{fill-opacity:0.74;fill:url(#linear-gradient-22);}.cls-63{fill:url(#linear-gradient-23);}.cls-64{fill-opacity:0.55;fill:url(#linear-gradient-24);}.cls-65{fill:url(#linear-gradient-25);}.cls-66{fill:url(#linear-gradient-26);}.cls-67{fill:url(#linear-gradient-27);}.cls-68{fill:url(#linear-gradient-28);}.cls-69{fill:url(#linear-gradient-29);}.cls-70{fill:#eaeaea;}.cls-71{fill:url(#linear-gradient-30);}.cls-72{fill:#f9f9f9;}.cls-73{fill:url(#linear-gradient-31);}.cls-74{fill:#e1976b;}.cls-75{fill:url(#linear-gradient-32);}.cls-76{fill:url(#linear-gradient-33);}</style><linearGradient id="linear-gradient" y1="68.55" x2="114.49" y2="68.55" gradientUnits="userSpaceOnUse"><stop offset="0" stop-color="#dfddd2"/><stop offset="0.46" stop-color="#d6d4c6"/><stop offset="0.99" stop-color="#9e9878"/></linearGradient><linearGradient id="linear-gradient-2" x1="14.33" y1="66.88" x2="79.6" y2="66.88" gradientUnits="userSpaceOnUse"><stop offset="0" stop-color="#c1bda9"/><stop offset="0.46" stop-color="#cbc7b6"/><stop offset="1" stop-color="#9e9878"/></linearGradient><linearGradient id="linear-gradient-3" x1="53.45" y1="169.84" x2="58.63" y2="169.84" gradientUnits="userSpaceOnUse"><stop offset="0" stop-color="#9b7e68"/><stop offset="0.99" stop-color="#464541"/></linearGradient><linearGradient id="linear-gradient-4" x1="58.8" y1="169.42" x2="99.5" y2="169.42" gradientUnits="userSpaceOnUse"><stop offset="0" stop-color="#a0856f"/><stop offset="0.99" stop-color="#3d3b38"/></linearGradient><linearGradient id="linear-gradient-5" x1="88.45" y1="174.51" x2="88.45" y2="18.18" gradientUnits="userSpaceOnUse"><stop offset="0.01" stop-color="#eec093"/><stop offset="0.76" stop-color="#f5dabf"/><stop offset="1" stop-color="#f4d8bc"/></linearGradient><linearGradient id="linear-gradient-6" x1="71.75" y1="86.01" x2="98.25" y2="86.01" gradientUnits="userSpaceOnUse"><stop offset="0" stop-color="#d3b89f"/><stop offset="1" stop-color="#f4d8bc"/></linearGradient><linearGradient id="linear-gradient-7" x1="64.07" y1="75.47" x2="88.47" y2="75.47" gradientTransform="translate(1.73 5.38) rotate(-0.4)" gradientUnits="userSpaceOnUse"><stop offset="0" stop-color="#e8af8d"/><stop offset="1" stop-color="#eec093"/></linearGradient><linearGradient id="linear-gradient-8" x1="68.77" y1="86.82" x2="104.69" y2="86.82" gradientUnits="userSpaceOnUse"><stop offset="0" stop-color="#eec093"/><stop offset="1" stop-color="#f4d8bc"/></linearGradient><linearGradient id="linear-gradient-9" x1="71.6" y1="86.63" x2="99.51" y2="86.63" gradientUnits="userSpaceOnUse"><stop offset="0" stop-color="#c19b77"/><stop offset="0.54" stop-color="#edc2a8"/><stop offset="1" stop-color="#eab596"/></linearGradient><linearGradient id="linear-gradient-10" x1="85.52" y1="94.47" x2="85.52" y2="78.79" gradientUnits="userSpaceOnUse"><stop offset="0" stop-color="#bc936c"/><stop offset="0.54" stop-color="#edc2a8"/><stop offset="0.84" stop-color="#b88d64"/></linearGradient><linearGradient id="linear-gradient-11" x1="29.7" y1="90.05" x2="52.93" y2="90.05" gradientUnits="userSpaceOnUse"><stop offset="0" stop-color="#eec093"/><stop offset="1" stop-color="#f4d8bc"/></linearGradient><linearGradient id="linear-gradient-12" x1="31.59" y1="87.4" x2="51.18" y2="87.4" gradientUnits="userSpaceOnUse"><stop offset="0" stop-color="#caab8c"/><stop offset="1" stop-color="#eec093"/></linearGradient><linearGradient id="linear-gradient-13" x1="40.45" y1="92.59" x2="40.45" y2="82.2" gradientUnits="userSpaceOnUse"><stop offset="0" stop-color="#a78e7a"/><stop offset="0.54" stop-color="#edc2a8"/><stop offset="0.99" stop-color="#856348"/></linearGradient><linearGradient id="linear-gradient-14" x1="76.06" y1="43.32" x2="76.06" y2="18.18" gradientUnits="userSpaceOnUse"><stop offset="0" stop-color="#f4d6b9"/><stop offset="1" stop-color="#f2cfad"/></linearGradient><linearGradient id="linear-gradient-15" x1="91.9" y1="174.51" x2="91.9" y2="120.94" gradientUnits="userSpaceOnUse"><stop offset="0.01" stop-color="#917159"/><stop offset="0.48" stop-color="#a9917e"/><stop offset="0.94" stop-color="#87654a"/></linearGradient><linearGradient id="linear-gradient-16" x1="122.85" y1="499.76" x2="143.4" y2="499.76" gradientTransform="matrix(0.98, 0.18, -0.12, 0.64, -9.01, -198.62)" gradientUnits="userSpaceOnUse"><stop offset="0.01" stop-color="#b88d64"/><stop offset="0.48" stop-color="#b88d64"/><stop offset="0.99" stop-color="#caa98b"/></linearGradient><linearGradient id="linear-gradient-17" x1="81.31" y1="137.68" x2="81.31" y2="119.37" gradientUnits="userSpaceOnUse"><stop offset="0" stop-color="#e7ac89"/><stop offset="1" stop-color="#e8b08f"/></linearGradient><linearGradient id="linear-gradient-18" x1="42.58" y1="142.01" x2="31.03" y2="95.81" gradientUnits="userSpaceOnUse"><stop offset="0.04" stop-color="#efc9b2"/><stop offset="0.53" stop-color="#eab697"/><stop offset="1" stop-color="#e1976b"/></linearGradient><linearGradient id="linear-gradient-19" x1="75.43" y1="104.77" x2="123.55" y2="104.77" gradientUnits="userSpaceOnUse"><stop offset="0" stop-color="#efc9b2"/><stop offset="0.53" stop-color="#eab697"/><stop offset="1" stop-color="#e1976b"/></linearGradient><clipPath id="clip-path"><path class="cls-1" d="M232.43,196.59c-16.06-9.43-40.35-25.42-44.16-27.44-5.32-2.81-7.82.47-7.82-5.32-1.57-10-4.85-8.29-8.3-10.33-3.29-1.95,2-12.93-1.38-16.88h0a3.31,3.31,0,0,0-.5-.49,5.66,5.66,0,0,0-.64-.44l-.09-.06a5.1,5.1,0,0,0-.57-.29l-.11,0a4,4,0,0,0-.52-.18l-.1,0-.49-.09h-.07a2.84,2.84,0,0,0-.41,0h-.11a2.34,2.34,0,0,0-.38,0l-.18,0-.14,0c-1.32.2-2.29.65-3.19-1.1v0c-.1-.21-.2-.44-.31-.71h0a18.11,18.11,0,0,1-.66-2.26c-1.88-8,5.64-12.69-3.13-16.13l-.16-.06c-2.14,8.47-4,20.3-2.52,24.78.43,1.31,1.7,1.79,3.45,1.67-2.8,8.22-5.38,18.71-4.91,28.6,1,20.55.19-15.61,5.56-21.83s.61,25.23,3,31,2.13-9.29,6.27-15.36,5.59-3.55,8.26,2.6,6.32,17.57,3.16,26.08,7-14.75,5.83-17.83,36.81,31,47.15,29.73C236.19,204,235.26,201.13,232.43,196.59Z"/></clipPath><linearGradient id="linear-gradient-20" x1="27.29" y1="194.49" x2="60.22" y2="194.49" xlink:href="#linear-gradient-3"/><linearGradient id="linear-gradient-21" x1="65.46" y1="166.96" x2="145.43" y2="166.96" xlink:href="#linear-gradient-3"/><linearGradient id="linear-gradient-22" x1="160.37" y1="293.78" x2="152.08" y2="260.63" gradientTransform="translate(-28.06 -186.23) rotate(14.04)" gradientUnits="userSpaceOnUse"><stop offset="0.01" stop-color="#eec093"/><stop offset="0.01" stop-color="#edbf92"/><stop offset="0.37" stop-color="#a17b5a"/><stop offset="0.53" stop-color="#836044"/><stop offset="1" stop-color="#836044"/></linearGradient><linearGradient id="linear-gradient-23" x1="45.79" y1="96.65" x2="74.65" y2="96.65" gradientUnits="userSpaceOnUse"><stop offset="0" stop-color="#eec093"/><stop offset="0.76" stop-color="#f5dabf"/><stop offset="1" stop-color="#f4d8bc"/></linearGradient><linearGradient id="linear-gradient-24" x1="48.61" y1="96.35" x2="74.65" y2="96.35" gradientUnits="userSpaceOnUse"><stop offset="0" stop-color="#e7ac89"/><stop offset="0.63" stop-color="#f3d6c5"/><stop offset="1" stop-color="#ecbfa3"/></linearGradient><linearGradient id="linear-gradient-25" x1="48.57" y1="130.72" x2="79.09" y2="130.72" gradientUnits="userSpaceOnUse"><stop offset="0" stop-color="#d4605d"/><stop offset="1" stop-color="#e39896"/></linearGradient><linearGradient id="linear-gradient-26" x1="63.77" y1="137.07" x2="63.77" y2="130.98" gradientUnits="userSpaceOnUse"><stop offset="0" stop-color="#cd4643"/><stop offset="0.99" stop-color="#d56663"/></linearGradient><linearGradient id="linear-gradient-27" x1="99.51" y1="62.27" x2="190.78" y2="62.27" gradientUnits="userSpaceOnUse"><stop offset="0" stop-color="#bcb8a2"/><stop offset="0.66" stop-color="#e7e5dd"/><stop offset="1" stop-color="#c1bda9"/></linearGradient><linearGradient id="linear-gradient-28" x1="125.57" y1="124.28" x2="125.57" y2="12.16" gradientUnits="userSpaceOnUse"><stop offset="0" stop-color="#f4f4f0"/><stop offset="0.66" stop-color="#cecbbb"/><stop offset="1" stop-color="#bebaa5"/></linearGradient><linearGradient id="linear-gradient-29" x1="124.19" y1="56.87" x2="190.78" y2="56.87" gradientUnits="userSpaceOnUse"><stop offset="0" stop-color="#cac6b5"/><stop offset="1" stop-color="#dddbd0"/></linearGradient><linearGradient id="linear-gradient-30" x1="81.82" y1="86.48" x2="90.31" y2="86.48" gradientUnits="userSpaceOnUse"><stop offset="0.01" stop-color="#426d21"/><stop offset="1" stop-color="#608445"/></linearGradient><linearGradient id="linear-gradient-31" x1="36.82" y1="87.26" x2="44.48" y2="87.26" xlink:href="#linear-gradient-30"/><linearGradient id="linear-gradient-32" x1="65.46" y1="77.2" x2="106.27" y2="77.2" gradientUnits="userSpaceOnUse"><stop offset="0" stop-color="#1b1b1f"/><stop offset="0.66" stop-color="#5f5f62"/><stop offset="1" stop-color="#7d7d7f"/></linearGradient><linearGradient id="linear-gradient-33" x1="28.56" y1="74.04" x2="54.52" y2="74.04" gradientUnits="userSpaceOnUse"><stop offset="0" stop-color="#7d7d7f"/><stop offset="0.22" stop-color="#5f5f62"/><stop offset="0.63" stop-color="#202024"/><stop offset="1" stop-color="#747476"/></linearGradient></defs><title>JAdams</title><g id="Layer_2" data-name="Layer 2"><g id="JohnAdams"><path class="cls-2" d="M54.52,158.2c-2.74-2-20.4,14.24-23.21,19.72S14.4,192,14.4,192c-5,3.31-5.87,5.5-7.83,7.06C2,202.68,2,204.54,1.88,213.15s-.15,2-.15,2H47.87s12.36-40,12.7-40.37C63.83,171.28,54.52,158.2,54.52,158.2Z"/><polygon class="cls-3" points="74.15 18.13 69.52 13.28 62.92 10.94 57.34 11.91 56.03 15.32 57.24 18.68 55.17 18.83 49.44 17.72 43.48 22.32 37.93 27.95 32.92 34.37 26.87 37.01 21.86 42.02 15.44 46.18 14.19 53.9 11.23 60.14 11.17 67.58 15.26 73.9 9.79 76.97 4.46 79.61 1.18 85.04 0 91.38 2.64 98.54 4.61 105.51 8.13 111.87 8.39 119.77 13.41 125.35 19.86 126.17 27.5 123.83 31.95 117.23 31.79 109.74 31.75 102.59 30.25 95.84 30.02 89.04 33.68 82.64 33.88 76.01 33.11 69.08 37.45 63.29 39.83 57.2 41.06 50.7 44.13 44.84 49.81 39.13 57.62 37.5 65.13 36.15 71.95 37.43 77.72 33.02 84.1 32.17 90.3 30.38 96.57 29.15 103.49 30.21 109.21 26.89 114.49 22.11 109.56 18.05 106.27 16.88 100.39 17.05 95.05 16.08 87.52 18.27 80.36 16.63 74.15 18.13"/><path class="cls-4" d="M36.82,110.31c-6,6.18-15,7-15,7l-4.46-16L14.33,87,20,75.33l-2.58-8.11,4.46-8.79L20.43,49l8.2-8.68L36.82,34l4.72-7,17.15-5.4,1.88-5.17h8l11,5.64Z"/><path class="cls-5" d="M87.26,165.63s-7.66,7.36-16.67,6.1c-8.81-1.22-11.27-8.6-13-5.47a5.87,5.87,0,0,0,0,5.79s-3.68-3.62-7.16,6.32,13,18.87,21.08,15,26.27-25.68,27.86-31.61S87.26,165.63,87.26,165.63Z"/><path class="cls-6" d="M57.6,172.05s-1.84-1.81-4.15.65a4.41,4.41,0,0,1,2.87.29c4.25,1.8,1.35-2.19,1.28-6.73A5.87,5.87,0,0,0,57.6,172.05Z"/><path class="cls-7" d="M99.49,161.13c.48-4.62-12.23,4.5-12.23,4.5s-7.66,7.36-16.67,6.1c-7-1-10-5.82-11.78-6.21-.09,3.09.64,11.32,5,12.73,6.89,2.23,12.16-.8,15.84-3.74s5.57,4.13,14-3.39a44.27,44.27,0,0,0,5.48-8.75C99.29,162,99.39,161.54,99.49,161.13Z"/><path class="cls-8" d="M78.48,18.58c10-1.54,40.69.93,51.65,15.33s21.28,69.8,18.78,77.62-41.32,43.51-46,45.7c3.13,3.13-6.89,7.83-10.33,9.39S79.11,173.51,70,174.45,58.14,166,58.14,166s-8.77,2.81-14.4-8.46S29,137.2,27.78,121.86s5-30,2.5-35S29.66,26.09,78.48,18.58Z"/><path class="cls-9" d="M84.86,92.1c-5.74,0-11.79-4.21-12.91-5l-.2-.31a25.81,25.81,0,0,0,6.15-3.25c2.83-1.84,5.51-3.58,9.64-3.58.27,0,.55,0,.83,0,5.79.31,8.62,4.36,9.88,7.09a19.34,19.34,0,0,0-3.52,1.77A20.43,20.43,0,0,1,86.21,92a9.87,9.87,0,0,1-1.35.09Z"/><path id="behind" class="cls-10" d="M67,79.13a3,3,0,0,0-.63,2.34c.59,2.16,2,6.27,4.43,6.45C74.12,88.16,90.69,74,90.69,74S73,68.87,67,79.13Z"/><path id="eye_shadow" data-name="eye shadow" class="cls-11" d="M68.77,84.46,70,80.33s5.34-11.44,19.6-8.08c5.44,1.28,6.33,5.51,13.78,14.31,4,4.75-1.32,16.82-17.52,15.33C82.16,101.54,73.83,102.38,68.77,84.46Z"/><path class="cls-12" d="M79.46,95c-5.94-1.91-7.13-1.48-7.86-10.24l.76-2.63a10.52,10.52,0,0,1,9.4-5.2,15.43,15.43,0,0,1,2.81.27C92,78.51,96.07,81.89,99.51,88,99.51,93.8,91.5,98.86,79.46,95Z"/><path class="cls-13" d="M87.47,94.47A24.6,24.6,0,0,1,80,93.2q-.77-.26-1.44-.45c-4.23-1.31-4.55-1.41-5.09-7.82l.6-2.08a8.66,8.66,0,0,1,7.66-4.06,14.49,14.49,0,0,1,2.48.23c6.28,1.14,10.07,3.8,13.37,9.42C97.25,91.44,93.73,94.47,87.47,94.47Z"/><path class="cls-14" d="M36.87,80.4c-4,.51-6.06,2.09-7.17,3.43a9.64,9.64,0,0,0,.58,3c.8,1.59.71,4.17.25,7.43,1.34,4.24,3,5.11,8.46,6,8,1.28,11.27-6,13.61-14S44.15,79.46,36.87,80.4Z"/><path class="cls-15" d="M41.57,94.47c-.48,0-1-.09-1.51-.13C31.1,93.66,31.6,86,31.6,86c.51-.87,2.1-4.42,6.48-5,2.89-.38,5.23-1.22,7.8,0,4.57,2.17,5.34,2.53,5.3,2.8C50.4,88.92,46,94.47,41.57,94.47Z"/><path class="cls-16" d="M40.76,92.59a7.55,7.55,0,0,1-.8-.06c-.23,0-.47,0-.71-.06-6.68-.46-7.4-4.64-7.45-6a6.92,6.92,0,0,1,5.36-3.62c.71-.08,1.39-.18,2-.29a22.05,22.05,0,0,1,3.09-.33,5.8,5.8,0,0,1,2.35.46l.35.15c1.87.8,3.27,1.4,4.11,1.78A8.61,8.61,0,0,1,40.76,92.59Z"/><path class="cls-17" d="M58.15,41.29c14.23,8.46,31.35-11.74,50.37-20.14-11.47-3-23.54-3.43-29.13-2.57C62.34,21.2,51,29.7,43.61,39.87,49,38.68,54.06,38.87,58.15,41.29Z"/><path class="cls-18" d="M142,120.94c-6.83,2.65-11.91,2-14.42,7.59-3.27,7.25-20.34,20.75-29.3,21.69s-12.33,4.07-16.94,8-20.05,4.24-25-.16c-3.24.88-9.57-2.16-14.48-4,.66,1.16,1.3,2.33,1.9,3.52,5.63,11.27,14.4,8.46,14.4,8.46S61,175.39,70,174.45s19.09-6.26,22.54-7.83,13.46-6.26,10.33-9.39C106.48,155.56,130,134.35,142,120.94Z"/><path class="cls-19" d="M63.07,147c4.39-1,9,3.22,9.55.72.43-1.94.78-7.84-10.64-8.16-14.11,1.1-9,9.19-8.14,10.33C55.67,152.22,58.32,148.11,63.07,147Z"/><path class="cls-20" d="M75.94,119.37S86.41,131,85.09,136s2.81-2,1.21-6.66S75.94,119.37,75.94,119.37Z"/><path class="cls-21" d="M30.2,96c-1.39,6.92-3.21,15.52-2.38,24.3.86,9.29,4.79,16.43,9.3,23.06,7.08-8.67,7.13-30.91,6.25-37.29C42.65,101,35.14,95.7,30.2,96Z"/><path class="cls-22" d="M81.31,106.08c3,3.13,13.62,19.58,16.94,28s20.22,4.67,19.6-14.77c-5.64-14.58,9-30.22,5-37.06C118.62,74.92,101.57,67,101.57,74c0,10.06-11.87,33-20.26,29.47C68.08,98,81.31,106.08,81.31,106.08Z"/><path class="cls-2" d="M147.27,123c.9-.14,3.13-11.58,11.89-8.14s1.25,8.17,3.13,16.13,3.6,1.71,8,5.15-1.56,15.34,1.88,17.37,6.73.32,8.3,10.33c0,5.79,2.5,2.51,7.82,5.32s50.55,32.87,57.59,34.28,12.21,8.45,11.74,10.48S76.69,214.85,70,215,136.16,124.71,147.27,123Z"/><g class="cls-23"><rect class="cls-24" x="154.55" y="114.79" width="0.51" height="90.67"/><rect class="cls-24" x="155.07" y="114.79" width="2.21" height="90.67"/><rect class="cls-25" x="157.27" y="114.79" width="2.21" height="90.67"/><rect class="cls-26" x="159.48" y="114.79" width="2.21" height="90.67"/><rect class="cls-27" x="161.69" y="114.79" width="2.21" height="90.67"/><rect class="cls-28" x="163.9" y="114.79" width="2.21" height="90.67"/><rect class="cls-29" x="166.11" y="114.79" width="2.21" height="90.67"/><rect class="cls-30" x="168.31" y="114.79" width="2.21" height="90.67"/><rect class="cls-31" x="170.52" y="114.79" width="2.21" height="90.67"/><rect class="cls-32" x="172.73" y="114.79" width="2.21" height="90.67"/><rect class="cls-33" x="174.94" y="114.79" width="2.21" height="90.67"/><rect class="cls-34" x="177.15" y="114.79" width="2.21" height="90.67"/><rect class="cls-35" x="179.35" y="114.79" width="2.21" height="90.67"/><rect class="cls-36" x="181.56" y="114.79" width="2.21" height="90.67"/><rect class="cls-37" x="183.77" y="114.79" width="2.21" height="90.67"/><rect class="cls-38" x="185.98" y="114.79" width="2.21" height="90.67"/><rect class="cls-39" x="188.19" y="114.79" width="2.21" height="90.67"/><rect class="cls-40" x="190.4" y="114.79" width="2.21" height="90.67"/><rect class="cls-41" x="192.6" y="114.79" width="2.21" height="90.67"/><rect class="cls-42" x="194.81" y="114.79" width="2.21" height="90.67"/><rect class="cls-43" x="197.02" y="114.79" width="2.21" height="90.67"/><rect class="cls-44" x="199.23" y="114.79" width="2.21" height="90.67"/><rect class="cls-45" x="201.44" y="114.79" width="2.21" height="90.67"/><rect class="cls-46" x="203.64" y="114.79" width="2.21" height="90.67"/><rect class="cls-47" x="205.85" y="114.79" width="2.21" height="90.67"/><rect class="cls-48" x="208.06" y="114.79" width="2.21" height="90.67"/><rect class="cls-49" x="210.27" y="114.79" width="2.21" height="90.67"/><rect class="cls-50" x="212.48" y="114.79" width="2.21" height="90.67"/><rect class="cls-51" x="214.69" y="114.79" width="2.21" height="90.67"/><rect class="cls-52" x="216.89" y="114.79" width="2.21" height="90.67"/><rect class="cls-53" x="219.1" y="114.79" width="2.21" height="90.67"/><rect class="cls-54" x="221.31" y="114.79" width="2.21" height="90.67"/><rect class="cls-55" x="223.52" y="114.79" width="2.21" height="90.67"/><rect class="cls-56" x="225.73" y="114.79" width="2.21" height="90.67"/><rect class="cls-57" x="227.93" y="114.79" width="2.21" height="90.67"/><rect class="cls-58" x="230.14" y="114.79" width="2.21" height="90.67"/><rect class="cls-59" x="232.35" y="114.79" width="2.21" height="90.67"/><rect class="cls-59" x="234.56" y="114.79" width="1.63" height="90.67"/></g><path class="cls-5" d="M132.87,128.66c-.44.62-50.52,46.13-53.27,48.63s-4.32-.78-4.32-.78-4.54,3.6-5.48,4.07-5.42-2.82-10.77-3.76S46.67,182.61,45.79,187s.25,7.35,0,8.45S34,205.62,31.31,207.34s-5,3.13-4.54,4.54,45.5.94,45.5.94.77-6.26,6.82-6.57,1.44-3.92,2.73-8.46,17.56-13.45,20.07-18.31,40.53-39.9,45.69-54.93S137.94,121.57,132.87,128.66Z"/><path class="cls-60" d="M44.48,200.22s8.11,5.4,4.62,1.64,3.72-19.48,2.08-14.08,3.34,8.68,3.34,8.68c-1.22-5.91,5.11-15.27,4.64-19.61l-.13,0c-3.06-.53-6.67,1.45-9.36,4.07-.93,1.14-1.8,1.49-2.93,3.73a8.62,8.62,0,0,0-1,2.38c-.87,4.38.25,7.35,0,8.45S34,205.62,31.31,207.34l-1.35.87-2.67,3.9c.21,0,.48.09.81.13,2.55-2.27,5.37-4.51,5.37-4.51s.83,4.9,2.22,2.44,5.63-5,5.63-5a18.49,18.49,0,0,0,18.9,4C48.85,212.19,44.48,200.22,44.48,200.22Z"/><path class="cls-61" d="M66.34,198.42c0-.32,0-.64.07-.95.64-7.38,3.29-13.19,7.09-14.55,0,0-7.38,6.89-3.58,10s9.82-8.77,9.75-12.21c0,0,1.1,5.48,0,8s5.93-12,10-18.15-4.12,12.36-4.12,12.36,59.33-51,59.58-61.19C149.93,126.17,93,185,88.45,186.52s-8.11,10-9.94,13.93S67.07,208,65.46,212.19A84.4,84.4,0,0,0,74.73,202c3.37-4.7,6.06-12.54,10.27-15.43s-1.32-1.47-1.32-1.47-4.65,5-6.21,5.94,1-3,1-3-5.26,10.63-7.77,7.66-2.83,5-2.59,7.35"/><path id="shadow" class="cls-62" d="M62.34,106.83c4.57,3.3,5.87,7.4,5.81,9.14,0,1.27-1.29,1.74-4.32,1.38-1.13-.13-3-1.86-4.42-1.57C54,116.85,47,137.68,47,137.68a45.66,45.66,0,0,1-2.48-11.29C43,102,53.12,100.17,62.34,106.83Z"/><path class="cls-63" d="M51.81,74a8.85,8.85,0,0,1,2.44,8.48c-1.15,6.08-4.67,16-5,18.87s-3.75,3.29-3.4,7.16.35,7.63,6.81,8.8c4.22,0,5-1.52,5-1.52s6.16-9.51,10.48,1.52c1.5,3.8,6.5,1.65,6.5-3.94a25.63,25.63,0,0,0-8-11.52C63,98.84,70.35,79.09,51.81,74Z"/><path class="cls-64" d="M72.36,115.77c-2-4.65-4.78-7-8.29-7-4.22,0-7.35,3.76-8.13,4.8a6.66,6.66,0,0,1-2.76.45c-4-.74-4.18-2.19-4.5-5.58l0-.57c-.09-.9.16-1.2,1.13-2.17a7.3,7.3,0,0,0,2.5-4.28,68.92,68.92,0,0,1,2-6.88c1.24-3.84,2.64-8.19,3.33-11.53a45.17,45.17,0,0,0,.51-6.09c5.18,4,8.54,12,7.33,17.91-.76,3.71,1.84,5.33,4.06,7,5,3.83,4.64,10.28,5.13,11.55-.1,1.43-1.9,2.09-2.29,2.37Z"/><path class="cls-65" d="M79.09,131H79c-3.75-.77-11.17-1.59-15.3-2.35-2.38-.4-2.59.58-3.51.55-1.1,0-1.29-1.1-3-.16a26.35,26.35,0,0,0-2.62.73c-1.65.53-4.69,1.78-6,2.35A87.44,87.44,0,0,0,79.09,131Z"/><path class="cls-66" d="M79.09,131a87.44,87.44,0,0,1-30.52,1.11l-.7.29c2.48,2.5,8.46,4.69,12.07,4.69C66.34,137.07,83,131.89,79.09,131Z"/><polygon class="cls-67" points="100.67 18.56 99.51 12.24 104.81 7.67 110.6 4.19 118.62 5.36 125.17 0 132.97 0.76 139.18 5.69 145.51 8.48 151.72 10.75 159.3 11.71 160.98 19.16 167.58 23.59 168.8 29.65 172.04 34.62 175.05 39.95 181.42 42.01 184.49 44.89 187.41 50.7 185.07 57.52 178.58 60.64 176.21 67.17 176.72 74.04 181.04 77.9 185.42 82.46 187.5 88.35 190.78 93.53 187.62 98.82 181.83 101.07 176.83 104.6 172.23 108.91 166.77 112.03 160.34 111.51 157.7 116.37 152.81 120.67 147.63 123.65 143.59 124.54 136.77 124.28 130.82 121.27 125.04 118.61 120.34 114.84 120.11 107.79 123.85 101.53 123.98 94.17 128.78 88.94 133.53 85.08 130.15 78.75 128.37 71.73 130.34 65.84 123.91 59.22 118.66 52.94 116.67 43.95 118.05 38.29 113.99 33.35 109.13 29.01 104.03 24.67 100.67 18.56"/><polygon class="cls-68" points="134.98 107.96 141.09 104.68 143.51 96.83 142.18 76.92 151.64 72.52 151.63 65.94 151.64 56.73 145.14 54.44 139.27 49.44 136.26 44.11 133.03 39.14 131.8 33.09 125.2 28.65 123.52 21.2 115.94 20.24 109.74 17.97 103.41 15.19 99.6 12.16 99.51 12.24 100.67 18.56 104.03 24.67 109.13 29.01 113.99 33.35 118.05 38.29 116.67 43.95 118.66 52.94 123.91 59.22 130.34 65.84 128.37 71.73 130.15 78.75 133.53 85.08 128.78 88.94 123.98 94.17 123.85 101.53 120.11 107.79 120.34 114.84 125.04 118.61 130.82 121.27 131.14 121.44 136.77 124.28 140.15 117.35 134.98 107.96"/><polygon class="cls-69" points="185.32 82.46 180.86 77.9 176.45 74.04 175.93 67.17 178.35 60.64 184.96 57.52 187.35 50.7 184.37 44.89 181.24 42.01 174.75 39.95 171.69 34.62 168.39 29.65 167.14 23.59 160.41 19.16 158.7 11.71 150.98 10.75 144.65 8.48 138.21 5.69 131.87 0.76 127.44 0.34 124.19 3.08 125.37 9.41 128.79 15.51 133.99 19.85 138.94 24.19 143.07 29.13 141.68 34.8 143.69 43.79 149.05 50.07 155.6 56.69 153.59 62.58 155.4 69.59 158.85 75.93 154.01 79.79 149.12 85.02 148.99 92.37 145.18 98.64 145.41 105.69 150.2 109.45 156.09 112.11 158.71 113.41 159.76 111.51 166.31 112.03 171.88 108.91 176.57 104.6 181.66 101.07 187.56 98.82 190.78 93.53 187.44 88.35 185.32 82.46"/><path class="cls-70" d="M85.33,82.91c4.48-.12,8,3.56,9.85,3.79S89.32,89.81,85.33,90s-10.8-2.22-10.8-2.22S77.34,83.13,85.33,82.91Z"/><path class="cls-71" d="M90.31,86.48A3.93,3.93,0,0,0,89,83.54a9.47,9.47,0,0,0-3.51-.63c-.53,0-1,0-1.51.1a3.89,3.89,0,0,0,.14,7,9,9,0,0,0,1.37,0,19.91,19.91,0,0,0,3.45-.57A3.92,3.92,0,0,0,90.31,86.48Z"/><path d="M84.83,83a2.27,2.27,0,0,0-.9.94,2.2,2.2,0,0,0,1.09,3,2.45,2.45,0,0,0,3.19-1,2.18,2.18,0,0,0-.63-2.73,8.29,8.29,0,0,0-2.13-.23Z"/><path class="cls-72" d="M87.18,84a.78.78,0,0,0-.24-1,7.44,7.44,0,0,0-1-.09h0a.84.84,0,0,0-.36.34.8.8,0,0,0,.4,1.1A.9.9,0,0,0,87.18,84Z"/><path class="cls-70" d="M47.87,86.83a15.74,15.74,0,0,0-8.8-2.63c-4.93.17-5.64,3.72-5.64,3.72s2.18,2.84,7.22,2.35S45.88,88.58,47.87,86.83Z"/><path class="cls-73" d="M38.64,84.23a3.43,3.43,0,0,0,0,6.06,11.33,11.33,0,0,0,2,0,18,18,0,0,0,2.61-.41,3.38,3.38,0,0,0,.13-5.09,13.91,13.91,0,0,0-4.32-.57Z"/><path d="M39.18,84.22h0a2.13,2.13,0,0,0-.41,3.13,2.5,2.5,0,0,0,3.35.38,2.12,2.12,0,0,0,.41-3.12l-.13-.14a12.35,12.35,0,0,0-2.91-.27Z"/><path class="cls-72" d="M40.11,84.21h0A.93.93,0,0,0,40,85.49a.86.86,0,0,0,1.24.16,1,1,0,0,0,.15-1.29l-.05,0a3.77,3.77,0,0,0-1.08-.11Z"/><path class="cls-74" d="M77.24,85.41s-.91,0-.24,1.94c.55,1.59.61,1.44.25,1.36-.57-.12-2.72-.9-2.72-.9S75.94,85.65,77.24,85.41Z"/><path class="cls-75" d="M70.74,71.5c3.36-2,16.12-5.17,24-.16s8.13,13.77,11.58,14.09c-3.13,2.19-8.16-8-12.84-10.64-9.54-5.33-26.56,1.56-27.54,2.51C64.31,78.85,67.39,73.45,70.74,71.5Z"/><path class="cls-76" d="M51.91,74.33c-3.6-5-7.51-5.5-12.83-5.5s-10.18,5-10.18,5-.78,3.91,0,5.16-.15-4.07,5.17-5.08,17,2.8,19.25,4.77C54.77,79.94,55.51,79.34,51.91,74.33Z"/></g></g></svg>