<svg xmlns="http://www.w3.org/2000/svg" xmlns:xlink="http://www.w3.org/1999/xlink" viewBox="0 0 182.03 211.69"><defs><style>.cls-1{fill:#101718;}.cls-2{fill:#8f8d8c;}.cls-3{fill:#60605f;}.cls-4{fill:#cdc7cf;}.cls-5{fill:#5b5359;}.cls-6{fill:#c5a090;}.cls-7{opacity:0.65;}.cls-8{fill:url(#linear-gradient);}.cls-9{fill:#c69080;}.cls-10{fill:url(#linear-gradient-2);}.cls-11{fill:#7b5960;}.cls-12{fill:#ba807e;}.cls-13{fill:url(#linear-gradient-3);}.cls-14{fill:#bb6555;}.cls-15{fill:#c98477;}.cls-16{fill:#e8e0e1;}.cls-17{fill:#54625e;}.cls-18{fill:#fff;}.cls-19{fill:#969498;}.cls-20,.cls-21{fill:#72696d;}.cls-20{stroke:#72696d;stroke-miterlimit:10;stroke-width:0.72px;}</style><linearGradient id="linear-gradient" x1="40.04" y1="30.77" x2="45.49" y2="30.77" gradientUnits="userSpaceOnUse"><stop offset="0" stop-color="#826168"/><stop offset="1" stop-color="#d3aa9d"/></linearGradient><linearGradient id="linear-gradient-2" x1="50.21" y1="137.55" x2="120.44" y2="137.55" gradientUnits="userSpaceOnUse"><stop offset="0" stop-color="#826168"/><stop offset="0.17" stop-color="#987172"/><stop offset="0.43" stop-color="#b4877e"/><stop offset="0.58" stop-color="#bf8f83"/><stop offset="0.7" stop-color="#c39385"/><stop offset="1" stop-color="#c99788"/></linearGradient><linearGradient id="linear-gradient-3" x1="41.46" y1="95.75" x2="64.38" y2="95.75" gradientUnits="userSpaceOnUse"><stop offset="0" stop-color="#c89384"/><stop offset="0.45" stop-color="#c98f84"/><stop offset="0.93" stop-color="#cb8282"/><stop offset="1" stop-color="#cc7f82"/></linearGradient></defs><title>JMornoe</title><g id="Layer_2" data-name="Layer 2"><g id="JamesMornoe"><path class="cls-1" d="M125.89,109.85c6-3.43,5.6-1.45,7-5.6,4.15,3.61-4.81,7.4-4.81,7.4s9.14-.36,7.88-9.21c4.11,2.89-2.77,11.2-5,12.28,6.28,2,9.79,12.65,9.11,15.72S145.75,163,144.67,172c3.61,6.32,4.7,6,7.77,11s5.23,13.18,11.37,16.07,8.31.05,12.29,5.78,5.93,6.84,5.93,6.84H0s36.71-47.48,48.61-42.06,63.55-58.34,70.41-59.06Z"/><path class="cls-2" d="M43.28,156.68c-.09.26-8,6.39-15,21.58a330.83,330.83,0,0,0-12.75,33.33l18.56.1s30.56-42.62,24.83-50S43.28,156.68,43.28,156.68Z"/><path class="cls-3" d="M30.59,179.15c2.62-7,7-16.7,13.3-24.21a12.32,12.32,0,0,1,1.47-.09,9,9,0,0,1,7.77,3.8c0,1.64-.89,9.07-12.15,31.71-5.11,10.29-10,17.21-12.32,21.32C27.08,212,23.07,199.13,30.59,179.15Z"/><path class="cls-4" d="M120.12,110.57c1.2,1-3.14,20-5.54,30.58s-24.81,45-32.76,53.7-15.65,16.83-15.65,16.83H39.68c0-2.33-4.09-23.81,3.13-23.09s6.26-.72,6.26-.72-4.33,0-4.33-5.54,2.89-4.58,2.89-4.58-6.21-.91-7.21-6.65c-.89-5.13-3.15-6.35,3.36-10.93S120.12,110.57,120.12,110.57Z"/><path id="inner" class="cls-5" d="M48.52,159s-8.7,3.61-4.59,7.22,14.77,11.44,24.34,1.33,7.49-19.15,7.49-19.15Z"/><path class="cls-5" d="M45.13,179.48a8.07,8.07,0,0,0-.38,2.43c5.11,2.05,11.87,3.92,13.89.54C56.16,183.38,49.83,181.38,45.13,179.48Z"/><path class="cls-5" d="M51.53,175.59c-3.22.35-8.54-3.16-11.23-5.12,0,.21.08.41.12.63.87,5,5.71,6.34,6.93,6.6a2,2,0,0,0-.69.06c8.92.5,22.68-1,23.49-6C67.21,175.23,56,175.1,51.53,175.59Z"/><path id="right" class="cls-4" d="M70.66,191.55c.82-.55,9.49-9.3,12.83-5.6s-2.08,16.43-7.23,15.17c3,1.81.45,6-2.16,4.15,1.71,2.08,1.44,5.24-1.18,3.43,1.63,1.59.18,1.59-.36,1.59H54.32s-6.68.13-4.25-7S70.66,191.55,70.66,191.55Z"/><path id="left" class="cls-4" d="M49.58,187.12S44.52,177,36.82,178.69s-5.54,5.54-4.34,8.43-6.26-1.21-3.13,7.94-2.8,11.7-3.43,16.62H45.54S54.4,198.68,49.58,187.12Z"/><path class="cls-5" d="M35.91,178.38c-8.86,1.78-6.37,5.84-5,8.89s-7.2-1.27-3.6,8.37,3.91,14.77,4.14,12.47c.73-7.36-4.08-13.25-1.26-16.52s-.16-4.87,2-8.86,9.9-2.08,12.28,2.13c1.35,2.4,4.6,11.25,5.44,19.56,1.94-5,3.29-11.32.64-17.15C50.58,187.27,44.76,176.6,35.91,178.38Z"/><path id="middle" class="cls-4" d="M53.63,192.18s-6.19-2.94-9.12,2.28-.32,11.72,4.56,11.72,15.31-12.37,15.31-12.37S62.75,189.9,53.63,192.18Z"/><path class="cls-5" d="M49.07,204a3.28,3.28,0,0,1-2.84-1.8,6.87,6.87,0,0,1,.17-6.7,3.63,3.63,0,0,1,3.43-2,7.8,7.8,0,0,1,2.88.62l.7.33.75-.19a19.26,19.26,0,0,1,4.57-.65,16.58,16.58,0,0,1,4.21,1.19C57.43,201,50.79,204,49.07,204Z"/><path class="cls-5" d="M53.62,199a55.61,55.61,0,0,0,2,8.65c1.1,4.06,10.77-.48,12.7-3.59s-1-2.18-.73-5.25S75,197,76.08,196.53c3.56-1.62,1-5-3.2-6.89-1.16,1-2,1.76-2.22,1.91C70.66,191.55,59.64,194.35,53.62,199Z"/><path id="skin" class="cls-6" d="M78.35,156.24S67.87,166.35,63.9,166.35s-15.54-.84-19.15-5.06S38,153.23,38,153.23s-8.27-3.67-11.88-17.39-4.38-15.12-4.38-15.12-5.13-6.18-4.45-20.11a45.53,45.53,0,0,1-4.7-11.2l8.07-47.56s24.4-29.2,35.47-29.08,29.22-.41,40.39,4.88c13.58,6.43,28.71,70.58,25.52,92.35-.1.73-2.22,6.62-4.09,7.83a42.54,42.54,0,0,1-4.33,2.47c-1.81,2.64-10.72,16.19-10.72,16.19s-11.56,9.39-14,12.16-5.42,6.62-10.59,7.59"/><g class="cls-7"><path class="cls-8" d="M45.49,29.68A27.84,27.84,0,0,0,40,31.86l.3,0Z"/></g><path class="cls-9" d="M41.07,80.67c0-.28-.58,3.19-2.69,3.66s-6.56,0-7.73-1.64-.74-2.78.82-5c.87-1.24.45-1.24-1.76,0-2.94,1.64-2.81,5.08-1.75,7s4.15,4,8.31,2.81C41.89,85.92,41.89,85.92,41.07,80.67Z"/><path class="cls-9" d="M37.33,48.26c.78,0,10,2.52,15.59,1.62s21.56-9.39,29-4.7l7.46,4.7s-7.94-6-14.45-5.06-17.09,4.86-22,6.4c-3.33.57-9.76-.22-14.15-1.66-4.69-1.53-8.65-2.89-10.05-3.83Z"/><path class="cls-9" d="M37.41,54c.58.08,7.27,2.17,11.48,2.26S68.8,51,71.55,50.87A14.39,14.39,0,0,1,80,54.43s-5-2.89-8.38-2.89c-4.88-.18-19.22,6.38-22.84,5.91a57.76,57.76,0,0,1-17.57-5.51Z"/><path class="cls-9" d="M39.3,76.14c-1.5-3.4-7-5-10.58-4-4.22,2.51-3.3,6.27-3.15,9.09.26,4.82-.93,5.66-.93,5.66a20.48,20.48,0,0,0,2.1-5.11c.34-2.35.66-5.43,3.36-6.11C33.52,74.87,36,75.55,39.3,76.14Z"/><path class="cls-9" d="M71,112.83s-1.42,2.63,3.56,12.91a25.54,25.54,0,0,0,6.47,7A62.1,62.1,0,0,0,76.76,125,70.41,70.41,0,0,1,71,112.83Z"/><path class="cls-9" d="M65.91,80.25S69.72,87,75.13,87s6.81-.65,8.43-2.1,2-5.48,2-5.48c-2.46.59-5.16,4.78-10.66,3s-6.68-2.19-6.68-2.19Z"/><path class="cls-10" d="M113.54,121.46a38.28,38.28,0,0,0,4.34-2.47c.88-.56,1.81-2.17,2.56-3.78-5.38-1-7.28-9.16-7.63-7.37-1,5.3-7.09,15.13-9.14,13.32s-3.31-4.33-8.79-.12,1.93.12,2.65,8.43c.51,5.81-8.81,15.91-13.72,21.13.7-1.3.27-2.49.71-4.1.81-3,1.73-6.83,1.73-6.83l4.54-9.36a62.47,62.47,0,0,0-5.18,8c-2.86,5.14-1.57,8.7-6.13,11.47s-3.62,4.57-6.82,7.24S67,164.69,67,164.69c-.45,2.77-2.73-2.35-6.71,0s-10.11,0-10.11,0a8.44,8.44,0,0,0,2.31,1.54,54.88,54.88,0,0,0,11.3,1.29c4,0,14.45-10.12,14.45-10.12,5.17-1,8.18-4.81,10.59-7.58s14-12.16,14-12.16S111.74,124.11,113.54,121.46Z"/><path class="cls-9" d="M63.94,75.69a2.5,2.5,0,0,0,2.63-2.16c.7-2.62,1.4-6.59,4.83-6.6,4.3,0,16.95,6.6,18.79,9.21l-6.13-3.63S75.38,71,71.47,72.45C69.7,74.16,67.8,76.32,63.94,75.69Z"/><path id="red_eye" data-name="red eye" class="cls-11" d="M65.27,79.77c0,1.33,3.34.74,3.34.74a4.81,4.81,0,0,1,2-3.36c2.48-3.05-2.66,1.75-2.66,1.75Z"/><path class="cls-6" d="M126,69c5.06-2.65,13.25-3.14,16.38,6.5s-3.62,17.1-3.62,17.1a7.15,7.15,0,0,1-4.16,7c-4.75,2.36-10,9.58-10.29,10.54s-3.37,7.47-8.91,5.3.49-10.83-1.44-16.85S126,69,126,69Z"/><path class="cls-12" d="M126.93,73.12c.42-.24,6.32-4.93,10.41-1s3.19,6.38,3.19,6.38-1.18-4.91-4.19-5.69-8.39,1.49-9.41,3.8S126.93,73.12,126.93,73.12Z"/><path class="cls-12" d="M133.41,79.55c2.1,2,1.9,4.29,1.27,6.24s-3.25,6.06-5.06,6.56-5,1.09-6,2.51c0,0,.36-1.92,3.43-3.34s4.43-2.08,5-5.73.45-5.82-1.54-7.16S131.31,77.58,133.41,79.55Z"/><path class="cls-12" d="M138.2,77.2c.24,0,3.47,3,2,6.69s-3.88,10.52-6.05,12c-1.2.8-6,.8-7.1,1.93,0,0,.8-.88,4.51-2.58s3.41-2.13,4.84-6.29c.81-2.34,3.47-5.72,2.83-8.6S138.2,77.2,138.2,77.2Z"/><path class="cls-12" d="M118,91.66c-.87-.22,3.88.9,2.35,3.43s-4.52,2-4,3.8a5.18,5.18,0,0,0,2.15,2.73A3.36,3.36,0,0,1,120,98C122,96.79,123.92,93.1,118,91.66Z"/><path class="cls-12" d="M128.34,104.81a11.86,11.86,0,0,0-2.57.1c-5.21.8-6,9.63-9.27,9.39s-1.57-3.49-1.57-3.49a10.08,10.08,0,0,0-1.77,2,3.4,3.4,0,0,0,2.26,2.61c5.54,2.17,8.67-4.33,8.91-5.3A26.15,26.15,0,0,1,128.34,104.81Z"/><path class="cls-13" d="M45.49,71.67c.39.61,3.4,8.31,1.83,14s-2.77,22.76-5.18,24.93,2,10.35,6.14,9.15,9-7.23,11.8-4.7,6.51-3.85,2.65-7.22-9.62,1-9.81.36c-.07-.23,0-5-.26-11C52.2,87.07,50.76,73.33,46,71.67"/><path class="cls-14" d="M70.15,128.43a35.28,35.28,0,0,1-3.83,0c-2.14-.18-12.28-.64-12.28-.64L50.31,129l-2.65-.58-6.74,1.63-3.5-.41.73.6C48.1,134.74,59.72,132.36,70.15,128.43Z"/><path class="cls-15" d="M38.15,130.28c.88.72,2.33,1.89,3,2.32,3.2,2.23,5.35,2.75,9.69,3.22S71,128.4,71,128.4l-.87,0C59.72,132.36,48.1,134.74,38.15,130.28Z"/><path id="white" class="cls-16" d="M76.91,74.63c5.19-.71,7.3,2.21,7.64,4s-1,4.17-6.63,4.22c-5,0-6.7,0-9.65-2.62C70.28,76.1,72.49,75.23,76.91,74.63Z"/><path id="green" class="cls-17" d="M81.94,76.56a3.92,3.92,0,0,0-.26-1.37,8.28,8.28,0,0,0-4.77-.56,24,24,0,0,0-2.51.44,3.92,3.92,0,1,0,7.54,1.49Z"/><path d="M76.91,74.63l-.57.08a2.21,2.21,0,0,0-.26,1,1.94,1.94,0,1,0,3.88,0,2.15,2.15,0,0,0-.31-1.13A10.12,10.12,0,0,0,76.91,74.63Z"/><path class="cls-18" d="M76.41,74.7a.75.75,0,0,0,0,.26.69.69,0,1,0,1.23-.41c-.22,0-.45,0-.68.08Z"/><path class="cls-16" d="M34.66,76.41c-2.06.47-3.33.89-4.4,4s3.74,4.11,6.17,3.83,5.54-4,5-5.33S36.71,75.94,34.66,76.41Z"/><path class="cls-16" d="M34.66,76.41c-2.06.47-3.33.89-4.4,4s3.74,4.11,6.17,3.83,5.31-2.34,5-5.33C40.79,77.56,36.71,75.94,34.66,76.41Z"/><path class="cls-17" d="M40.17,77.77a9.24,9.24,0,0,0-5.25-1.4A3.4,3.4,0,1,0,40.42,79,3.33,3.33,0,0,0,40.17,77.77Z"/><path d="M38.89,77.12a9.94,9.94,0,0,0-2.19-.67,2.21,2.21,0,0,0-1.27,1.41,2,2,0,0,0,3.81,1A2.06,2.06,0,0,0,38.89,77.12Z"/><circle class="cls-18" cx="36.64" cy="76.83" r="0.37"/><path class="cls-19" d="M64.38,64.73A4.07,4.07,0,0,1,69.44,63c1.63.54,4.34-2.89,6.86-2.89s10.12,1.27,10.12,1.27l-4.34,1,3.44.75s-7.41,1.7-8.67,1.58-2.17-1-5.24,0-5.42.23-7.23,2.94S61.86,69,64.38,64.73Z"/><path class="cls-19" d="M43.3,67.89c-1.22-2.2-2.31-2.12-4.68-3.08a25.28,25.28,0,0,0-7.71-1.65c-2.53,0-8.71,2.21-8.71,2.21a34.1,34.1,0,0,0,4.56-.31,17.42,17.42,0,0,1,4.38-.14c2.92.1,3.21.54,6.28,1.49,2.46,1.54,5.19,3.3,6.11,3.9C45.71,72.57,45.39,71.67,43.3,67.89Z"/><path class="cls-18" d="M98.85,41.45c-1.2-1,1.69-6-.24-9.13A19.57,19.57,0,0,0,93.16,27s7.5-1.44,6.9-3.53-10-.68-10-.68,5.17-2.89,1.32-2.86c-2.17,0-3.46,2.06-4.21,3.95a26.64,26.64,0,0,0,4.69,4.51c1.45,8.43,6.5,3.38,5.54,9.64-.65,4.23-.31,5.83,1.55,8a37.57,37.57,0,0,0,4.38-.22C101.64,45.33,99.89,42.28,98.85,41.45Z"/><path class="cls-18" d="M99.46,54.18s8.31.66,10.35,3.3S99.46,54.18,99.46,54.18Z"/><path class="cls-18" d="M100.18,57.48s8.31.66,10.35,3.3S100.18,57.48,100.18,57.48Z"/><path class="cls-18" d="M103.34,61.3s8.3.66,10.35,3.3S103.34,61.3,103.34,61.3Z"/><path class="cls-18" d="M114,84.74s-4.58-1.68-5.06-1c-.35.53,3,4.28,6.29,5.78a11.19,11.19,0,0,1-1.34-2.06s-3.39-2-3.16-2.7,4.85,1.54,4.85,1.54l-.74-2-2.31-4,2.67.57-4.82-2.17Z"/><path class="cls-18" d="M111.62,75.11l3.61,5.78-2.07-4.75a8.43,8.43,0,0,0,4.12-.49c2.16-.84-.73-5.66-1.67-6.59a4.38,4.38,0,0,0-3.92-.49c2.71,3.54,5,6.06,5,6.06Z"/><path id="hair" class="cls-19" d="M84.89,19.54S75,31.1,66.34,33.26a62.23,62.23,0,0,0-15.41,6.27s-1.68-4.58,3.13-10A35.22,35.22,0,0,0,62,14.72c1-3.85-13.24,16.38-14,20s-7.7-2.89-7.7-2.89a18.29,18.29,0,0,0-11.8,5.78c-5.06,5.54-7.47,18.54-7.71,21.91s-5.3,14.21-5.06,20.71-1.7,15.76,0,19.32-7.7,4.15-6,0,2.89-3.66,2.89-3.66-8.18.24-5.05-4.34,3.85-1.92,3.85-1.92-6.26-3.14-6-3.86a38.7,38.7,0,0,1,6.26-7.22c1.69-1.21,1.93-7.47,1.93-7.47L8.79,74s-.24-7.46,4.58-10.83S11.2,49.64,18.66,39.28c4.58-6,9.64-5.77,9.64-5.77S24,32.06,24.92,29.65c-.48-6.74,4.1-3.37,4.1-3.37s-7.47-1.44-2.89-5.78,6.74-2.41,6.74-2.41-.72-5.29,2.41-6.5,5.78,2.17,5.78,2.17-.47-1.16,4.09-2.43,5.65.92,5.78,1S46.36,9.66,49,7,53.1,7,53.1,7,51.65,2.44,59.36,2.2s2.17,5.3,2.17,5.3,3.61-1.45,4.57,1S64.18,3.16,67.79,1s8.67,0,8.67,0,0-1.21,3.37-1a6.92,6.92,0,0,1,5.06,2.89s7-2.41,10.59,0,7.71,2.65,9.4,7,2.4.72,6.26,2.64,4.09,4.34-1.21,6c0,0,7.23-3.61,8.91-1.2s-3.61,4.34-3.61,4.34c8-1,10.36-2.17,12.28-.25s-1.44,8.19-7,8.91C129.2,28.69,129,21,130.64,24.6s-1.68,7.46-5.54,7.7,9.56-1.44,6,2.41c4.13,2.65,3.89,7.95,3.89,7.95s3.61,2.19,4.81,8.56-6.74,1.07-6.74,1.07,8.4,18.79,4.45,16.41c-2.25-1.35-10.63-1.92-11.35,1.69s8.35,9.35,8.35,9.35l2.89,2.17s-10.84-.24-12.53-5.54c0,0,2.65,7.71,7,8.43-5.54,2.65-10.6-5.54-10.6-5.54,5.3,10.11,7.71,9.87,7.71,9.87s-6.75-.48-10.36.73-10.11-5.54-9.63-6.27,5.06,1,5.06,1l-3.62-6,4.82,2.17-3.61-5.78,5.06-.49s-15.42-17.09-14-24.8c-5.06-5.06-6.26-5.54-5.3-11.8s-4.09-1.2-5.54-9.63C85.61,23.39,84.89,19.54,84.89,19.54Z"/><path id="hair-2" data-name="hair" class="cls-19" d="M84.89,19.72S75,31.28,66.34,33.45a62.43,62.43,0,0,0-15.41,6.26s-1.68-4.57,3.13-10A35.22,35.22,0,0,0,62,14.91c1-3.85-13.24,16.37-14,20S40.34,32,40.34,32a18.29,18.29,0,0,0-11.8,5.78c-5.06,5.53-7.47,18.54-7.71,21.91s-5.3,14.21-5.06,20.71-1.7,15.76,0,19.32-7.7,4.15-6,0,2.89-3.67,2.89-3.67-8.18.24-5.05-4.33,3.85-1.93,3.85-1.93-6.26-3.13-6-3.85a39,39,0,0,1,6.26-7.23c1.69-1.2,1.93-7.46,1.93-7.46L8.79,74.15s-.24-7.47,4.58-10.84S11.2,49.83,18.66,39.47c4.58-6,9.64-5.78,9.64-5.78S24,32.25,24.92,29.84c-.48-6.74,4.1-3.37,4.1-3.37S21.55,25,26.13,20.69s6.74-2.41,6.74-2.41-.72-5.3,2.41-6.5S41.06,14,41.06,14s-.47-1.16,4.09-2.43,5.65.92,5.78,1S46.36,9.85,49,7.2s4.09,0,4.09,0-1.45-4.57,6.26-4.81,2.17,5.29,2.17,5.29,3.61-1.44,4.57,1-1.92-5.3,1.69-7.47,8.67,0,8.67,0,0-1.2,3.37-1a6.92,6.92,0,0,1,5.06,2.89s7-2.41,10.59,0,7.71,2.65,9.4,7,2.4.72,6.26,2.65,4.09,4.34-1.21,6c0,0,7.23-3.61,8.91-1.2s-3.61,4.33-3.61,4.33c8-1,10.36-2.17,12.28-.24s-1.44,8.19-7,8.91c8.67-1.68,8.43-9.39,10.11-5.78s-1.68,7.47-5.54,7.71,9.56-1.45,6,2.41c4.13,2.65,3.89,7.94,3.89,7.94s3.61,2.2,4.81,8.56-6.74,1.08-6.74,1.08,8.4,18.78,4.45,16.41c-2.25-1.36-10.63-1.93-11.35,1.69s8.35,9.35,8.35,9.35l2.89,2.17s-10.84-.24-12.53-5.54c0,0,2.65,7.7,7,8.43-5.54,2.64-10.6-5.54-10.6-5.54,5.3,10.11,7.71,9.87,7.71,9.87s-6.75-.48-10.36.72S108.49,84.5,109,83.78s5.06,1,5.06,1l-3.62-6,4.82,2.17-3.61-5.78,5.06-.48s-15.42-17.1-14-24.8c-5.06-5.06-6.26-5.54-5.3-11.8s-4.09-1.21-5.54-9.64C85.61,23.58,84.89,19.72,84.89,19.72Z"/><path class="cls-20" d="M83,9.54C82.6,14.72,73.21,24,73.21,24s3.61-4.33,2-5.78-6.5,5.66-9.34,10.12l-2.5,3.61s7.75-5.66,6.19-2.65a16.62,16.62,0,0,1-3.78,4.12l.52-.15C73.49,31.48,81.46,23.31,84,20.5a42,42,0,0,0,2.22-11S83.32,4.37,83,9.54Z"/><path class="cls-21" d="M29.38,30.86c-1.81-.49-2.4-3.9-.66-3.38s10.29-4,7.06-2.88a11.33,11.33,0,0,1-7.06,0c-1.27-.37,5.24-1.69,2.58-2.29-1.75-.4-1.31-2.29-1.07-4.46a10.43,10.43,0,0,0-4.1,2.65c-2.7,2.55-1.21,4.1.46,4.95-1,.1-1.89,1-1.67,4.2-1,2.41,3.38,3.86,3.38,3.86a9,9,0,0,0-3.49.79,4.62,4.62,0,0,0,2,.86c3.11.35,12-6.23,12-6.23C38,29.48,31.19,31.34,29.38,30.86Z"/><path class="cls-21" d="M7.59,91.54c-2.79,4.08,3.4,4.33,4.78,4.34-.44.09-1.4.68-2.62,3.66-1.47,3.63,5.54,3.63,6.17,1.19-1,.41-1.95,1.17-3.57-.09s2-5.61,2.06-6.54-3.88-.63-4.42-2.17,3.13-3.16,3.78-4.06-5.41-3.16-5.41-3.16a30.41,30.41,0,0,0,4.25-2.38C16,80.23,16,71.7,16.85,68.22s-5,2.61-5,2.61-.63.87,1.09-3.19,5.14-2.26,5.14-10c0-4.76,2.43-26.07-2.26-12.69-2.48,8.2,1.45,15.44-2.48,18.2C8.55,66.5,8.79,74,8.79,74l4.82-2.89s-.24,6.26-1.93,7.47a38.7,38.7,0,0,0-6.26,7.22c-.17.51,2.89,2.22,4.71,3.18A6.78,6.78,0,0,0,7.59,91.54Z"/><path class="cls-21" d="M40.42,30.76c-2.3-.09-11.72,3.71-15.14,7.9s-5.37,19.78-6.54,24.06a41.19,41.19,0,0,0-1.26,8c1.41-4.73,3.21-9.28,3.35-11.26.24-3.37,2.65-16.37,7.71-21.91a18.29,18.29,0,0,1,11.8-5.78s7,6.5,7.7,2.89a6.17,6.17,0,0,1,.4-1.11C47,31.48,42.32,30.84,40.42,30.76Z"/><path class="cls-21" d="M124.08,76.45a7.5,7.5,0,0,0,2.22,3.3,24.11,24.11,0,0,1-1.44-3.19c1.23,3.87,7.35,5,10.56,5.39a58.18,58.18,0,0,1-7.3-4.14c-2.28-1.92-10.45-18.06-5.67-14.93s14.11-2,8.76-.18-17.73-8.78-14.44-2.62c.81,1.54,7.94,13.82,6.89,12.38s-6.08-4.34-4.54-2.71S122,77.81,122,77.81s-4.3-2.73-4.21.58a88.33,88.33,0,0,0,1.36,10,10.48,10.48,0,0,1-3.77,1.26,4.59,4.59,0,0,0,3.25.43c2.8-.93,7.45-.85,9.42-.77-6.73-1.79-8.59-9.88-8.59-9.88s.35-.55,2.24.84q-.21-.37-.42-.78s.25.39.69,1a38.65,38.65,0,0,1,4.23,4l.2.12C121.83,78.18,121.84,69.31,124.08,76.45Z"/><path class="cls-21" d="M51.75,13.49c-.19-.73-2.53-3.8-.82-6.25s2.62,3.27,2.89,1.37-.92-2,2.27-4.36c3.09-1.33,6.1-.69,7,1.35.78-1.54.78-3.35-3.7-3.21C51.65,2.63,53.1,7.2,53.1,7.2S51.65,4.55,49,7.2c-1.64,1.64-.52,3.28.58,4.29a6.64,6.64,0,0,0-4.44,0C40.59,12.79,41.06,14,41.06,14s-2.65-3.38-5.78-2.17a3,3,0,0,0-1.21.85,24.6,24.6,0,0,0,3.32.59c3.55.3,3.07,3.16,4.07,1.89s1.89-1,4.42-2.53S51.93,14.21,51.75,13.49Z"/><path class="cls-21" d="M106.8,21.48l-.72.1A1.8,1.8,0,0,0,106.8,21.48Z"/><path class="cls-21" d="M125.39,22.55c1.64,1.92-2.81,6.86-2.81,6.86a4.4,4.4,0,0,0,.71.27c3.82-2,5.8-6.45,4.22-8-1.92-1.93-4.33-.72-12.28.24,0,0,5.3-1.92,3.61-4.33-1-1.49-4.2-.68-6.46.16,2.62-1.55,1.87-3.42-1.24-5-3.83-1.91-4.57,1.63-6.23-2.56-2,2.21-1.72,3.76-1.72,3.76s1.2-2.71,2.77-1-2.29,3.25-2.29,3.25,4-.91,4.79-2.71c-.1.89-.21,2-.21,2,1.8-.35,5.29-.83,2.53,2.78-1.76,2.3-3.18,3-4,3.27,1.69-.27,5.8-1.05,6.22-2.42.52-1.73,4.86-2.9,3.66-.67A38.52,38.52,0,0,1,113,23.51S123.74,20.62,125.39,22.55Z"/><path class="cls-21" d="M126.14,32.32c3.39-.78,6-4.26,4.5-7.54s-1.47,2.37-7.3,4.92c1.42.42,4.41.79,5.5-3.19C130.17,21.64,131.49,27.93,126.14,32.32Z"/><path class="cls-21" d="M135,42.84s.24-5.29-3.89-7.94c2.27-2.45-2.32-2.66-5-2.55a15.19,15.19,0,0,1-1.5,1.06c6.08-.66,10.26,7.2,8.92,8.52,0,2.65,4.57,3.68,4.45,8.94s-6.63-.11-6.63-.11,6.39,12,5.3,15.23c-3.85-2-4-1.42-4-1.42s3.19,1.7,3.76,3.87a5.59,5.59,0,0,1,1.05.45c3.95,2.37-4.45-16.41-4.45-16.41s7.95,5.29,6.74-1.08S135,42.84,135,42.84Z"/><path class="cls-18" d="M52.26,38.38C51.84,35,62.31,20.86,63.76,16.29s-2.39-2.32-2.49-1.4c.61-.58.91-.66.74,0a35.22,35.22,0,0,1-7.95,14.81c-4.81,5.42-3.13,10-3.13,10s.5-.3,1.37-.77C52.3,38.77,52.28,38.59,52.26,38.38Z"/></g></g></svg>