<svg xmlns="http://www.w3.org/2000/svg" xmlns:xlink="http://www.w3.org/1999/xlink" viewBox="0 0 174.09 248.99"><defs><style>.cls-1{fill:#c5c8c2;}.cls-2{fill:url(#linear-gradient);}.cls-3{fill:url(#linear-gradient-2);}.cls-4{stroke:#000;stroke-miterlimit:10;stroke-width:0.58px;}.cls-5{fill:#af7d4b;}.cls-6{fill-opacity:0.49;fill:url(#linear-gradient-3);}.cls-7{fill:#844e23;}.cls-8{fill:url(#linear-gradient-4);}.cls-9{fill:#e1d6c4;}.cls-10{fill:#c9c0b3;}.cls-11{fill-opacity:0.39;fill:url(#linear-gradient-5);}.cls-12{fill:url(#linear-gradient-6);}.cls-13{fill-opacity:0.68;fill:url(#linear-gradient-7);}.cls-14{fill:#ab5c4d;}.cls-15{fill-opacity:0.77;fill:url(#linear-gradient-8);}.cls-16{fill-opacity:0.51;fill:url(#linear-gradient-9);}.cls-17{fill:#cd9d94;}.cls-18{fill:#bc7d71;}.cls-19{fill:#3a2110;}.cls-20{fill:#bf976f;}.cls-21{fill:url(#linear-gradient-10);}.cls-22{fill:url(#linear-gradient-11);}.cls-23{fill:#835e38;}.cls-24{fill:#fff;}.cls-25{fill:#ede6dc;}.cls-26{fill:url(#linear-gradient-12);}.cls-27{fill:url(#linear-gradient-13);}.cls-28{fill:url(#linear-gradient-14);}.cls-29{fill:url(#linear-gradient-15);}.cls-30{fill:url(#linear-gradient-16);}</style><linearGradient id="linear-gradient" x1="125.94" y1="215.46" x2="148.9" y2="215.46" gradientUnits="userSpaceOnUse"><stop offset="0" stop-color="#5f4b3d"/><stop offset="0.47" stop-color="#574233"/><stop offset="1" stop-color="#543e2f"/></linearGradient><linearGradient id="linear-gradient-2" x1="26.29" y1="223.53" x2="32.45" y2="223.53" xlink:href="#linear-gradient"/><linearGradient id="linear-gradient-3" x1="95.02" y1="134.56" x2="95.02" y2="91.54" gradientUnits="userSpaceOnUse"><stop offset="0" stop-color="#af7d4b"/><stop offset="0.48" stop-color="#9c6839"/><stop offset="0.99" stop-color="#844e23"/></linearGradient><linearGradient id="linear-gradient-4" x1="91.51" y1="144.9" x2="99.4" y2="144.9" gradientUnits="userSpaceOnUse"><stop offset="0" stop-color="#844e23"/><stop offset="0.33" stop-color="#8f5a2d"/><stop offset="0.93" stop-color="#ab7948"/><stop offset="1" stop-color="#af7d4b"/></linearGradient><linearGradient id="linear-gradient-5" x1="60.62" y1="172.55" x2="129.03" y2="172.55" gradientUnits="userSpaceOnUse"><stop offset="0" stop-color="#a39d93"/><stop offset="0.99" stop-color="#aaa59b"/></linearGradient><linearGradient id="linear-gradient-6" x1="64.88" y1="61.68" x2="98.92" y2="2.72" gradientUnits="userSpaceOnUse"><stop offset="0" stop-color="#9a6e4b"/><stop offset="0.19" stop-color="#986b48"/><stop offset="0.36" stop-color="#92633d"/><stop offset="0.52" stop-color="#89552c"/><stop offset="0.99" stop-color="#844e23"/></linearGradient><linearGradient id="linear-gradient-7" x1="75.72" y1="105.27" x2="75.72" y2="49.89" gradientUnits="userSpaceOnUse"><stop offset="0" stop-color="#8d5a32"/><stop offset="0.32" stop-color="#996c48"/><stop offset="0.45" stop-color="#966742"/><stop offset="0.62" stop-color="#8c5a32"/><stop offset="0.71" stop-color="#855025"/><stop offset="1" stop-color="#946540"/></linearGradient><linearGradient id="linear-gradient-8" x1="89.76" y1="83.33" x2="89.76" y2="85.77" gradientUnits="userSpaceOnUse"><stop offset="0" stop-color="#ab5c4d"/><stop offset="1" stop-color="#8d3c2d"/></linearGradient><linearGradient id="linear-gradient-9" x1="90.11" y1="85.21" x2="90.11" y2="88.43" gradientUnits="userSpaceOnUse"><stop offset="0.01" stop-color="#8d3c2d"/><stop offset="0.73" stop-color="#a15f52"/><stop offset="1" stop-color="#a96d61"/></linearGradient><linearGradient id="linear-gradient-10" x1="82.52" y1="61.32" x2="89.35" y2="61.32" gradientUnits="userSpaceOnUse"><stop offset="0" stop-color="#844e23"/><stop offset="0.23" stop-color="#865127"/><stop offset="0.47" stop-color="#8d5b33"/><stop offset="0.5" stop-color="#8e5d36"/><stop offset="1" stop-color="#9b704d"/></linearGradient><linearGradient id="linear-gradient-11" x1="104.84" y1="63.23" x2="104.84" y2="51.94" gradientUnits="userSpaceOnUse"><stop offset="0" stop-color="#956742"/><stop offset="0.56" stop-color="#aa8567"/><stop offset="0.58" stop-color="#ab8769"/><stop offset="0.71" stop-color="#a67f5f"/><stop offset="0.93" stop-color="#986945"/><stop offset="1" stop-color="#92613b"/></linearGradient><linearGradient id="linear-gradient-12" x1="67.46" y1="57.35" x2="82.8" y2="57.35" xlink:href="#linear-gradient-11"/><linearGradient id="linear-gradient-13" x1="118.38" y1="64.36" x2="126.75" y2="64.36" gradientUnits="userSpaceOnUse"><stop offset="0.01" stop-color="#844e23"/><stop offset="0.46" stop-color="#89552c"/><stop offset="0.51" stop-color="#915d32"/><stop offset="0.66" stop-color="#a26f40"/><stop offset="0.82" stop-color="#ac7a48"/><stop offset="1" stop-color="#af7d4b"/></linearGradient><linearGradient id="linear-gradient-14" x1="59.86" y1="66.25" x2="64.33" y2="66.25" gradientUnits="userSpaceOnUse"><stop offset="0" stop-color="#af7d4b"/><stop offset="0.34" stop-color="#a26f40"/><stop offset="0.8" stop-color="#89552c"/><stop offset="0.99" stop-color="#844e23"/></linearGradient><linearGradient id="linear-gradient-15" x1="60.94" y1="75.13" x2="62.7" y2="75.13" gradientUnits="userSpaceOnUse"><stop offset="0" stop-color="#e0dedb"/><stop offset="0.9" stop-color="#e1d7c6"/><stop offset="0.99" stop-color="#e1d6c4"/></linearGradient><linearGradient id="linear-gradient-16" x1="117.91" y1="75.13" x2="119.67" y2="75.13" gradientUnits="userSpaceOnUse"><stop offset="0" stop-color="#e1dfdc"/><stop offset="0.48" stop-color="#e1d7c7"/><stop offset="0.54" stop-color="#e1d6c4"/><stop offset="1" stop-color="#e1d6c4"/></linearGradient></defs><title>malia</title><g id="Layer_2" data-name="Layer 2"><g id="_MaliaObama" data-name=" MaliaObama"><path class="cls-1" d="M37.32,125.41C22,129.16,4.17,149.73,1.22,162.31c-2.63,11.23-.22,76.41.06,79.58s166.36,0,166.36,0,8.94-45.27,5.77-62.28a48,48,0,0,1-.58-7.21c0-.91-3.17-5.47-3.17-5.47s-.29-8.08-4.9-14.42S52.61,121.66,37.32,125.41Z"/><path class="cls-2" d="M145.16,185.38l1.73,18.16s-4.33,11-6.35,15.28-7.36,9.23-8.15,12.4-.21,5.33-1.7,8.21-5.7.66-4.55,3.87,9.43,2,9.43,2-2.66-10.09,0-13,5.84-5.76,6.13-9.8,7.2-18.74,7.2-18.74Z"/><path class="cls-3" d="M27.52,198.06c-.58.87-1.44,15.33,0,23.67s3.25,22.47-.39,26.21,5.87-3.17,5.29-10.66S29.49,223.44,29.37,218,27.52,198.06,27.52,198.06Z"/><path class="cls-4" d="M31.72,128.08c-2.14,0-13.88,5.68-15.22,15.1s0,14.5,0,14.5,1-12.87,5.58-17.49,5-5.63,5-5.63-4.48,11.69,4.63,21.2c0,0-9.28-18.63,0-22.39,3.07-1.25,11.7-3.27,11.7-3.27Z"/><path class="cls-5" d="M115,82.45c.58,1.15-7.21,39.79-2.31,46.42s9.82,6.34,9.82,6.34-10.26,17.3-30.36,14.13-40-18.74-41.45-30c0,0,15.86,13,16.44,4.62s5.19-40.37,3.17-45.85S115,82.45,115,82.45Z"/><path class="cls-6" d="M79.31,99.82c.22.19,1.71,31.71,7.4,34.6s19.14-37.18,23.64-41.81S79.31,99.82,79.31,99.82Z"/><path class="cls-7" d="M116.32,82.45s-1.9-.4-4.92-1C99.85,83.1,82.89,87,71.9,89.69c-.24,3.75-2.9-5.14-3.34-.9,6.88,8.8,16.31,15,21.49,16.48,13.63,3.81,21.62-9.92,28.54-24.49C119.58,73.76,116.53,82.87,116.32,82.45Z"/><path class="cls-8" d="M91.51,154.91c.51-1,7.72-21.22,7.72-21.22s.92,18.53-1.51,21.22S91.51,154.91,91.51,154.91Z"/><path class="cls-9" d="M91.82,149.05c11,.47,26.23.58,31.71-14.13s8.07,0,8.07,0S123,162.6,93.26,160.29,39.63,118.2,37.32,111.86c0,0,9.81-4.62,10.67-4.9S65.84,147.93,91.82,149.05Z"/><path class="cls-10" d="M124.45,134.92c-5.48,14.71-20.74,14.6-31.72,14.13-26-1.12-43-42.38-43.82-42.09-.11,0-.36.14-.72.29,4.49,16.36,15.42,43.21,39.5,47.57,12.6,2.28,25.25-.77,36.45-6a41.68,41.68,0,0,0,8.38-13.94S129.93,120.22,124.45,134.92Z"/><path id="hair_shadow" data-name="hair shadow" class="cls-11" d="M103.68,148.86s-7.18,21.53-8.22,27.29-10.1,12.69-34.84,13.26c0,0,29.37,1.73,37.06-4,0,0-21.72,8.07-33.25,7.21,0,0,27.39,1.22,32.86-4,0,0-.54,12.94,5.21,18.42,0,0-5.26-7.32-1.48-15.77s18.86-19.94,18.86-19.94S118,185.09,113,188c0,0,12-10.09,10.57-19.31,0,0-2.59,16.72,4.33,20.18,0,0-7.5-12.11-1.16-20.76s-2.29-30-2.29-30l-21.3,10.77"/><path class="cls-5" d="M94,13c22.2-.15,31,16.59,30.39,37.87S108.47,99,99.48,103.08c-5.79,2.89-12.7,3.38-21.34-3.32-6.49-5.52-10.76-9.05-15.3-20.94C58.13,66.48,53.77,13.24,94,13Z"/><path class="cls-12" d="M115.31,13.54S103.76,30.7,90.07,37.76,66.37,50.34,63.5,57.22s-13.78-8.51-13.78-8.51S90.23-14,115.31,13.54Z"/><path class="cls-5" d="M90.58,49.12c-1,.79-.62,21.55-2.07,22.82s-4.23-2.58-6.82,2.61"/><path class="cls-13" d="M89.22,96.13c-4-1.81-13-2-13.74-9S82,74.82,82,74.82c6.58-4.64,7.31-24.93,7.31-24.93a4.29,4.29,0,0,0-3.59,3.76c-.84,4.26-2.15,8.24-9.69,14.76-6.9,6-11.4-8.12-15.44-2.19a53.62,53.62,0,0,0,2.57,12.87C67.73,91,72,94.52,78.49,100c4.24,3.29,8.07,4.84,11.56,5.23C91.2,101.23,91.16,97,89.22,96.13Z"/><path class="cls-14" d="M90.35,81.73c.92,0,1.94-1.42,3.43-.8,3.25,1.36,7.42,4.55,9.41,4.36,0,0-10.46.65-13.24.45s-11.14-.51-12.72-.47,6.84-3,9.44-4.16C88.47,80.29,89.43,81.73,90.35,81.73Z"/><path class="cls-15" d="M91.11,85.77H90c-2.16-.1-9.85-.42-13-.48,1-.28,4.6-.43,5.69-.71,1.69-.43,3.28-.84,4.2-1.11.3-.09,6.47-.16,6.65-.11,1.21.33,2.56.83,3.88,1.32.85.31,4.28.35,5.06.61C99.68,85.38,93.28,85.77,91.11,85.77Z"/><path class="cls-14" d="M77,85.28s4.7,2.5,6.42,3.59c1.17.74,3.3,1.29,6.81,1.21s4-.61,6.12-1.68c2.5-1.26,6.82-3.11,6.82-3.11s-4.64-.11-9.57.25a31.53,31.53,0,0,1-3.51.12c-1.19,0-2.71-.22-5-.23C81.62,85.41,77,85.28,77,85.28Z"/><path class="cls-16" d="M93.62,85.46a28.64,28.64,0,0,1-3.51.14c-1.19,0-2.71-.27-5-.29l-8.12,0a10.18,10.18,0,0,1,2.29.35c2.76.46,6.61,2.8,10.9,2.8,3.71,0,7.13-2.26,9.76-2.62a10.55,10.55,0,0,1,3.22-.52A73.78,73.78,0,0,0,93.62,85.46Z"/><path class="cls-17" d="M86.78,87.68s.61,1.47,3.33,1.47a5.71,5.71,0,0,0,4.27-2S88.94,88.88,86.78,87.68Z"/><path class="cls-18" d="M95,88a11.68,11.68,0,0,0,2.77-.48,15,15,0,0,0,1.79-1.53,23.35,23.35,0,0,0-2.19.84C96.3,87.27,95.22,87.92,95,88Z"/><path class="cls-19" d="M82.52,75.91c.17-.48,1.55-4.86,3.34-1.63s-.19,3.53-.19,3.53Z"/><path class="cls-19" d="M96.41,75.91c-.17-.48-1.55-4.86-3.34-1.63s.33,2.86.33,2.86Z"/><path class="cls-20" d="M82.52,72.45S81,75.24,81.92,76s3,2.7,4.13,1.64c0,0-2.89-1.52-1.83-2.2,2.07,0,2.31,2.42,5.19,2.36S94,73.7,95.85,75.24c-.77,1.35-3,1.91-3,1.91s4.83,1.17,4.83-2.29-2.34-2.74-5-19.17c-.8-3.23-3.85-6.52-5-3.9C85.72,63,84.29,67.9,82.52,72.45Z"/><path class="cls-5" d="M90.66,57.8c-.58-3.5-.52-6.6-1-7.89-.73.07-1.44.72-1.94,1.88-2,11.18-3.39,16.11-5.16,20.66,0,0-1.56,2.79-.6,3.56a11,11,0,0,0,2.26,1.63c.12-.24-1.66-1.73-.72-3.17s1.92.58,5.19,3.18S92.09,66.39,90.66,57.8Z"/><path class="cls-21" d="M89.34,49.89a3,3,0,0,0-1.66,1.83c-2,11.17-3.39,16.11-5.16,20.66,0,0,.71,1.87,3.61-2.76,1.22-2.64,2-3.86,2.13-6.39C88.26,59.92,89.47,49.91,89.34,49.89Z"/><path class="cls-22" d="M96.74,58.89s-.94-6.86,8.49-7c10.5-.09,7.26,5.11,7.26,5.11s.71,3.74-4.36,5.76S96.74,58.89,96.74,58.89Z"/><path class="cls-23" d="M96.72,58.66S95.9,53,104,52.94c9-.07,6.25,4.21,6.25,4.21s.62,3.07-3.75,4.73S96.72,58.66,96.72,58.66Z"/><path class="cls-24" d="M96.72,58.66s1.08-4.11,6.7-4.11,6.85,2.6,6.85,2.6-.58,1.73-4.18,3.1S96.72,58.66,96.72,58.66Z"/><path class="cls-25" d="M110.27,57.15s-1.23-2.6-6.85-2.6-6.7,4.11-6.7,4.11l.31.15a12.93,12.93,0,0,1,8.37-2.12,30,30,0,0,1,4.8.62Z"/><path d="M103.08,56.07a2.44,2.44,0,0,0-1.51-1.41,5.85,5.85,0,0,0-2.34.93A2.2,2.2,0,0,0,99,57.74a2.22,2.22,0,1,0,4.12-1.67Z"/><path class="cls-24" d="M100.55,55.8a.56.56,0,0,0-.42-.5,1.8,1.8,0,0,0-.62.21.6.6,0,0,0-.07.57.58.58,0,0,0,.89.24A.55.55,0,0,0,100.55,55.8Z"/><path class="cls-26" d="M72.07,52.08c5.69.06,8.6,1.2,10.73,5.36,0,0-.37,5.85-7.89,5.11S67.72,57,67.72,57,65.87,52,72.07,52.08Z"/><path class="cls-23" d="M74.16,53.38c4.43,0,6.7,1,8.36,4.35,0,0-.29,4.75-6.15,4.15s-5.6-4.5-5.6-4.5S69.33,53.32,74.16,53.38Z"/><path class="cls-24" d="M76.1,55.3a11,11,0,0,1,6.42,2.43,8.63,8.63,0,0,1-7,2.52c-4.4-.43-4.76-2.87-4.76-2.87S71.13,55.33,76.1,55.3Z"/><path class="cls-25" d="M82.13,58.1c.25-.22.39-.37.39-.37A11,11,0,0,0,76.1,55.3c-5,0-5.33,2.08-5.33,2.08s0,.1.07.26A37.24,37.24,0,0,1,75.13,57,15.6,15.6,0,0,1,82.13,58.1Z"/><path d="M76.37,56.91a2.18,2.18,0,0,0-.68-1.59,6.38,6.38,0,0,0-3.56.7,2.26,2.26,0,0,0-.19.89,2.22,2.22,0,1,0,4.43,0Z"/><path class="cls-24" d="M72.83,55.93a.53.53,0,0,0,1.06,0,.87.87,0,0,0-.23-.48c-.07,0-.63.2-.83.26C72.8,55.77,72.83,55.86,72.83,55.93Z"/><path id="eyelash" d="M70.77,57.38a4.39,4.39,0,0,1-2.18-2.57C68.48,54.49,68.5,57.79,70.77,57.38Z"/><path id="eyelash-2" data-name="eyelash" d="M71.2,56.69a3.53,3.53,0,0,1-1.3-2.52C69.89,53.89,69.08,56.5,71.2,56.69Z"/><path id="eyelash-3" data-name="eyelash" d="M72.57,55.81a3.47,3.47,0,0,1-1.12-2.41C71.44,53.13,70.74,55.63,72.57,55.81Z"/><path id="eyelash-4" data-name="eyelash" d="M74.28,55.37A3.45,3.45,0,0,1,73.17,53C73.16,52.68,72.46,55.19,74.28,55.37Z"/><path d="M110.27,57a4.39,4.39,0,0,0,2.18-2.57C112.56,54.08,112.54,57.37,110.27,57Zm.56-3.12a3.5,3.5,0,0,1-1.29,2.52C111.66,56.18,110.85,53.57,110.83,53.85Zm-1.2-.67a3.44,3.44,0,0,1-1.12,2.42C110.34,55.42,109.64,52.92,109.63,53.18Zm-1.13-.5a3.45,3.45,0,0,1-1.11,2.42C109.21,54.92,108.51,52.42,108.5,52.68Z"/><path d="M107.89,62.53s-1.26-.05-2.44-1.85A1.9,1.9,0,0,0,107.89,62.53Zm-.5-2.63c.45,1.72,1.56,1.93,1.56,1.93C106.87,62.06,107.31,59.61,107.39,59.9Zm1.29-.94c.42,1.64,1.38,1.9,1.38,1.9C107.78,61.3,108.6,58.68,108.68,59Zm1.09-.93c.43,1.64,1.48,1.71,1.48,1.71C109,60.17,109.7,57.75,109.77,58Z"/><path id="eyelash-5" data-name="eyelash" d="M71.37,58.51s.23.82-1.25,1.62C69.87,60.26,71.92,60,71.37,58.51Z"/><path id="eyelash-6" data-name="eyelash" d="M72,59.13s.26.77-.84,1.37A1,1,0,0,0,72,59.13Z"/><path id="eyelash-7" data-name="eyelash" d="M72.85,59.58s.08.71-1,1.31C71.63,61,73.28,60.76,72.85,59.58Z"/><path id="eyelash-8" data-name="eyelash" d="M73.53,59.83a1.73,1.73,0,0,1-1,1.58A1.08,1.08,0,0,0,73.53,59.83Z"/><path class="cls-4" d="M97.29,49.87s6.35-4.33,10.67-3.61,6.2,1.88,6.92,3.61a11.77,11.77,0,0,0-7.49-1.15C103.49,49.58,99.89,53.18,97.29,49.87Z"/><path class="cls-4" d="M73.94,46.18c-4-.35-6.34,3.11-7.35,4a6.1,6.1,0,0,1,5.77-.87c3.45,1.16,10.23,3.46,12.1,2.6C84.46,51.89,78,46.53,73.94,46.18Z"/><path class="cls-4" d="M102.48,4C96.86,2.87,94.21-1,83,.73S39.05,25.85,35,59.58c0,15.57,2.59,21.92,2.59,21.92s-7.78,47.28-4.9,54.49C22,143.48,18,166,18,166s-2.6,15-2,17,2-11.82,4.32-14.12-2,12.68.29,17.87c0,0,10.81-18.94,13.41-21.53.58,2.88-10.52,27.87-10.52,31.33C41.36,171.25,50.3,165.68,57.8,157.9c-12.11,17.59-27.68,39.21-15.86,52.47s18.34,11.25,18.34,11.25-30.45-6.06-13.15-32.87,24.5-44.69,21.62-58.24c0,0,10.4-28.43.45-39.56s-7.37-55.59,7.62-68.27c5.7-1.5,8.52-3,14.71-7.5a60.41,60.41,0,0,0,13.26,2.89c4.18,4.84,11.1,11,12.83,15.36,2.26,5.74.23,9,.72,17.82.61,10.89.87,15.5.87,15.5s-3.58,16.66-6.55,28.43-1.41,23-1,30.14a69.83,69.83,0,0,1-5.19,18.16s8.65-11.53,9.23-14.12S96.43,165.4,99,181.54s6.35,23.07,14.13,27.68c0,0-10.67-9.51-9.8-18.16,0,0,8.65,14.7,18.74,13,0,0-33.16-15-12.11-51,10.09-11.25-3.75,36.62-24.79,31.43,0,0,17.87,5.19,27.39-13.27,0,0-9.52,17.59-16.15,16.44,2.31,6.05,25.95-10.67,25.66-24.51,1.73,11,6.92,16.43,9.51,15,0,0-5.19-3.17-4.9-8.65s6.92,15,20.47,11.54c0,0-9.22-3.75-12.11-10.67,0,0,7.21,11.53,15,9.8,0,0-10.67-4.61-12.4-16.72s13.84-10.67,12.4-25.37-13-82.46-17.88-87.94c5.48-10.67.21-18.22,2.6-22.2C139.68,22.68,126.28-10.25,102.48,4Z"/><path class="cls-5" d="M118.37,58.58s5.95-9,8.65-7.27,1.82,8.33.38,9.77c.86,1.92-4.61,11.24-4.61,11.24s-3,8-6.54,4.52C116.44,76.36,116.64,63.38,118.37,58.58Z"/><path class="cls-27" d="M118.44,74.54c.2-3.8.61-11.61,1.75-15.05,2.07-3.07,4.75-5.94,5.9-6.34a3.18,3.18,0,0,1,.56,1.51,8.62,8.62,0,0,1-.69,5l-1,1,.5,1.07c-.09,1.25-2.1,5.63-4.42,9.58l-.09.15-.06.17a10.12,10.12,0,0,1-2.52,3.95C118.4,75.28,118.42,74.94,118.44,74.54Z"/><path class="cls-5" d="M63.78,61.44c0-2.16-3.83-7.29-4.73-6s.28,9.47,1.05,10.91S58,77.56,62.46,76.85C65.79,76.31,63.84,65.68,63.78,61.44Z"/><path class="cls-28" d="M62,75.73a.52.52,0,0,1-.44-.16c-.78-.86-.5-4-.33-5.93s.25-3.13-.13-3.85c-.59-1.1-1.39-6.82-1.24-9a19.76,19.76,0,0,1,3.18,4.5,12.26,12.26,0,0,1,1,4.17c.25,2.77,1,9.12-1.77,10.28a.78.78,0,0,1-.26,0Z"/><circle class="cls-29" cx="61.82" cy="75.13" r="0.88"/><circle class="cls-30" cx="118.79" cy="75.13" r="0.88"/><path class="cls-5" d="M118.79,63.94a2.83,2.83,0,0,0,1.86.92c1.22.15,0,1.19,0,1.19s-2.78,3.2-2.45,5S118.79,63.94,118.79,63.94Z"/></g></g></svg>