<svg xmlns="http://www.w3.org/2000/svg" viewBox="0 0 507.42 324.49"><defs><style>.cls-1{fill:#492883;}</style></defs><title>map</title><g id="Layer_2" data-name="Layer 2"><g id="_13colonies" data-name="13colonies"><path class="cls-1" d="M502,24.93s3.37-.84,0-5S499.45,27,497.77,14s-5-10.08-9.66-9.24-4.21,0-5-4.62c-4.62-2.1-9.81,20.26-9.46,22.69,3.16,2.1-1.35,4-1.61,6s6,6.6-5.74,10.38-26.89,16-26.47,25.85-38.65,36.33-38.65,36.33-14.71,13-22.69,10.51,0-6.73,3.36-11.35c.42-11.76-7.14-17.22-7.14-17.22s-2.52,1.26-5,5.46-4.2-3.78-4.2-3.78a28.84,28.84,0,0,0,5.88-12.19c1.68-7.56-3.36-5.88-10.39-7.76s-9.78,2.3-9.78,2.3L349,79.13l-.42-7.57s-2.94,1.26-5.88,12.19,6.72,23.11,6.72,24.37.42,10.08-9.66,9.66-5-21-6.3-27.31,3.36-16,2.1-16.39-6.3,13.45-4.62,3.37,10.08-5.89,10.5-8.83,8.82-3.36,10.08-5,10.51-2.1,9.25-5.46a6.88,6.88,0,0,0-3.79-4.2h-5.46s1.26-4.62,0-3.36a50.24,50.24,0,0,1-5,3.78s-7.56.84-10.5,2.52-4.62-2.1-7.14-5-7.57,3.36-5.47,0,2.94-4.2,0-4.62S316.27,56,316.27,56s-7.14,3.78-8.4,3.78-4.2.42-5-2.94-5.89,2.94-5.89,2.94V55.18c0-4.62,1.68-5.88,9.25-7.56s7.14-8.41,7.14-8.41a94,94,0,0,1-16.39,0c-7.56-.84-12.6-7.14-13.86-7.14s-3.36,3.78-6.72,3.36-4.62-7.14-4.62-7.14,2.52-3.36,0-6.5-8.83,7.34-8.83,7.34l-12.18,2.12s-34.87-.44-53.78,0S97,26.61,97,26.61L47.38,12.32S42.32,30.87,40.3,30.14c-.35-2.46,2.05-7.41.87-8.67-2-.79-.39-3.31.08-5.43-1.73-2.6-6.46-.24-8.19-3.08-2.57-3-4.23-5.22-5.85-3.16-4.62,5.88,3.36,17.65-.42,21.85s0,9.66,0,9.66A5.11,5.11,0,0,0,23.85,48c1.68,5-7.56,19.74-7.56,19.74L10,74.5v21L5.79,101l-.85,5.47a26.24,26.24,0,0,0-4.62,8.82c-1.68,5.46,3.78-.84,2.94,6.3s3.37,29,6.23,26.47,6.8.42,6.8.42-2.1-1.68-5.88,3.36,5.46,12.6,2.94,16S20.49,190,20.49,190v7.15a11,11,0,0,1,3.36,3.36c1.26,2.1,5.46,4.2,5.46,4.2l7.57,5.46s3.78,5.88,6.3,4.62,4.2,3.78,4.2,3.78v9.67L52.84,227,52,230l21.43,1.68-2.1,2.52,38.23,21.43h31.51l.42-4.63s17.23.84,18.49.84,8.4,15.13,8.4,15.13,3.36-.84,7.14,8.82,15.55,12.61,15.55,12.61l.42-4.2,5,.84,1.68-3.79a11.46,11.46,0,0,1,13.87-2.1c8.4,4.21,10.08,21,10.08,21l8.82,7.14,5.88,10.09L252,324.49h8.4s-2.52-8.4-4.2-14.29,5.46-17.64,5.46-17.64,9.25,2.94,15.75-2.94,3.16-10.09,3.16-10.09.84-5.46,2.52-.84,2.52,3.36,12.18-2.94,21,9.25,21,9.25l2.1-3.37s-2.1-.42-1.26-3.78,3.36.42,4.62,3.36-3.36,6.31,0,7.57,5.46-5,8-4.62,2.94,7.14,2.94,7.14,3.36-2.52.84-5.46,3.78-.84,3.78-.84l4.2,4.2,5.46-1.26s2.1-5-2.94-4.2-6.3-5.05-6.3-5.05,6.72-.84,5-5.46-5,2.1-8,1.68-2.1-2.94-2.1-2.94L328.45,269l10.93.84,2.94-4.2,9.24-2.1,1.26-4.2s7.15,8,9.67,3.78,7.56-2.94,7.56-2.94a40.71,40.71,0,0,0,14.28,5.88c7.57,1.26,2.1-2.52,5.47-6.3s7.56,2.52,15.12,6.72,3.73,12.76,9.24,26.05c2.95,16.38,9.25,6.72,10.51,15.12.2,1.35.29,2.51.86,3.12,3,3.19,5.44.66,5.44.66s-.84,6.73,4.62,5.89,6.72,1.26,9.66-14.29-10.08-29-10.08-29l-1.26-4.62-2.52-2.1-5.88-7.14s7.56,7.56-3.36-9.25,22.68-116.38,24.37-127.72,34.87-49.58,36.55-68.48,9.24-13,9.24-13l.42-3.78s5-1.68,5-4.2,5.46-1.26,8.83-5S502,24.93,502,24.93ZM299.42,207.85a11.68,11.68,0,0,1-11.68,11.67H99.1a11.68,11.68,0,0,1-11.68-11.67V85.2A11.68,11.68,0,0,1,99.1,73.52H287.74A11.68,11.68,0,0,1,299.42,85.2Z"/></g></g></svg>