<?xml version="1.0" encoding="utf-8"?>
<!-- Generator: Adobe Illustrator 21.0.2, SVG Export Plug-In . SVG Version: 6.00 Build 0)  -->
<svg version="1.1" id="Capa_1" xmlns="http://www.w3.org/2000/svg" xmlns:xlink="http://www.w3.org/1999/xlink" x="0px" y="0px"
	 viewBox="0 0 60 60" style="enable-background:new 0 0 60 60;" xml:space="preserve">
<style type="text/css">
	.st0{fill:#8C959D;}
</style>
<path class="st0" d="M51.2,8.8C39.5-2.9,20.5-2.9,8.8,8.8C3.1,14.4,0,22,0,30s3.1,15.5,8.8,21.2C14.6,57.1,22.3,60,30,60
	s15.4-2.9,21.2-8.8C62.9,39.5,62.9,20.5,51.2,8.8z M10.2,10.2C15.7,4.7,22.8,2,30,2c6.9,0,13.7,2.5,19.1,7.5L42,16.6v-6.5
	C42,9,41.4,8,40.4,7.4c-1-0.6-2.1-0.6-3.1,0c-0.1,0-0.1,0.1-0.2,0.1L23.9,19.9C23.8,20,23.6,20,23.4,20h-8.3c-1.7,0-3.1,1.4-3.1,3.1
	v12.8c0,1.7,1.4,3.1,3.1,3.1h4.5L9.5,49.1C4.7,43.9,2,37.1,2,30C2,22.5,4.9,15.5,10.2,10.2z M21.6,37h-6.5c-0.6,0-1.1-0.5-1.1-1.1
	V23.1c0-0.6,0.5-1.1,1.1-1.1h8.3c0.6,0,1.1-0.1,1.6-0.4c0.1,0,0.1-0.1,0.2-0.1L38.4,9.1c0.5-0.2,0.9-0.1,1,0c0.2,0.1,0.6,0.4,0.6,1
	v8.5L21.6,37z M40,21.4v27.5c0,0.6-0.4,0.9-0.6,1c-0.2,0.1-0.6,0.3-1,0L25.2,37.6c-0.1-0.1-0.1-0.1-0.2-0.1
	c-0.2-0.1-0.5-0.2-0.7-0.3L40,21.4z M49.8,49.8c-10.7,10.7-27.9,10.9-38.9,0.7L22.4,39h1c0.2,0,0.3,0,0.5,0.1l13.2,12.3
	c0.1,0,0.1,0.1,0.2,0.1c0.5,0.3,1,0.4,1.6,0.4c0.5,0,1.1-0.1,1.5-0.4c1-0.6,1.6-1.6,1.6-2.7V19.4l8.5-8.5
	C60.7,21.9,60.5,39.1,49.8,49.8z"/>
</svg>
