<svg xmlns="http://www.w3.org/2000/svg" viewBox="0 0 78.94 58.89"><defs><style>.cls-1{fill:#c60b27;stroke:#fff7f0;stroke-miterlimit:10;stroke-width:1.41px;}</style></defs><title>New York</title><g id="Layer_2" data-name="Layer 2"><g id="_13colonies" data-name="13colonies"><path id="New_York" data-name="New York" class="cls-1" d="M31.84,9.12C40.34,6,53.32,0,53,.77S56.11,15,56.11,15l3.67,7.1,5.09,18.41s3.85,7.44,3.85,8.12v2.87l2.2,3.21s4.4-3.21,6.42-3.72,0,2.2,0,2.2-5,6.6-8.44,4.57-7.33-4.57-8.06-4.57-5.5-.5-5.5-.5l-6.79-8.8L3.64,54.59S2.17,55.77.89,53.06,8.41,48.23,5.66,45,.43,44.63.73,44.12s3-5.48,4.78-6.7C8,35.73,23.44,34.13,23.44,34.13s2.91-5,.89-7-3.85-1.72-5.2-2.28C20.08,24.08,31.84,9.12,31.84,9.12Z"/></g></g></svg>