<svg xmlns="http://www.w3.org/2000/svg" xmlns:xlink="http://www.w3.org/1999/xlink" viewBox="0 0 1540.7 546.85"><defs><style>.cls-1,.cls-5{fill:#f5d9b6;}.cls-2{fill:#d4af85;}.cls-3{fill:url(#linear-gradient);}.cls-4{fill:url(#linear-gradient-2);}.cls-5{stroke:#d4af85;stroke-miterlimit:10;}.cls-6{fill:url(#linear-gradient-3);}</style><linearGradient id="linear-gradient" x1="1272.96" y1="349" x2="1507.42" y2="213.64" gradientUnits="userSpaceOnUse"><stop offset="0" stop-color="#d4af85"/><stop offset="0.2" stop-color="#bc966e"/><stop offset="0.55" stop-color="#976e4a"/><stop offset="0.83" stop-color="#805534"/><stop offset="1" stop-color="#784c2c"/></linearGradient><linearGradient id="linear-gradient-2" x1="0.16" y1="534.34" x2="181.09" y2="534.34" gradientUnits="userSpaceOnUse"><stop offset="0" stop-color="#784c2c"/><stop offset="1" stop-color="#3c1d10"/></linearGradient><linearGradient id="linear-gradient-3" x1="1357.63" y1="8.66" x2="1473.52" y2="8.66" xlink:href="#linear-gradient-2"/></defs><title>scroll</title><g id="Layer_2" data-name="Layer 2"><g id="scroll"><path class="cls-1" d="M155.33,27.52c3.36-.76,45.92-3.05,60.48,0S283,26,283,26l35.84,2.58L339,26l52.64,1.29,9-5.85s156.79,2.09,164.63,7.14S617.88,26.28,638,25s39.2,5.33,39.2,5.33l17.92-4.45,21.28,4.45,12.32-4.45,13.44,4.45S740,25,763.48,25.87s22.4,4.45,22.4,4.45l25.76-4.45,73.92-4.45s17.92,5.85,31.36,4.45,13.44,4.45,13.44,4.45,6.72-3.05,10.08-4.45,15.68-.89,15.68,0,28-4.45,28-4.45l19,4.45h37s21.28-.89,50.4,0,45.92,2.92,47,0,12.32,0,12.32,0h14.56l21.28,4.45,13.43-4.45h13.44s140,1.4,144.48,0,29.12,4.45,29.12,4.45l58.24,512.2-31.08-1.61-31.64-2.19-28.14,1.52-20,2.28-11.34-1.8-14.14-1.24-32.34.09-25.06,1.62-20.44-1.33-21,2.66s-7.46-3.42-12.74-3.9c-6,1.52-25.33,3.9-25.33,3.9s-91.84,4.32-110.51-2.79c-1.49,4.09-18.67,4.06-24.64,1.53s-29.12-1.53-37.33-1.53-35.09,2-41.81-.51-9,.51-20.91,2-40.32,0-50,0-27.62,2.56-27.62,2.56-.75,0-9.71,0-72.43-5.1-88.85-3.07-41.07,0-44.8,0-85.87,1.52-88.85-.51-21.66,1.52-29.12-2.54H557.4s-38.08-3.56-44.79-1-11.95-1.52-14.19,1-8.21-2-11.95-.51-23.14.51-26.13.51-3.73-2.54-6-2-13.44,4.06-21.66,4.57-107.52-2-122.45,1.52l-31.36-.5-22.4-1H242.32s-53.56-4.41-79.15,1S155.33,27.52,155.33,27.52Z"/><path id="top" class="cls-2" d="M879.4,33.06,985.29,36.8l168.57-.88,53.35,8.89,115.23-8.89,48.2-9c-5.88-1-11.62-1.81-13.57-1.21-4.48,1.4-144.48,0-144.48,0h-13.44l-13.43,4.45-21.28-4.45h-14.56s-11.2-2.92-12.32,0-17.92.89-47,0-50.4,0-50.4,0h-37l-19-4.44s-28,5.33-28,4.44-12.32-1.39-15.68,0-10.08,4.45-10.08,4.45,0-5.84-13.44-4.45-31.36-4.44-31.36-4.44l-73.92,4.44-25.76,4.45s1.12-3.56-22.4-4.45-21.28,4.45-21.28,4.45l-13.44-4.45-12.32,4.45-21.28-4.45-17.92,4.45s-19-6.61-39.2-5.32-65,8.62-72.8,3.57-164.63-7.14-164.63-7.14l-9,5.85L339,25.87l-20.16,2.59L283,25.87s-52.64,4.59-67.2,1.54-57.12-.76-60.48,0l-.51,12.45,78.91,1.52,46.67-2L323,37.5l28.38-3.23,38.82,3.23,95.58-4.44L535,36.56l104.16-3.5L698,36.9l115.92-3.84Z"/><path id="bottom" class="cls-2" d="M759.75,540.75c16.42-2,79.89,3,88.85,3.07s9.71,0,9.71,0,17.92-2.56,27.62-2.56,38.08,1.52,50,0,14.19-4.58,20.91-2,33.59.51,41.81.51,31.36-1,37.33,1.53,23.15,2.56,24.64-1.53c18.67,7.11,110.51,2.79,110.51,2.79s19.36-2.38,25.33-3.9c5.28.48,12.74,3.9,12.74,3.9l21-2.66,20.44,1.33,25.06-1.62,32.34-.09,14.14,1.24,11.34,1.8,20-2.28,28.14-1.52,31.64,2.19,31.08,1.61-5.9-51.91c-9.34,3.74-17.15,18.39-28.44,26.61l-56,5.64s-26.88-6.38-33.6-5.64-41.82-9.08-48.54-6.81-59,17-59,17l-50,5.07-55.25-.5-50.77-5.59-35.1,7.11-53-9.14-78.4-1-82.13,8.13L726.9,531l-75.42-4.57-45.54-2L535,514.23l-71.67,7.59-53.76,2.57-30.46,1-42.52,6.25-56.19-3.14-62.72-1-64-22.24A225.2,225.2,0,0,0,157,529.3q11.08,5.15,23.29,9.83c26.95-1.78,62.07,1.11,62.07,1.11H256.5l22.4,1,31.36.5c14.93-3.55,114.24-1,122.45-1.52s19.42-4.06,21.66-4.57,3,2,6,2,22.4,1,26.13-.51,9.71,3,11.95.51,7.47,1.52,14.19-1,44.79,1,44.79,1H597c7.46,4.06,26.13.51,29.12,2.54s85.12.51,88.85.51S743.32,542.78,759.75,540.75Z"/><path class="cls-3" d="M1444.43,542.52l-48-521.1L1291,46.06s104.23,398.93,91.5,492.7l9.93.68,29.84,1.93Z"/><path class="cls-4" d="M181.09,540.64s-47.88,7.11-66.08,5.78c0-3.81-5.32.16-5.32.16s-19.32,1.36-22.12-2.07-2.8-4.76-2.8-4.76-49-.57-50.12,0-5.88-.25-5.88-.25-22.24-.13-28.2-3.94,54.58-13.37,78-13.71S159.53,524.2,181.09,540.64Z"/><path class="cls-5" d="M51.17,7.35c.37-2,14.93-6.09,46.29-6.09s68.7,6.09,76.16,10.15c1.55,9.14,7.47,529.23,7.47,529.23s-18.26-1.48-43.21-3.19c-1.23-.09-6.82-2.86-6.82-2.86s-5.53,2-6.68,1.95C75,533.24,11.82,529.94.57,534.29.57,534.29,48.86,19.86,51.17,7.35Z"/><path id="shadow" class="cls-2" d="M174,19.44s-.26-7.43-.36-8c-7.46-4.06-44.8-10.15-76.16-10.15S51.54,5.34,51.17,7.35C48.86,19.86.57,534.29.57,534.29c8.3-3.21,44.85-2.25,83.28-.21-26-91.6-25.21-500.7-5.8-516.76S174,19.44,174,19.44Z"/><path class="cls-6" d="M1357.63,6.46l43.12-4.95,2,2.48s12.88-3.24,16.52-2.48,49.84-3.66,52.92-.12,0,15.93,0,15.93-101.36,0-108.08-3.24C1364.07,14.08,1359,9.7,1357.63,6.46Z"/><path class="cls-5" d="M1358.94,8.37a14.81,14.81,0,0,0,7.09,2c2.65.08,9.34-.26,9.34-.26l9.33,2h10.45c14.56,0,118.72-2.29,122.08,4.57s26.88,513.82,22.4,517.84-59.36,7.07-59.36,7.07h-11.2s-15.31-.61-19.5-.86a41.06,41.06,0,0,1-15.5-4.1C1433.51,530.51,1362.3,35.79,1358.94,8.37Z"/><path class="cls-2" d="M1478.78,495.21c-5.26-49-85.07-343.11-108.14-477.81,20-.83,120.59,6.36,145.55-1.44-11.42-5.85-107.13-3.75-121-3.75H1384.7l-9.33-2.05s-6.69.34-9.34.26a14.69,14.69,0,0,1-7.09-2.05c3.36,27.68,74.57,527.12,75.13,533.37a40.82,40.82,0,0,0,15.5,4.13c4.19.25,19.5.87,19.5.87h11.2s54.88-3.08,59.36-7.14c.53-.48.67-8,.5-20.85C1521,514.14,1480.09,507.41,1478.78,495.21Z"/></g></g></svg>