<?xml version="1.0" encoding="utf-8"?>
<!-- Generator: Adobe Illustrator 21.0.2, SVG Export Plug-In . SVG Version: 6.00 Build 0)  -->
<svg version="1.1" id="Capa_1" xmlns="http://www.w3.org/2000/svg" xmlns:xlink="http://www.w3.org/1999/xlink" x="0px" y="0px"
	 viewBox="0 0 60 60" style="enable-background:new 0 0 60 60;" xml:space="preserve">
<style type="text/css">
	.st0{fill:#8C959D;}
</style>
<g>
	<path class="st0" d="M34.4,7.4c-1-0.6-2.1-0.6-3.1,0c-0.1,0-0.1,0.1-0.2,0.1L17.9,19.9C17.8,20,17.6,20,17.4,20H9.1
		C7.4,20,6,21.4,6,23.1v12.8C6,37.6,7.4,39,9.1,39h8.3c0.2,0,0.3,0,0.5,0.1l13.2,12.3c0.1,0,0.1,0.1,0.2,0.1c0.5,0.3,1,0.4,1.6,0.4
		c0.5,0,1.1-0.1,1.5-0.4c1-0.6,1.6-1.6,1.6-2.7V10.1C36,9,35.4,8,34.4,7.4z M34,48.9c0,0.6-0.4,0.9-0.6,1c-0.2,0.1-0.6,0.3-1,0
		L19.2,37.6c-0.1-0.1-0.1-0.1-0.2-0.1c-0.5-0.3-1-0.4-1.6-0.4H9.1C8.5,37,8,36.5,8,35.9V23.1C8,22.5,8.5,22,9.1,22h8.3
		c0.6,0,1.1-0.1,1.6-0.4c0.1,0,0.1-0.1,0.2-0.1L32.4,9.1c0.5-0.2,0.9-0.1,1,0c0.2,0.1,0.6,0.4,0.6,1V48.9z"/>
	<path class="st0" d="M41.8,17.3c-0.4,0.4-0.4,1,0,1.4c6.2,6.2,6.2,16.4,0,22.6c-0.4,0.4-0.4,1,0,1.4c0.2,0.2,0.5,0.3,0.7,0.3
		s0.5-0.1,0.7-0.3c7-7,7-18.4,0-25.5C42.9,16.9,42.2,16.9,41.8,17.3z"/>
	<path class="st0" d="M39.7,20.3c-0.4-0.4-1-0.4-1.4,0s-0.4,1,0,1.4c4.3,4.3,4.3,11.3,0,15.6c-0.4,0.4-0.4,1,0,1.4
		c0.2,0.2,0.5,0.3,0.7,0.3s0.5-0.1,0.7-0.3C44.8,33.6,44.8,25.4,39.7,20.3z"/>
	<path class="st0" d="M30,0C13.5,0,0,13.5,0,30s13.5,30,30,30s30-13.5,30-30S46.5,0,30,0z M30,58C14.6,58,2,45.4,2,30S14.6,2,30,2
		s28,12.6,28,28S45.4,58,30,58z"/>
</g>
</svg>
