<svg xmlns="http://www.w3.org/2000/svg" xmlns:xlink="http://www.w3.org/1999/xlink" viewBox="0 0 263.5 259.37"><defs><style>.cls-1{fill:#918476;}.cls-2{fill:url(#linear-gradient);}.cls-3{fill:url(#linear-gradient-2);}.cls-21,.cls-23,.cls-24,.cls-25,.cls-26,.cls-27,.cls-28,.cls-4{opacity:0.65;}.cls-4{fill:url(#linear-gradient-3);}.cls-5{fill:url(#linear-gradient-4);}.cls-6{fill:url(#linear-gradient-5);}.cls-7{fill:#df9e7d;}.cls-8{fill:url(#linear-gradient-6);}.cls-9{fill:#ad7963;}.cls-10{opacity:0.68;fill:url(#linear-gradient-7);}.cls-11{fill:#fff;}.cls-12{fill:url(#linear-gradient-8);}.cls-13{fill:#391c05;}.cls-14{fill:url(#linear-gradient-9);}.cls-15{fill:url(#linear-gradient-10);}.cls-16{fill:url(#linear-gradient-11);}.cls-17{fill:url(#linear-gradient-12);}.cls-18{fill:url(#linear-gradient-13);}.cls-19{fill:url(#linear-gradient-14);}.cls-20{fill:url(#linear-gradient-15);}.cls-21{fill:url(#linear-gradient-16);}.cls-22{opacity:0.6;fill:url(#linear-gradient-17);}.cls-23{fill:url(#linear-gradient-18);}.cls-24{fill:url(#linear-gradient-19);}.cls-25{fill:url(#linear-gradient-20);}.cls-26{fill:url(#linear-gradient-21);}.cls-27{fill:url(#linear-gradient-22);}.cls-28{fill:url(#linear-gradient-23);}.cls-29,.cls-30{opacity:0.63;}.cls-29{fill:url(#linear-gradient-24);}.cls-30{fill:url(#linear-gradient-25);}.cls-31{fill:url(#linear-gradient-26);}.cls-32{fill:url(#linear-gradient-27);}.cls-33{fill:#5b534b;}.cls-34{fill:#333226;}</style><linearGradient id="linear-gradient" x1="160.07" y1="108.3" x2="179.24" y2="108.3" gradientUnits="userSpaceOnUse"><stop offset="0" stop-color="#391c05"/><stop offset="1" stop-color="#333226"/></linearGradient><linearGradient id="linear-gradient-2" x1="94.77" y1="155.91" x2="163.55" y2="155.91" gradientUnits="userSpaceOnUse"><stop offset="0" stop-color="#74746b"/><stop offset="0.3" stop-color="#6c6b63"/><stop offset="1" stop-color="#d1cbc5"/></linearGradient><linearGradient id="linear-gradient-3" x1="94.77" y1="141.14" x2="163.06" y2="141.14" gradientUnits="userSpaceOnUse"><stop offset="0"/><stop offset="0.08" stop-color="#11110d"/><stop offset="0.21" stop-color="#24231b"/><stop offset="0.34" stop-color="#2f2e23"/><stop offset="0.48" stop-color="#333226"/><stop offset="0.51" stop-color="#25241c"/><stop offset="0.56" stop-color="#14140f"/><stop offset="0.63" stop-color="#090806"/><stop offset="0.73" stop-color="#020201"/><stop offset="1"/></linearGradient><linearGradient id="linear-gradient-4" x1="175.7" y1="172.73" x2="253.02" y2="172.73" gradientUnits="userSpaceOnUse"><stop offset="0" stop-color="#7c695a"/><stop offset="0.09" stop-color="#6a5b4d"/><stop offset="0.23" stop-color="#52493c"/><stop offset="0.38" stop-color="#403c30"/><stop offset="0.55" stop-color="#363428"/><stop offset="0.75" stop-color="#333226"/></linearGradient><linearGradient id="linear-gradient-5" x1="162.09" y1="153.93" x2="162.09" y2="113.91" gradientUnits="userSpaceOnUse"><stop offset="0" stop-color="#614937"/><stop offset="0.59" stop-color="#5a594f"/><stop offset="1" stop-color="#5c5b51"/></linearGradient><linearGradient id="linear-gradient-6" x1="94.54" y1="120.94" x2="160.26" y2="120.94" gradientUnits="userSpaceOnUse"><stop offset="0" stop-color="#a37464"/><stop offset="1" stop-color="#8b503b"/></linearGradient><linearGradient id="linear-gradient-7" x1="168.68" y1="97.18" x2="168.68" y2="72.15" xlink:href="#linear-gradient"/><linearGradient id="linear-gradient-8" x1="124.21" y1="68.61" x2="138.56" y2="68.61" gradientUnits="userSpaceOnUse"><stop offset="0" stop-color="#dbd4cd"/><stop offset="0.99" stop-color="#f3d9cc"/></linearGradient><linearGradient id="linear-gradient-9" x1="91.48" y1="68.9" x2="105.1" y2="68.9" xlink:href="#linear-gradient-8"/><linearGradient id="linear-gradient-10" x1="99.43" y1="86.09" x2="118.37" y2="86.09" xlink:href="#linear-gradient-6"/><linearGradient id="linear-gradient-11" x1="102.43" y1="93.13" x2="120.54" y2="93.13" gradientUnits="userSpaceOnUse"><stop offset="0" stop-color="#331911"/><stop offset="1" stop-color="#4b352e"/></linearGradient><linearGradient id="linear-gradient-12" x1="101.62" y1="79.52" x2="122.4" y2="79.52" gradientUnits="userSpaceOnUse"><stop offset="0.01" stop-color="#81412a"/><stop offset="0.52" stop-color="#df9e7d"/><stop offset="1" stop-color="#df9e7d"/></linearGradient><linearGradient id="linear-gradient-13" x1="77.46" y1="73.85" x2="91.98" y2="73.85" xlink:href="#linear-gradient"/><linearGradient id="linear-gradient-14" x1="114.41" y1="110.85" x2="114.41" y2="108.21" gradientUnits="userSpaceOnUse"><stop offset="0" stop-color="#d3462a"/><stop offset="1" stop-color="#e07d6a"/></linearGradient><linearGradient id="linear-gradient-15" x1="102.24" y1="107.65" x2="126.58" y2="107.65" gradientUnits="userSpaceOnUse"><stop offset="0" stop-color="#d3462a"/><stop offset="0.54" stop-color="#e28370"/><stop offset="0.96" stop-color="#af3e33"/></linearGradient><linearGradient id="linear-gradient-16" x1="123.77" y1="66.53" x2="142.76" y2="66.53" gradientUnits="userSpaceOnUse"><stop offset="0.01" stop-color="#df9e7d"/><stop offset="0.48" stop-color="#dd715b"/><stop offset="0.99" stop-color="#af3e33"/></linearGradient><linearGradient id="linear-gradient-17" x1="130.28" y1="66.76" x2="135.57" y2="75.92" gradientUnits="userSpaceOnUse"><stop offset="0.01" stop-color="#df9e7d"/><stop offset="0.46" stop-color="#e89f90"/><stop offset="0.55" stop-color="#e39788"/><stop offset="0.69" stop-color="#d68072"/><stop offset="0.87" stop-color="#c05b4f"/><stop offset="0.99" stop-color="#af3e33"/></linearGradient><linearGradient id="linear-gradient-18" x1="90.26" y1="66.89" x2="105.38" y2="66.89" gradientUnits="userSpaceOnUse"><stop offset="0.01" stop-color="#af3e33"/><stop offset="0.52" stop-color="#dd715b"/><stop offset="0.99" stop-color="#df9e7d"/></linearGradient><linearGradient id="linear-gradient-19" x1="91.38" y1="74.59" x2="104.31" y2="74.59" gradientUnits="userSpaceOnUse"><stop offset="0" stop-color="#331911"/><stop offset="0.55" stop-color="#dd715b"/><stop offset="0.99" stop-color="#df9e7d"/></linearGradient><linearGradient id="linear-gradient-20" x1="123.21" y1="93.95" x2="159.11" y2="93.95" gradientUnits="userSpaceOnUse"><stop offset="0.01" stop-color="#df9e7d"/><stop offset="0.18" stop-color="#df9a7a"/><stop offset="0.36" stop-color="#de8e71"/><stop offset="0.52" stop-color="#dd7b63"/><stop offset="0.59" stop-color="#dd715b"/><stop offset="0.94" stop-color="#af3e33"/></linearGradient><linearGradient id="linear-gradient-21" x1="78.49" y1="109.49" x2="106.71" y2="60.63" gradientUnits="userSpaceOnUse"><stop offset="0" stop-color="#5d4532"/><stop offset="0.05" stop-color="#845744"/><stop offset="0.11" stop-color="#a66754"/><stop offset="0.17" stop-color="#c07360"/><stop offset="0.24" stop-color="#d37c69"/><stop offset="0.3" stop-color="#de816e"/><stop offset="0.37" stop-color="#e28370"/><stop offset="0.48" stop-color="#df7965"/><stop offset="0.59" stop-color="#dc6d57"/><stop offset="0.7" stop-color="#b05f49"/><stop offset="0.78" stop-color="#8e543f"/><stop offset="0.98" stop-color="#331911"/></linearGradient><linearGradient id="linear-gradient-22" x1="108.78" y1="119" x2="117.6" y2="134.27" gradientUnits="userSpaceOnUse"><stop offset="0" stop-color="#d3462a"/><stop offset="0.52" stop-color="#dd715b"/><stop offset="0.99" stop-color="#df9e7d"/></linearGradient><linearGradient id="linear-gradient-23" x1="103.65" y1="113.82" x2="125.51" y2="113.82" gradientUnits="userSpaceOnUse"><stop offset="0.01" stop-color="#df9e7d"/><stop offset="0.48" stop-color="#dd715b"/><stop offset="1" stop-color="#c06f5b"/></linearGradient><linearGradient id="linear-gradient-24" x1="132.95" y1="69.72" x2="132.95" y2="57.18" gradientUnits="userSpaceOnUse"><stop offset="0" stop-color="#81706b"/><stop offset="0.01" stop-color="#806f6a"/><stop offset="0.2" stop-color="#6e594d"/><stop offset="0.37" stop-color="#634c3a"/><stop offset="0.49" stop-color="#5f4734"/><stop offset="0.99"/></linearGradient><linearGradient id="linear-gradient-25" x1="127.21" y1="113.59" x2="127.21" y2="105.67" gradientUnits="userSpaceOnUse"><stop offset="0" stop-color="#7b3e27"/><stop offset="0.18" stop-color="#784934"/><stop offset="0.49" stop-color="#745947"/><stop offset="0.71" stop-color="#725e4d"/><stop offset="0.99" stop-color="#81412a"/></linearGradient><linearGradient id="linear-gradient-26" x1="123.48" y1="69.98" x2="125.69" y2="69.98" xlink:href="#linear-gradient-18"/><linearGradient id="linear-gradient-27" x1="103.42" y1="70.4" x2="105.38" y2="70.4" xlink:href="#linear-gradient-18"/></defs><title>TJefferson</title><g id="Layer_2" data-name="Layer 2"><g id="ThomasJefferson"><path d="M163.55,112.33s4-6.4,10.51,32.51c9,5.2,76,53.58,89.44,61.33v53.2H0s11.73-55.92,22.62-64.51,57-33.09,57.18-33.93,1.47-17.2,4.19-23.27S128.33,94.52,163.55,112.33Z"/><path id="back" class="cls-1" d="M172.74,92.53c.12.59.39,2.44.26,1.55-1.31-1.82-7.3-4.12-4.76-3,2.9,1.31,1.32,9.21.79,6S163,94.8,163,94.8s3.68-.26,3.42,4.21-4-2.1-7.11,2.37,3,17.71,3,17.71l7,3.35c17.11,2.11,5.53-13.16,5.53-13.16a6.7,6.7,0,0,1,4.48,6.11,28.86,28.86,0,0,0-1.59-8.48,7.24,7.24,0,0,1,3.56,5.4,17.19,17.19,0,0,0-1.45-7.77c4.21,1.84,4.21,4.74,4.21,4.74A5.75,5.75,0,0,0,182.2,103a4.93,4.93,0,0,0,2.57-1.13C179.54,100.43,174.84,97.24,172.74,92.53Z"/><path class="cls-2" d="M172.26,121a23.14,23.14,0,0,1-2.49-.16l-6.17-3c-2.32-5.16-4.66-13-2.94-15.49.66-.94,1.14-.94,1.34-.94a4.73,4.73,0,0,1,1.54.43,5.23,5.23,0,0,0,1.91.49h0c.73,0,2.45-.31,2.62-3.22v-.06a1.73,1.73,0,0,0,1.27.54c.72,0,1.66-.38,2.05-2.17a10.47,10.47,0,0,0,.21-1.78,1.57,1.57,0,0,0,1.57,1.11h.21a19.3,19.3,0,0,0,5.85,4.72l-1.71.1.48.36-1.75-.77,2.08,4.16-3.66-2.44,1.44,4.55c.08.25.16.49.23.73q-.42-.23-.87-.42l-5.75-2.42,3.76,5c1.53,2,4.35,6.93,3.25,9.14C176.11,120.7,174,121,172.26,121Z"/><path class="cls-3" d="M161.08,112.33s4.18.63,1.67,9.53-25.55,48.7-39.17,54.36c5,4.19-4.2,14.45-4.2,14.45s1.27-6.91-1.66-7.12-5.24,4.82-3.77,8.59l1.46,3.77s-2.93-2.52-5.23,0-5,3.77-5.87,3.56-1.26-4.61-1.26-4.61v-5s-4.39-2.51-5.65-1.88,0-5,0-5-3.21-1.67-.56-5.86,2.23-4.61,6.21-2.73S90.62,145.64,95.79,127c3.91-1.26,65.29-14.67,65.29-14.67"/><path d="M159.32,129.79c-14.4,9.52-33.27,20.09-44.91,19.19a88.16,88.16,0,0,1-18.62-3.46c0,.31.11.61.16.91a81.9,81.9,0,0,0,18.46,3.62c12.06.8,25-4.28,43.76-18C158.57,131.26,159,130.51,159.32,129.79Z"/><path d="M133.13,156.89c-13.29,1.75-28.41-.35-35-1.42l.21.75c10.44,3.09,25.9,2.81,34.79,2.19A46.06,46.06,0,0,0,143.41,156l.9-1.27A95.46,95.46,0,0,1,133.13,156.89Z"/><path d="M101.12,165c.18.55.36,1.07.53,1.58A104.26,104.26,0,0,0,125,168.93a35.54,35.54,0,0,0,10-2.14c.41-.46.81-.92,1.22-1.4a72.1,72.1,0,0,1-11,1.83C116.77,167.92,107.83,166.52,101.12,165Z"/><path d="M120,171.46a77.44,77.44,0,0,1-17.8-3.34c.17.51.32,1,.47,1.44a114,114,0,0,0,17,3.33,37.21,37.21,0,0,0,10-.79c.35-.31.71-.63,1.06-1A72.57,72.57,0,0,1,120,171.46Z"/><path d="M95.63,175.8s9.9-1.47,12.53,4.19c0,0-7.9-5.24-14.67-1.05S95.63,175.8,95.63,175.8Z"/><path d="M89.44,185.43c-.2-.59,3.88-8,9.64-5.63a8,8,0,0,1,.89.43c6.23,3.53,4.13,5.2,4.13,5.2s-5.52-7.54-10.61-1.88S89.44,185.43,89.44,185.43Z"/><path class="cls-4" d="M163.06,114.16a2.88,2.88,0,0,0-2-1.83S99.7,125.74,95.79,127C92,140.77,99.93,161.05,102.74,170,120.05,160.21,149.58,129,163.06,114.16Z"/><path d="M105.1,194.65c.05-.84-2.41-8.38-3.13-8l6.19,1.49-.92-5.15s5.81,8.53,5.81,10.17-4.89-.83-4.89-.83Z"/><path d="M118.62,175.63c3.18.38,3.86,3.62,3.78,7.38s-1.89,4.94-1.89,4.94.52-7.61-4.07-6.22S113.67,175,118.62,175.63Z"/><path class="cls-5" d="M186.14,158.8c5.18,4.93,35.19,19.13,66.88,40.8-1.21-.81-2.52-1.77-3.93-2.84-23-15.68-62.82-44.17-73.39-50.91C179.59,153.68,184.09,156.86,186.14,158.8Z"/><path class="cls-6" d="M161.46,136.36c2.56-6.42,5.47,6.15,3.88,11.17s5.1-8.37,3.43-14.52c-.72-2.61,1.54,1.92,4.69,8.31-2.84-16.17-5.17-23.58-6.85-26.88a5.73,5.73,0,0,1-.39-.53c-.52,7.42-3.58,19.29-9.46,27.74-1.61,2.31-4.92,9.79-5.95,12S158.9,142.79,161.46,136.36Z"/><path class="cls-7" d="M162.34,101s1,11.55-.22,14.69S126.51,145.22,116,144,92,130.77,94.68,117.79Z"/><path class="cls-8" d="M158.68,101.94c4.6,2.59-1.79,9.46-6.92,15.42-3.25,3.77-16.5,18.81-29.35,22.62-10.32,3.06-23.13-3.32-25.61-10.42-6.37-18.22,2.73-13.27,2.73-13.27S149.69,96.9,158.68,101.94Z"/><path class="cls-7" d="M178.92,75.41c-.42-10.26-8.59-6.07-15.92,0,1.26-2.51,5.65-28.69,0-43.77s-36.37-8.55-46.5-11.94C82.78,8.39,83,49.91,86,66.25,78,83.84,88.35,97,91.49,110.6s8.88,22.83,18.93,23.67,6.08.84,23.25-4.61,28.74-27.79,28.74-27.79c3.61,1.44,7.76-2.46,11-8a15.36,15.36,0,0,1-.82-1.62,15.36,15.36,0,0,0,.82,1.62C176.76,88.12,179.13,80.63,178.92,75.41Z"/><path class="cls-9" d="M172.59,75.72c-3.35-2.49-9.78,2.38-8.21,2.24,10.51-.93,3.75,11.81,3.75,11.81s-6.57,6.5.48,5S176,78.2,172.59,75.72Z"/><path class="cls-10" d="M154.82,79.52c-2.31,2.78,3.58,11.28,9.32,12.08,9.62,1.33,2.59-12.08,2.59-12.08s8.3-.88,8.81,1.43,1.17,7.3-2.08,6.77a17.43,17.43,0,0,0-5.11.47s3,.69,2.78,3.51c-.54,6.26,13.19,9,11.83-2s-15.09-21.24-17.44-16.27-1.1,7.76-4.66,6.08S157.12,76.73,154.82,79.52Z"/><g id="R_eye"><g id="eyes"><path class="cls-11" d="M124.21,70.26a9.36,9.36,0,0,1,7.48-3.67c4.88.11,5.09,2.83,6.87,3.67,0,0-4.63,2.72-8,2.3A18.22,18.22,0,0,1,124.21,70.26Z"/></g><path id="shadow" class="cls-12" d="M131.69,66.59a9.36,9.36,0,0,0-7.48,3.67s.23.14.64.36c2.35-1,5.58-2.14,7.73-1.84a33.55,33.55,0,0,1,5.75,1.61l.23-.13C136.78,69.42,136.57,66.7,131.69,66.59Z"/><path d="M132.69,71.65a2.88,2.88,0,0,0,2.88-2.88,2.82,2.82,0,0,0-.37-1.38,5.64,5.64,0,0,0-.55-.26,2.51,2.51,0,0,1,.61,1.64,2.57,2.57,0,1,1-3.94-2.17c-.17,0-.35,0-.52,0a2.85,2.85,0,0,0-1,2.15A2.88,2.88,0,0,0,132.69,71.65Z"/><path class="cls-13" d="M132.69,71.34a2.57,2.57,0,0,0,2.57-2.57,2.51,2.51,0,0,0-.61-1.64,8.32,8.32,0,0,0-3-.54h-.37a2.57,2.57,0,0,0,1.37,4.74Z"/><path d="M133.15,69.34a1.56,1.56,0,0,0,1.41-2.25,7.84,7.84,0,0,0-2.46-.47,1.52,1.52,0,0,0-.52,1.15A1.57,1.57,0,0,0,133.15,69.34Z"/><path id="eyeball" class="cls-11" d="M134.14,67.55a.29.29,0,1,1,.29-.29A.29.29,0,0,1,134.14,67.55Z"/></g><g id="L_eye"><g id="eyes-2" data-name="eyes"><path class="cls-11" d="M91.48,70.64A8.71,8.71,0,0,1,98.58,67c4.63.11,4.83,2.83,6.52,3.67,0,0-4.39,2.72-7.56,2.3A16.73,16.73,0,0,1,91.48,70.64Z"/></g><path class="cls-14" d="M104.91,70.75l.19-.11c-1.69-.84-1.89-3.56-6.52-3.67a8.71,8.71,0,0,0-7.1,3.67l.32.19a12.91,12.91,0,0,1,6.31-1.49A34.5,34.5,0,0,1,104.91,70.75Z"/><path d="M99.53,72a2.8,2.8,0,0,0,2.73-2.87,2.88,2.88,0,0,0-.35-1.38,3.6,3.6,0,0,0-.52-.26,2.58,2.58,0,0,1,.58,1.64,2.44,2.44,0,1,1-4.88,0A2.61,2.61,0,0,1,98.23,67l-.5,0a3,3,0,0,0-.93,2.16A2.8,2.8,0,0,0,99.53,72Z"/><path class="cls-13" d="M99.53,71.72A2.52,2.52,0,0,0,102,69.15a2.58,2.58,0,0,0-.58-1.64A7.1,7.1,0,0,0,98.58,67c-.12,0-.23,0-.35,0a2.61,2.61,0,0,0-1.14,2.18A2.51,2.51,0,0,0,99.53,71.72Z"/><path d="M100,69.72a1.54,1.54,0,0,0,1.49-1.57,1.69,1.69,0,0,0-.15-.68A7.1,7.1,0,0,0,99,67a1.6,1.6,0,0,0-.48,1.15A1.54,1.54,0,0,0,100,69.72Z"/><path id="eyeball-2" data-name="eyeball" class="cls-11" d="M100.9,67.93a.29.29,0,0,1,0-.58.29.29,0,0,1,0,.58Z"/></g><path id="shadow-2" data-name="shadow" class="cls-15" d="M109.38,70.86c.17-1.23-5.91,2.61-5.91,10,0,8.3-4.88,14.26-3.91,16.76,4.09,10.54,13.29-3.77,17.91-3.46S108.27,79.11,109.38,70.86Z"/><path class="cls-16" d="M110.89,93.76c.1-.44,3.56-7.56,7.88-4.32s.11,6.58-5.62,6.8c1.14.88-8.39,1.65-9,1.37-2.5-1.17-2.35-4.83.78-4.93A11.62,11.62,0,0,1,110.89,93.76Z"/><path class="cls-17" d="M104,77.31c-1.55,6.11.29,10-.33,11.29S103,91,102.26,92.43c-1.62,3.18.1,5.33,2.19,5.23-.19-.9,0-1.79-.15-2.35a.5.5,0,0,1,.92-.36c.84,1.26,2.48,4.14,4.82,4.12s3.43-2.35,3.22-2.84c-2-.17-3.11-2.56,1.26-3.59,3.81-.89,4.37,2.44,3.4,2.55,2.44,1.33,4.61.6,4.47-2.55s-.38-6.9-7-7.63c-1.92-5.1-2-13.73-1.6-19.46,0,0,1.44-5-2.32-5-1.18,0-2.29-2.41-4.67,2.33C105.94,64.68,105.64,70.75,104,77.31Z"/><path class="cls-9" d="M163.38,32.63c-5.66-15.08-36.37-8.54-46.5-11.94-21-7-29.4,6.43-32.06,21.54,2.62.37,5-.1,6.62-2.16,5.33-6.91,7-12.15,14.78-8s8.92,6.37,20.36,1.47A11.84,11.84,0,0,0,141,34.83c6.22-4.06,8.91,13.13,13.61,17.1A45,45,0,0,0,166,58.19C166.49,49.67,166.09,39.88,163.38,32.63Z"/><path class="cls-1" d="M179.31,115.39c0,.34,0,.52,0,.52A4.4,4.4,0,0,0,179.31,115.39Z"/><path class="cls-1" d="M177.87,84.81a1.41,1.41,0,0,0-.27-.68A6.7,6.7,0,0,0,177.87,84.81Z"/><path class="cls-1" d="M181.28,112.31a19,19,0,0,1-.14,2A5.49,5.49,0,0,0,181.28,112.31Z"/><path class="cls-1" d="M184.77,101.83c4.4-3.27,9.61-13.21,7.43-23.88-2.63-12.9-17.64-21.06-16.06-24.48s1.05-25.27-1.84-32.64-7.11-6.06-17.64-14.48-27.11-4.21-27.11-4.21C121.65-5.5,108,9.77,108,9.77c-2.63-.52-11.42,2.37-14.62,7.11s.41,6.32-5.39,9.48-9.47,36.06-7.37,44.22-7.89,15.53-7.89,15.53c-4.22,10-1.58,16.06,5.52,19.48-1.58,2.37-5.52-3.16-5.52-3.16,1,4.74,5.79,6.06,7.37,9.75s5.45,5.19,9.45,3.51c7.29-3.08-3.8-18.17-4.69-26.53-.69-6.45,2.24-16.61,2.32-21.37,0-2.12-2.46-14-1.82-19.32C86.93,42.56,89,31.74,89,31.74c2,1.39,2,3.48,8.65-.5,5.58-3.31,4.24-8.76,4.56-8,3.42,7.63,12.37,9.47,12.37,9.47,12,0,8-8,10.53-7.89.77,0-.65,7.75,8.69,7.89,6.1.1,7.63-3.77,7.63-3.77,11.85-5.09,10,16.41,15.27,22.73s1.05,12.37,2.37,15-5.53,10.53-5.53,10.53a13.87,13.87,0,0,0,6.06-6s3.68,10.53.52,7.37S149,82.16,159,87.69s8.17-6.07,6.58-11.08c5.31,2.58,12.11.55,12.11,2.13-2.89-1.84-5,2.9-5,2.9,2.46-2.87,4.24.86,4.88,2.49a1.41,1.41,0,0,1,.27.68,6.7,6.7,0,0,1-.27-.68c-1-1.36-4.62.93-4.62.93,4.21,1,2.92,2.83,2.88,3.4-.26-2.11-10-2.35-6.3-1,1.92.68,2.77,3.15,3.18,5.1C174.84,97.24,179.54,100.43,184.77,101.83Z"/><path class="cls-18" d="M87.14,67.93c0-2.13-2.46-14-1.82-19.32,1.09-4,2.38-10.29,3.09-13.91,0,0,.59-2.82.55-2.83C83,31.13,81.69,58.71,83,63.45s-.3,13.28-2.4,21.56,1.47,7.84,1.26,14.06-3.81,2.18-4.44,1c0,0,5.22,15.64,12,15.77h0c7.29-3.07-3.8-18.16-4.69-26.53C84.13,82.85,87.06,72.68,87.14,67.93Z"/><path class="cls-19" d="M102.24,108.94a9.77,9.77,0,0,0,4.93,1.67,37.75,37.75,0,0,0,7.06.12c2.51-.19,4.12-.79,5.62-.93s6.59-1.12,6.73-1.54c0,0-10.12-.24-11.87.31-.3,0-1.15.14-1.15.14a8.09,8.09,0,0,1-2.3-.07C109.3,108.44,102.24,108.94,102.24,108.94Z"/><path class="cls-20" d="M112,106.85s9.71-1.81,14.59,1.54l-8.79-.13s-2.59.25-4.52.48-9.2.13-11,.2A19.7,19.7,0,0,1,112,106.85Z"/><path class="cls-21" d="M134.14,63.13c4.75.76,5.1,1.69,6.22,3.49,0,0,.8,2.88,2.06,2.67s-1.3.9-3.08.69-2.25-3.57-7.07-3.88c-6.16-.39-8,4.18-8.39,4.05S123.68,61.45,134.14,63.13Z"/><path class="cls-22" d="M124.21,70.26s4.85,3.36,9.53,2,5-2.74,6.23-2.11c2.91,1.5-.91,5.42-7.78,5.42C126.52,75.58,125.63,72.75,124.21,70.26Z"/><path class="cls-23" d="M105.1,70.37c-2.33-3-3.13-3.77-6.33-4-6.48-.43-7.33,4.47-7.33,4.47s-4.53-4.33,4.19-7.47C103,60.73,106.42,70.3,105.1,70.37Z"/><path class="cls-24" d="M91.48,70.64c1.83,1.08,6.13,3.82,11.07,1.26,4-2.09,1.11,10.12-8.5,5.66C90.58,76,91.48,70.64,91.48,70.64Z"/><path class="cls-25" d="M127.4,97.67c-2-3.49-6.67-17.59-2.57-17.48,7.26.21,22.61-2.1,30.59-2.88,0,0-7.42,5.51,2.44,11,5.61,3.14-8.94,22.25-18,22.25S127.4,97.67,127.4,97.67Z"/><path class="cls-26" d="M98.83,57.62c-6.35-.57-7.51-2-12.62,3.32.21,2.22.61,5.25.93,7-1.44,10-2.9,17-2.32,22.21.69,3.71,5.19,12.58,6.62,18.07a40.89,40.89,0,0,0,2.29,10.08c1-5,2.26-10.3,2.48-14.2.42-7.26,7.26-23.18,7.26-23.18a7.73,7.73,0,0,1-8.7.84c-5.21-2.51-5.49-12.82-5-13.82,2.46-4.72,6-5.34,8.48-5.4,5-.1,6.27,4.36,6.81,5.4C105.1,67.93,110.8,58.71,98.83,57.62Z"/><path class="cls-27" d="M112.89,119.23c7.28-.11,11.8,4.15,11.19,8.66s-5.08,6.11-11.84,5.5-9.57-3.06-10.23-7.08C101.57,123.62,104.51,119.35,112.89,119.23Z"/><path class="cls-28" d="M104.31,113.9a7.5,7.5,0,0,0,8.86,4.28c6.64-1.41,8.58-8.15,12.18-8.26.93,0-2.1-1.55-12.18,0S102.84,111.69,104.31,113.9Z"/><path class="cls-29" d="M123.48,68.36c-6.74-1.47-7.51-.72-7.09-4.06,0,0,2.86-9.22,9.12-6.68,4.93,2,10,.67,15.07,3.84s9.16,4.11,9,4.35-6.85-1.44-6.85-1.44,1.89,2.25,4.34,5.35c.31-.2-6.5-6.33-13-6.81C125.21,61.42,125.89,68.88,123.48,68.36Z"/><path class="cls-30" d="M130.12,110.11c.37,3.69-.43,3.48-.43,3.48a14.61,14.61,0,0,0-2-4.33,17.28,17.28,0,0,0-3.49-3.59S129.75,106.43,130.12,110.11Z"/><path class="cls-31" d="M123.48,70a8.31,8.31,0,0,0,1.8-1c.94-.76-.1,1.11.23,1.42s-.31.79-.31.79Z"/><path class="cls-32" d="M103.5,69.12c0,1,.45.94.18,1.74l-.26.81,2-1Z"/><polygon class="cls-33" points="120.54 57.5 124.36 56.59 128.59 56.6 134.27 54.28 139.19 53.83 143.66 54.69 146.57 58.31 147.09 63.48 141.7 61.61 136.79 60.51 131.66 61.59 126.81 61.63 122.61 60.34 120.54 57.5"/><path class="cls-34" d="M146.72,59.81A58.53,58.53,0,0,1,141,57.62c-3.36-1.08-7.31.25-12.16,1a16.1,16.1,0,0,1-7.88-1.25l-.37.09,2.08,2.84,4.19,1.29,4.85,0,5.13-1.08,4.91,1.1,5.4,1.87Z"/><polygon class="cls-33" points="105.38 61.89 103 59.86 100 58.25 95.65 57.63 91.61 60.3 88.27 64.15 87.96 69.34 91.9 65.33 96.17 62.52 100.69 61.83 103.79 64.01 105.4 67.93 105.38 61.89"/><path class="cls-34" d="M96.17,62.52l4.52-.69,3.1,2.18,1.61,3.92V65.66a15.36,15.36,0,0,0-3.15-4.2c-1.91-1.28-7.88-1.43-11,1.46-1,.89-2,1.76-3.08,2.62L88,69.34l3.94-4Z"/></g></g></svg>