<svg xmlns="http://www.w3.org/2000/svg" viewBox="0 0 73.23 59.05"><defs><style>.cls-1{fill:#c60b27;stroke:#fff7f0;stroke-miterlimit:10;stroke-width:1.26px;}</style></defs><title>North Carolina</title><g id="Layer_2" data-name="Layer 2"><g id="_13colonies" data-name="13colonies"><path id="North_Carolina" data-name="North Carolina" class="cls-1" d="M32.58,13.68,45,5.64l8,4,1.1,4,4.89,2.05v8.35l6,1.41,2.37,2.37-.79,2.05-2.77-.79,6.08,3.78v3l-5.2-1.26v2.84H72.6v3.31S3,58.58,2.48,58.42,9.89,47.24,9.89,47.24l-7.43-8-1.71-8,3.63-.7,3.15-7.25,2,1.57L13.2,22.5l-1.58-3.62.16-2.11h3.78s.16-11.6.16-12.23S25.8.76,25.8.76Z"/></g></g></svg>